<svg version="1.1" id="Layer_1" xmlns="http://www.w3.org/2000/svg" xmlns:xlink="http://www.w3.org/1999/xlink" x="0px" y="0px"
	 width="100%" viewBox="0 0 500 500" enable-background="new 0 0 500 500" xml:space="preserve">
<path fill="#000000" opacity="1.000000" stroke="none" 
	d="
M280.000000,501.000000 
	C186.666687,501.000000 93.833374,501.000000 1.000050,501.000000 
	C1.000033,334.333405 1.000033,167.666794 1.000017,1.000139 
	C167.666565,1.000093 334.333130,1.000093 500.999756,1.000046 
	C500.999847,167.666519 500.999847,334.333038 500.999939,500.999786 
	C427.500000,501.000000 354.000000,501.000000 280.000000,501.000000 
M407.664612,136.784500 
	C409.764374,136.398621 411.864105,136.012726 413.963867,135.626846 
	C412.882355,134.144577 411.846100,133.983734 410.898651,133.602249 
	C409.834656,133.173828 408.850922,132.546082 407.928314,131.410126 
	C407.633453,130.307587 407.338593,129.205063 407.596863,128.173264 
	C411.040344,126.655518 412.135864,123.932632 410.310638,121.374336 
	C412.063629,119.868042 416.409332,122.623543 416.357056,118.570259 
	C413.591766,117.309280 410.674835,116.781906 409.145355,115.037834 
	C407.827148,113.534660 408.089447,110.645493 407.652954,108.369102 
	C407.396088,106.781555 405.659485,105.861931 404.307068,104.547096 
	C402.950012,103.227806 401.976074,101.514465 401.118378,99.479294 
	C401.525543,99.129272 401.932709,98.779259 403.459686,97.466644 
	C401.431702,98.296204 400.695007,98.597542 399.320251,99.002602 
	C398.374237,99.489517 397.428223,99.976433 396.593170,100.406227 
	C396.050690,99.579384 395.556793,98.826591 394.681824,97.703392 
	C394.553345,97.581451 394.424866,97.459518 394.579865,96.734077 
	C393.480530,95.197510 392.381195,93.660934 390.861938,91.537430 
	C391.013092,91.094223 391.524506,89.594696 392.699982,88.288139 
	C394.974792,88.653374 397.249634,89.018600 399.817413,89.430870 
	C399.328369,86.294533 399.010925,84.258827 398.614197,81.714668 
	C398.100647,83.441406 397.730377,84.686493 397.499115,85.464050 
	C395.313660,86.028755 393.640839,86.460999 391.478149,87.023811 
	C391.317261,87.075623 391.156403,87.127441 390.551086,87.036903 
	C390.551086,87.036903 390.092407,86.950310 390.023376,86.214653 
	C390.299377,84.802551 390.575378,83.390450 391.002197,81.298012 
	C391.128662,80.299110 391.255157,79.300209 391.381653,78.301308 
	C390.777618,78.315887 390.173553,78.330467 389.569550,78.345047 
	C389.693665,79.194626 389.817780,80.044212 389.291687,80.947174 
	C387.624908,80.906761 384.680298,80.389450 384.489746,80.899986 
	C382.662567,85.795738 380.496185,79.225540 378.790710,81.205948 
	C379.330963,79.837540 379.887390,78.475189 380.403442,77.097717 
	C380.608673,76.549919 380.724518,75.968620 380.610046,76.382561 
	C378.116974,75.066010 376.113861,74.008209 374.319275,72.293709 
	C376.483307,71.517944 378.647308,70.742188 380.879242,69.942085 
	C379.830444,67.505066 378.818939,65.158699 376.580414,68.689774 
	C375.811310,67.329483 374.963989,65.830818 373.560944,63.349277 
	C372.458008,66.536003 371.702026,68.720299 370.353180,71.154602 
	C368.900879,71.159630 367.448578,71.164665 365.469574,70.913208 
	C364.999878,70.572487 364.530212,70.231758 364.031982,69.169044 
	C364.642426,67.244682 365.252869,65.320328 365.753052,63.743580 
	C366.976746,63.137409 368.112762,62.574665 369.248810,62.011925 
	C358.140991,62.033623 358.140991,62.033623 357.173981,68.990967 
	C356.100525,69.293678 355.027039,69.596390 353.396423,69.745407 
	C352.920624,69.221909 352.444855,68.698418 351.469910,68.191238 
	C351.166656,68.370560 350.969208,68.630318 350.286469,69.014450 
	C348.842834,70.263565 346.032684,66.301140 344.723633,70.715393 
	C343.250793,69.980873 341.526428,69.522774 340.355011,68.456985 
	C337.507019,65.865891 335.691406,66.217400 334.499603,70.045044 
	C334.074646,68.649925 333.686920,67.377144 333.363831,66.316483 
	C332.173279,67.438713 331.198273,68.357780 330.223236,69.276848 
	C329.979919,69.017082 329.736603,68.757317 329.493286,68.497551 
	C330.954529,65.810753 332.415741,63.123962 334.048676,60.121468 
	C333.622345,59.464809 332.831421,58.246635 331.632965,56.400723 
	C328.700317,59.542274 326.132507,62.292950 322.877411,65.779877 
	C322.935822,65.800308 321.058960,65.705505 320.724548,64.938324 
	C317.825714,58.288322 316.375763,63.907806 314.593079,65.703445 
	C310.199158,63.700813 306.090424,64.614586 301.676849,65.481773 
	C297.066986,66.387520 291.838379,66.826271 287.425049,65.564163 
	C272.169098,61.201355 256.709076,60.787140 241.026810,60.851051 
	C228.699982,60.901299 216.589752,62.085258 204.789886,65.293915 
	C176.551056,72.972710 151.792984,87.125336 131.000732,107.671791 
	C116.087021,122.409195 104.687920,139.773209 96.450386,159.116592 
	C89.832909,174.655716 85.211662,190.879791 84.221245,207.666351 
	C83.042870,227.638351 84.099907,247.504150 89.750168,267.102509 
	C99.463821,300.795044 117.912735,328.508667 145.018478,350.308716 
	C170.448364,370.760986 199.937012,382.221802 232.381836,384.774841 
	C253.028061,386.399445 273.587311,384.411652 293.646637,378.215698 
	C325.217194,368.464142 351.411285,350.885101 372.158569,325.293915 
	C399.658142,291.373993 410.952209,252.240646 407.898438,208.997330 
	C407.139618,198.252060 404.013885,187.682892 402.157562,177.001251 
	C401.510956,173.280502 401.421326,169.463699 401.049957,165.693451 
	C401.002075,165.207214 400.931519,164.530365 400.615814,164.312759 
	C400.232880,164.048843 399.578278,164.179077 399.041229,164.138763 
	C399.101440,163.348236 399.161652,162.557724 399.217316,161.826767 
	C402.896179,161.310501 406.307892,160.831726 409.597900,160.370026 
	C409.152191,159.007462 408.646393,157.064941 407.831238,155.262314 
	C407.639740,154.838760 406.403412,154.887650 405.289490,154.321320 
	C405.168640,154.189987 405.047791,154.058670 404.769104,153.354645 
	C404.686066,152.231262 404.603027,151.107880 404.519989,149.984497 
	C405.019836,149.905869 405.519653,149.827240 406.019501,149.748611 
	C405.383850,147.151688 404.748169,144.554764 404.022736,141.274078 
	C403.815735,139.964569 403.608765,138.655045 403.401764,137.345520 
	C404.196808,138.179413 404.991852,139.013306 405.923431,139.990433 
	C406.276367,139.115036 406.692871,138.081955 407.664612,136.784500 
M176.464630,460.195251 
	C182.182526,458.186829 186.094742,454.234589 187.904739,448.555725 
	C190.323975,440.965424 189.520721,433.625366 183.972168,427.594147 
	C177.717651,420.795563 169.500900,419.691254 161.010834,421.643402 
	C147.778290,424.686005 142.239761,438.726410 147.975052,450.801941 
	C152.662659,460.671600 163.623489,464.373260 176.464630,460.195251 
M210.017639,461.795471 
	C216.762222,462.189453 222.835342,460.600098 226.132843,454.239075 
	C229.324982,448.081238 229.233643,441.405182 224.973038,435.809235 
	C219.653793,428.822845 212.298279,428.859161 203.983337,432.212860 
	C203.983337,428.868530 203.870148,426.091949 204.012741,423.328552 
	C204.181152,420.064728 202.716537,418.942841 199.552155,418.958466 
	C196.486420,418.973602 194.945358,419.871124 194.977875,423.226349 
	C195.085999,434.384094 195.084229,445.544159 194.976196,456.701904 
	C194.944351,459.989349 196.339325,461.081696 199.476028,461.038971 
	C202.721390,460.994781 205.972519,461.372406 210.017639,461.795471 
M301.071106,452.670135 
	C306.939423,461.219788 310.389526,462.729279 318.075531,459.858948 
	C314.047455,454.536285 310.074707,449.286713 305.915039,443.790131 
	C310.002075,439.532745 313.833405,435.541718 318.475311,430.706329 
	C313.053314,430.109711 309.079529,428.705811 305.459930,432.032684 
	C302.396362,434.848511 299.220367,437.542023 294.996582,441.254242 
	C294.996582,434.358276 294.870392,429.211395 295.040527,424.074341 
	C295.155609,420.599548 294.156372,418.932648 290.290985,418.904083 
	C286.357483,418.875061 285.007843,420.290314 285.069183,424.156158 
	C285.235626,434.645874 285.258575,445.142517 285.058502,455.631104 
	C284.979523,459.770508 286.471649,461.189941 290.585876,461.093292 
	C294.236969,461.007446 294.956268,459.359650 295.099060,456.171509 
	C295.307556,451.518555 297.057465,450.436951 301.071106,452.670135 
M346.961304,436.633209 
	C342.682251,444.354584 343.510620,452.440247 349.104309,457.551941 
	C354.791443,462.748993 364.606293,463.394135 371.479553,459.242157 
	C374.270325,457.556335 374.225189,456.035736 372.262390,453.714325 
	C370.469635,451.594025 368.930145,451.981018 366.683136,453.007965 
	C361.169037,455.528046 356.502472,454.000885 354.852112,448.998810 
	C360.161530,448.998810 365.283386,449.023041 370.404907,448.992432 
	C376.262146,448.957428 376.666656,448.512817 375.947357,442.661194 
	C375.788605,441.369751 375.428223,440.050659 374.891571,438.866272 
	C370.089996,428.269745 356.614746,426.917114 346.961304,436.633209 
M251.124908,455.223755 
	C257.396881,462.495422 267.402710,464.089233 275.413971,459.279419 
	C278.140137,457.642609 278.338440,456.140198 276.311859,453.771332 
	C274.555695,451.718597 273.059387,451.891571 270.748749,452.968964 
	C265.256073,455.530090 260.660095,454.057434 258.762604,448.994324 
	C264.438324,448.994324 269.888489,448.817200 275.320770,449.052490 
	C279.388641,449.228699 280.855560,447.625641 280.022247,443.735504 
	C279.678467,442.130585 279.553589,440.422821 278.905090,438.948334 
	C275.269745,430.682465 265.050232,427.518951 256.451782,431.893738 
	C248.247803,436.067841 245.810654,445.813751 251.124908,455.223755 
M333.114929,440.061951 
	C334.459198,439.356140 335.735443,438.278290 337.161072,438.017670 
	C340.726166,437.365997 340.575714,433.329712 339.592346,432.938660 
	C335.243164,431.209198 333.806641,426.520599 330.694855,424.518158 
	C324.048370,420.241089 323.688629,428.921387 320.289276,431.528290 
	C319.287750,432.296326 319.500580,434.771759 319.381866,436.480347 
	C319.352112,436.908813 320.319183,437.330017 320.609283,437.871765 
	C321.461151,439.462616 322.646790,441.049744 322.887207,442.753296 
	C323.278717,445.527710 322.862396,448.405396 323.073395,451.218018 
	C323.693787,459.489075 331.042938,464.144470 338.754150,461.054749 
	C339.945221,460.577515 341.660217,458.499451 341.403442,457.888458 
	C340.756500,456.348846 339.123413,454.133209 337.882965,454.131561 
	C333.624969,454.125824 332.809753,451.860870 332.893372,448.420227 
	C332.953979,445.927277 332.949097,443.432739 333.114929,440.061951 
M232.264389,472.881348 
	C240.008926,470.700012 242.577194,468.417114 242.842865,461.720795 
	C243.211548,452.427246 243.089508,443.104889 242.810532,433.805878 
	C242.772202,432.528503 240.811554,430.567413 239.416748,430.218414 
	C235.951843,429.351532 233.806961,430.606506 233.941437,434.846497 
	C234.173141,442.152588 234.175720,449.477966 233.917847,456.782654 
	C233.778702,460.724152 234.464569,465.753754 227.491623,464.759521 
	C226.657272,464.640564 225.064575,467.491302 224.491943,469.190826 
	C224.297958,469.766541 226.014175,471.340088 227.135727,471.911469 
	C228.414917,472.563141 230.004822,472.604919 232.264389,472.881348 
M242.709412,418.689026 
	C238.289459,416.018951 233.973526,416.607361 233.378464,420.256989 
	C233.084396,422.060486 233.788132,424.887970 235.082718,425.851013 
	C236.422943,426.848114 239.332382,426.812622 241.004211,426.038452 
	C243.602463,424.835205 244.826935,422.359314 242.709412,418.689026 
M416.252869,103.001045 
	C410.123505,100.876228 408.826508,101.148018 408.465485,104.542679 
	C410.960968,104.680168 413.461426,104.890465 415.960205,104.872391 
	C416.309296,104.869873 416.650269,103.745247 416.252869,103.001045 
M402.117126,95.358475 
	C402.223450,94.726448 402.329803,94.094429 402.449127,93.385262 
	C400.524506,93.673248 398.611542,93.959480 396.698547,94.245720 
	C396.653625,94.619461 396.608673,94.993195 396.563721,95.366936 
	C398.492157,95.569725 400.420593,95.772522 402.117126,95.358475 
M348.615173,59.979321 
	C349.042023,59.961681 349.468903,59.944046 349.895752,59.926414 
	C349.822144,59.477879 349.748535,59.029343 349.674927,58.580799 
	C349.220917,58.883961 348.766907,59.187122 348.615173,59.979321 
M392.547089,91.703217 
	C392.957306,91.781593 393.367523,91.859970 393.777740,91.938347 
	C393.496246,91.703056 393.214722,91.467766 392.547089,91.703217 
M398.462738,92.535385 
	C398.082672,92.511627 397.702637,92.487862 397.322571,92.464096 
	C397.582031,92.587769 397.841522,92.711441 398.462738,92.535385 
z"/>
<path fill="#3A7C78" opacity="1.000000" stroke="none" 
	d="
M405.647766,154.719177 
	C406.403412,154.887650 407.639740,154.838760 407.831238,155.262314 
	C408.646393,157.064941 409.152191,159.007462 409.597900,160.370026 
	C406.307892,160.831726 402.896179,161.310501 399.217316,161.826767 
	C399.161652,162.557724 399.101440,163.348236 399.041229,164.138763 
	C399.578278,164.179077 400.232880,164.048843 400.615814,164.312759 
	C400.931519,164.530365 401.002075,165.207214 401.049957,165.693451 
	C401.421326,169.463699 401.510956,173.280502 402.157562,177.001251 
	C404.013885,187.682892 407.139618,198.252060 407.898438,208.997330 
	C410.952209,252.240646 399.658142,291.373993 372.158569,325.293915 
	C351.411285,350.885101 325.217194,368.464142 293.646637,378.215698 
	C273.587311,384.411652 253.028061,386.399445 232.381836,384.774841 
	C199.937012,382.221802 170.448364,370.760986 145.018478,350.308716 
	C117.912735,328.508667 99.463821,300.795044 89.750168,267.102509 
	C84.099907,247.504150 83.042870,227.638351 84.221245,207.666351 
	C85.211662,190.879791 89.832909,174.655716 96.450386,159.116592 
	C104.687920,139.773209 116.087021,122.409195 131.000732,107.671791 
	C151.792984,87.125336 176.551056,72.972710 204.789886,65.293915 
	C216.589752,62.085258 228.699982,60.901299 241.026810,60.851051 
	C256.709076,60.787140 272.169098,61.201355 287.425049,65.564163 
	C291.838379,66.826271 297.066986,66.387520 301.676849,65.481773 
	C306.090424,64.614586 310.199158,63.700813 314.593079,65.703445 
	C316.375763,63.907806 317.825714,58.288322 320.724548,64.938324 
	C321.058960,65.705505 322.935822,65.800308 322.877411,65.779877 
	C326.132507,62.292950 328.700317,59.542274 331.632965,56.400723 
	C332.831421,58.246635 333.622345,59.464809 334.048676,60.121468 
	C332.415741,63.123962 330.954529,65.810753 329.493286,68.497551 
	C329.736603,68.757317 329.979919,69.017082 330.223236,69.276848 
	C331.198273,68.357780 332.173279,67.438713 333.363831,66.316483 
	C333.686920,67.377144 334.074646,68.649925 334.499603,70.045044 
	C335.691406,66.217400 337.507019,65.865891 340.355011,68.456985 
	C341.526428,69.522774 343.250793,69.980873 345.257202,70.858246 
	C345.790741,74.220169 345.790741,77.439232 345.790741,80.914871 
	C346.986694,80.698700 349.397675,79.486420 351.177612,80.101189 
	C355.005005,81.423126 358.453461,83.803314 362.167023,85.511192 
	C363.867401,86.293213 365.966064,86.231155 367.632965,87.058128 
	C369.485687,87.977295 372.220947,89.241066 372.523102,90.761909 
	C373.411377,95.232437 375.233093,96.694565 379.934204,96.568001 
	C382.666870,96.494423 385.469696,99.026917 388.240967,100.386749 
	C386.641876,102.265259 385.025726,104.129753 383.458862,106.034775 
	C383.164673,106.392448 383.067291,106.911987 382.849609,107.426468 
	C385.907379,111.098068 388.463104,114.824265 394.277740,114.943710 
	C396.941772,114.998444 399.783325,117.770279 402.051147,119.848167 
	C402.891479,120.618073 402.651367,124.262840 402.342438,124.339714 
	C396.784607,125.722725 396.912262,130.007996 396.266876,134.435623 
	C395.225098,141.582367 396.970367,143.551559 404.112488,141.957840 
	C404.748169,144.554764 405.383850,147.151688 406.019501,149.748611 
	C405.519653,149.827240 405.019836,149.905869 404.519989,149.984497 
	C404.603027,151.107880 404.686066,152.231262 404.574554,153.684372 
	C404.179840,154.392960 403.979675,154.771805 403.779510,155.150665 
	C404.402252,155.006836 405.025024,154.863007 405.647766,154.719177 
M168.324326,240.361115 
	C168.324326,263.114105 168.324326,285.867096 168.324326,309.154785 
	C163.865967,309.154785 159.220093,308.870056 154.643097,309.307007 
	C153.009918,309.462921 151.543610,311.366913 150.001144,312.472992 
	C151.445938,313.358246 152.889099,315.014709 154.335739,315.017761 
	C215.469360,315.147308 276.603333,315.147339 337.736938,315.019836 
	C339.176056,315.016815 340.611786,313.377716 342.049103,312.501770 
	C340.542999,311.386169 339.114136,309.461029 337.516144,309.308594 
	C332.941864,308.872162 328.299011,309.154938 323.902832,309.154938 
	C323.902832,256.412415 323.902832,204.262360 323.902832,152.181274 
	C336.121918,151.165314 336.121887,151.165314 336.110565,139.536346 
	C336.110413,139.369766 336.110718,139.203171 336.110382,139.036591 
	C336.097260,132.166931 336.097229,132.150665 329.193756,132.150040 
	C276.220551,132.145248 223.247116,132.062698 170.274246,132.195358 
	C152.936935,132.238785 156.284531,129.240128 155.870926,147.659073 
	C155.802414,150.710022 157.243240,151.871155 160.078171,151.845657 
	C162.679138,151.822250 165.280502,151.840698 168.324280,151.840698 
	C168.324280,181.486938 168.324280,210.438950 168.324326,240.361115 
M390.820251,135.516022 
	C391.397949,135.386261 391.975616,135.256500 392.553314,135.126740 
	C392.373901,134.718536 392.194519,134.310333 392.015137,133.902145 
	C391.553802,134.296661 391.092468,134.691193 390.820251,135.516022 
z"/>
<path fill="#387C78" opacity="1.000000" stroke="none" 
	d="
M404.067627,141.615967 
	C396.970367,143.551559 395.225098,141.582367 396.266876,134.435623 
	C396.912262,130.007996 396.784607,125.722725 402.342438,124.339714 
	C402.651367,124.262840 402.891479,120.618073 402.051147,119.848167 
	C399.783325,117.770279 396.941772,114.998444 394.277740,114.943710 
	C388.463104,114.824265 385.907379,111.098068 382.849609,107.426468 
	C383.067291,106.911987 383.164673,106.392448 383.458862,106.034775 
	C385.025726,104.129753 386.641876,102.265259 388.240967,100.386749 
	C385.469696,99.026917 382.666870,96.494423 379.934204,96.568001 
	C375.233093,96.694565 373.411377,95.232437 372.523102,90.761909 
	C372.220947,89.241066 369.485687,87.977295 367.632965,87.058128 
	C365.966064,86.231155 363.867401,86.293213 362.167023,85.511192 
	C358.453461,83.803314 355.005005,81.423126 351.177612,80.101189 
	C349.397675,79.486420 346.986694,80.698700 345.790741,80.914871 
	C345.790741,77.439232 345.790741,74.220169 345.552765,70.659576 
	C346.032684,66.301140 348.842834,70.263565 350.770416,68.868896 
	C351.502014,68.552795 351.740234,68.369995 351.969055,68.174927 
	C352.444855,68.698418 352.920624,69.221909 354.005737,70.004059 
	C356.557404,70.455605 358.499817,70.648506 360.442200,70.841408 
	C360.479004,70.420639 360.515808,69.999878 360.552612,69.579109 
	C359.664703,69.371948 358.776794,69.164787 357.888885,68.957634 
	C358.140991,62.033623 358.140991,62.033623 369.248810,62.011925 
	C368.112762,62.574665 366.976746,63.137409 365.753052,63.743580 
	C365.252869,65.320328 364.642426,67.244682 364.068604,69.786179 
	C364.735596,70.658768 365.365936,70.914230 365.996277,71.169693 
	C367.448578,71.164665 368.900879,71.159630 370.753845,71.323822 
	C371.384064,72.918816 371.613647,74.344582 371.944214,76.397545 
	C372.947205,74.801727 373.528961,73.876068 374.110748,72.950409 
	C376.113861,74.008209 378.116974,75.066010 380.610046,76.382561 
	C380.724518,75.968620 380.608673,76.549919 380.403442,77.097717 
	C379.887390,78.475189 379.330963,79.837540 378.790710,81.205948 
	C380.496185,79.225540 382.662567,85.795738 384.489746,80.899986 
	C384.680298,80.389450 387.624908,80.906761 389.761475,81.106964 
	C390.428680,81.512024 390.635406,81.749222 390.851379,81.978355 
	C390.575378,83.390450 390.299377,84.802551 389.973053,86.728516 
	C389.968140,87.509270 390.013580,87.776161 390.059021,88.043045 
	C390.371185,87.755104 390.683380,87.467171 390.995575,87.179245 
	C391.156403,87.127441 391.317261,87.075623 391.740173,87.259003 
	C392.013397,87.694519 392.024658,87.894844 392.035950,88.095177 
	C391.524506,89.594696 391.013092,91.094223 390.861938,91.537430 
	C392.381195,93.660934 393.480530,95.197510 394.245422,97.212555 
	C393.826447,98.040962 393.741882,98.390900 393.657349,98.740829 
	C394.125824,98.518494 394.594360,98.296150 395.062866,98.073807 
	C395.556793,98.826591 396.050690,99.579384 396.593170,100.406227 
	C397.428223,99.976433 398.374237,99.489517 399.778168,99.135635 
	C400.425934,99.511810 400.625336,99.746857 400.834259,99.973816 
	C401.976074,101.514465 402.950012,103.227806 404.307068,104.547096 
	C405.659485,105.861931 407.396088,106.781555 407.652954,108.369102 
	C408.089447,110.645493 407.827148,113.534660 409.145355,115.037834 
	C410.674835,116.781906 413.591766,117.309280 416.357056,118.570259 
	C416.409332,122.623543 412.063629,119.868042 409.923767,121.841614 
	C407.357666,123.659950 405.556946,125.173889 407.043701,128.102539 
	C407.338593,129.205063 407.633453,130.307587 407.619263,131.891815 
	C407.243286,133.931961 407.176331,135.490402 407.109375,137.048859 
	C406.692871,138.081955 406.276367,139.115036 405.923431,139.990433 
	C404.991852,139.013306 404.196808,138.179413 403.401764,137.345520 
	C403.608765,138.655045 403.815735,139.964569 404.067627,141.615967 
M390.516388,106.328979 
	C392.034027,109.893509 394.184418,107.436897 395.935455,106.704956 
	C396.455322,106.487648 396.407898,104.913185 396.620392,103.960594 
	C394.992462,104.200386 393.352417,104.382751 391.745361,104.721581 
	C391.358643,104.803123 391.081329,105.403603 390.516388,106.328979 
M401.735046,133.770889 
	C404.006866,132.646149 404.006866,132.646149 401.414032,129.716507 
	C401.414032,131.292358 401.414032,132.319992 401.735046,133.770889 
M384.435577,85.461426 
	C385.527985,85.577278 386.620392,85.693138 387.712830,85.808998 
	C387.858887,85.425034 388.004944,85.041077 388.151001,84.657120 
	C387.323822,84.032104 386.496674,83.407097 385.669495,82.782074 
	C385.320984,83.443428 384.972504,84.104782 384.435577,85.461426 
M381.477905,86.506416 
	C381.477905,86.506416 381.512573,86.496262 381.477905,86.506416 
M372.478027,79.506386 
	C372.478027,79.506386 372.512695,79.496277 372.478027,79.506386 
M370.521881,78.493614 
	C370.521881,78.493614 370.487305,78.503723 370.521881,78.493614 
M351.493591,76.478111 
	C351.493591,76.478111 351.503723,76.512749 351.493591,76.478111 
z"/>
<path fill="#2A3D3B" opacity="1.000000" stroke="none" 
	d="
M176.115692,460.381836 
	C163.623489,464.373260 152.662659,460.671600 147.975052,450.801941 
	C142.239761,438.726410 147.778290,424.686005 161.010834,421.643402 
	C169.500900,419.691254 177.717651,420.795563 183.972168,427.594147 
	C189.520721,433.625366 190.323975,440.965424 187.904739,448.555725 
	C186.094742,454.234589 182.182526,458.186829 176.115692,460.381836 
M172.031311,452.819702 
	C180.476898,447.686676 181.833084,436.312073 174.587570,431.379730 
	C169.447433,427.880646 163.550034,428.300842 159.061050,432.486023 
	C154.894943,436.370270 154.071396,442.738251 157.056229,447.988098 
	C159.687500,452.616058 165.510376,454.676819 172.031311,452.819702 
z"/>
<path fill="#293D3B" opacity="1.000000" stroke="none" 
	d="
M209.619385,461.680511 
	C205.972519,461.372406 202.721390,460.994781 199.476028,461.038971 
	C196.339325,461.081696 194.944351,459.989349 194.976196,456.701904 
	C195.084229,445.544159 195.085999,434.384094 194.977875,423.226349 
	C194.945358,419.871124 196.486420,418.973602 199.552155,418.958466 
	C202.716537,418.942841 204.181152,420.064728 204.012741,423.328552 
	C203.870148,426.091949 203.983337,428.868530 203.983337,432.212860 
	C212.298279,428.859161 219.653793,428.822845 224.973038,435.809235 
	C229.233643,441.405182 229.324982,448.081238 226.132843,454.239075 
	C222.835342,460.600098 216.762222,462.189453 209.619385,461.680511 
M213.033569,453.781769 
	C214.167236,453.118835 215.602661,452.701782 216.379654,451.748230 
	C219.019302,448.508942 220.251831,444.550446 216.999527,441.421417 
	C215.072510,439.567444 211.365005,438.083099 208.917084,438.601196 
	C205.311630,439.364258 203.635223,443.033142 204.126358,446.897186 
	C204.714676,451.525970 207.526031,453.918732 213.033569,453.781769 
z"/>
<path fill="#293C3A" opacity="1.000000" stroke="none" 
	d="
M300.846313,452.419922 
	C297.057465,450.436951 295.307556,451.518555 295.099060,456.171509 
	C294.956268,459.359650 294.236969,461.007446 290.585876,461.093292 
	C286.471649,461.189941 284.979523,459.770508 285.058502,455.631104 
	C285.258575,445.142517 285.235626,434.645874 285.069183,424.156158 
	C285.007843,420.290314 286.357483,418.875061 290.290985,418.904083 
	C294.156372,418.932648 295.155609,420.599548 295.040527,424.074341 
	C294.870392,429.211395 294.996582,434.358276 294.996582,441.254242 
	C299.220367,437.542023 302.396362,434.848511 305.459930,432.032684 
	C309.079529,428.705811 313.053314,430.109711 318.475311,430.706329 
	C313.833405,435.541718 310.002075,439.532745 305.915039,443.790131 
	C310.074707,449.286713 314.047455,454.536285 318.075531,459.858948 
	C310.389526,462.729279 306.939423,461.219788 300.846313,452.419922 
z"/>
<path fill="#293D3B" opacity="1.000000" stroke="none" 
	d="
M347.207031,436.355713 
	C356.614746,426.917114 370.089996,428.269745 374.891571,438.866272 
	C375.428223,440.050659 375.788605,441.369751 375.947357,442.661194 
	C376.666656,448.512817 376.262146,448.957428 370.404907,448.992432 
	C365.283386,449.023041 360.161530,448.998810 354.852112,448.998810 
	C356.502472,454.000885 361.169037,455.528046 366.683136,453.007965 
	C368.930145,451.981018 370.469635,451.594025 372.262390,453.714325 
	C374.225189,456.035736 374.270325,457.556335 371.479553,459.242157 
	C364.606293,463.394135 354.791443,462.748993 349.104309,457.551941 
	C343.510620,452.440247 342.682251,444.354584 347.207031,436.355713 
M363.974670,438.486603 
	C358.370392,436.976379 356.744690,437.646088 354.796021,442.533691 
	C358.683655,442.533691 362.440796,442.533691 367.252747,442.533691 
	C365.980103,440.772675 365.286163,439.812469 363.974670,438.486603 
z"/>
<path fill="#293D3B" opacity="1.000000" stroke="none" 
	d="
M250.955658,454.886383 
	C245.810654,445.813751 248.247803,436.067841 256.451782,431.893738 
	C265.050232,427.518951 275.269745,430.682465 278.905090,438.948334 
	C279.553589,440.422821 279.678467,442.130585 280.022247,443.735504 
	C280.855560,447.625641 279.388641,449.228699 275.320770,449.052490 
	C269.888489,448.817200 264.438324,448.994324 258.762604,448.994324 
	C260.660095,454.057434 265.256073,455.530090 270.748749,452.968964 
	C273.059387,451.891571 274.555695,451.718597 276.311859,453.771332 
	C278.338440,456.140198 278.140137,457.642609 275.413971,459.279419 
	C267.402710,464.089233 257.396881,462.495422 250.955658,454.886383 
M267.974670,438.486603 
	C262.370392,436.976379 260.744690,437.646088 258.796021,442.533691 
	C262.683655,442.533691 266.440796,442.533691 271.252686,442.533691 
	C269.980072,440.772705 269.286163,439.812469 267.974670,438.486603 
z"/>
<path fill="#293C3A" opacity="1.000000" stroke="none" 
	d="
M333.044189,440.500427 
	C332.949097,443.432739 332.953979,445.927277 332.893372,448.420227 
	C332.809753,451.860870 333.624969,454.125824 337.882965,454.131561 
	C339.123413,454.133209 340.756500,456.348846 341.403442,457.888458 
	C341.660217,458.499451 339.945221,460.577515 338.754150,461.054749 
	C331.042938,464.144470 323.693787,459.489075 323.073395,451.218018 
	C322.862396,448.405396 323.278717,445.527710 322.887207,442.753296 
	C322.646790,441.049744 321.461151,439.462616 320.609283,437.871765 
	C320.319183,437.330017 319.352112,436.908813 319.381866,436.480347 
	C319.500580,434.771759 319.287750,432.296326 320.289276,431.528290 
	C323.688629,428.921387 324.048370,420.241089 330.694855,424.518158 
	C333.806641,426.520599 335.243164,431.209198 339.592346,432.938660 
	C340.575714,433.329712 340.726166,437.365997 337.161072,438.017670 
	C335.735443,438.278290 334.459198,439.356140 333.044189,440.500427 
z"/>
<path fill="#2A3D3B" opacity="1.000000" stroke="none" 
	d="
M231.862030,472.896576 
	C230.004822,472.604919 228.414917,472.563141 227.135727,471.911469 
	C226.014175,471.340088 224.297958,469.766541 224.491943,469.190826 
	C225.064575,467.491302 226.657272,464.640564 227.491623,464.759521 
	C234.464569,465.753754 233.778702,460.724152 233.917847,456.782654 
	C234.175720,449.477966 234.173141,442.152588 233.941437,434.846497 
	C233.806961,430.606506 235.951843,429.351532 239.416748,430.218414 
	C240.811554,430.567413 242.772202,432.528503 242.810532,433.805878 
	C243.089508,443.104889 243.211548,452.427246 242.842865,461.720795 
	C242.577194,468.417114 240.008926,470.700012 231.862030,472.896576 
z"/>
<path fill="#293D3B" opacity="1.000000" stroke="none" 
	d="
M242.888306,419.034485 
	C244.826935,422.359314 243.602463,424.835205 241.004211,426.038452 
	C239.332382,426.812622 236.422943,426.848114 235.082718,425.851013 
	C233.788132,424.887970 233.084396,422.060486 233.378464,420.256989 
	C233.973526,416.607361 238.289459,416.018951 242.888306,419.034485 
z"/>
<path fill="#3A7C78" opacity="1.000000" stroke="none" 
	d="
M374.215027,72.622055 
	C373.528961,73.876068 372.947205,74.801727 371.944214,76.397545 
	C371.613647,74.344582 371.384064,72.918816 371.050293,71.198822 
	C371.702026,68.720299 372.458008,66.536003 373.560944,63.349277 
	C374.963989,65.830818 375.811310,67.329483 376.580414,68.689774 
	C378.818939,65.158699 379.830444,67.505066 380.879242,69.942085 
	C378.647308,70.742188 376.483307,71.517944 374.215027,72.622055 
z"/>
<path fill="#3A7C78" opacity="1.000000" stroke="none" 
	d="
M392.367981,88.191658 
	C392.024658,87.894844 392.013397,87.694519 391.985107,87.193726 
	C393.640839,86.460999 395.313660,86.028755 397.499115,85.464050 
	C397.730377,84.686493 398.100647,83.441406 398.614197,81.714668 
	C399.010925,84.258827 399.328369,86.294533 399.817413,89.430870 
	C397.249634,89.018600 394.974792,88.653374 392.367981,88.191658 
z"/>
<path fill="#397C78" opacity="1.000000" stroke="none" 
	d="
M416.623901,103.070549 
	C416.650269,103.745247 416.309296,104.869873 415.960205,104.872391 
	C413.461426,104.890465 410.960968,104.680168 408.465485,104.542679 
	C408.826508,101.148018 410.123505,100.876228 416.623901,103.070549 
z"/>
<path fill="#3A7C78" opacity="1.000000" stroke="none" 
	d="
M407.386993,136.916687 
	C407.176331,135.490402 407.243286,133.931961 407.571228,132.189270 
	C408.850922,132.546082 409.834656,133.173828 410.898651,133.602249 
	C411.846100,133.983734 412.882355,134.144577 413.963867,135.626846 
	C411.864105,136.012726 409.764374,136.398621 407.386993,136.916687 
z"/>
<path fill="#3A7C78" opacity="1.000000" stroke="none" 
	d="
M407.320282,128.137909 
	C405.556946,125.173889 407.357666,123.659950 409.819214,122.128448 
	C412.135864,123.932632 411.040344,126.655518 407.320282,128.137909 
z"/>
<path fill="#3A7C78" opacity="1.000000" stroke="none" 
	d="
M357.531433,68.974304 
	C358.776794,69.164787 359.664703,69.371948 360.552612,69.579109 
	C360.515808,69.999878 360.479004,70.420639 360.442200,70.841408 
	C358.499817,70.648506 356.557404,70.455605 354.284302,70.080902 
	C355.027039,69.596390 356.100525,69.293678 357.531433,68.974304 
z"/>
<path fill="#3A7C78" opacity="1.000000" stroke="none" 
	d="
M402.233093,95.666893 
	C400.420593,95.772522 398.492157,95.569725 396.563721,95.366936 
	C396.608673,94.993195 396.653625,94.619461 396.698547,94.245720 
	C398.611542,93.959480 400.524506,93.673248 402.449127,93.385262 
	C402.329803,94.094429 402.223450,94.726448 402.233093,95.666893 
z"/>
<path fill="#3A7C78" opacity="1.000000" stroke="none" 
	d="
M390.926819,81.638184 
	C390.635406,81.749222 390.428680,81.512024 390.086548,81.080276 
	C389.817780,80.044212 389.693665,79.194626 389.569519,78.345047 
	C390.173553,78.330467 390.777618,78.315887 391.381653,78.301308 
	C391.255157,79.300209 391.128662,80.299110 390.926819,81.638184 
z"/>
<path fill="#3A7C78" opacity="1.000000" stroke="none" 
	d="
M365.732910,71.041451 
	C365.365936,70.914230 364.735596,70.658768 364.082886,70.147171 
	C364.530212,70.231758 364.999878,70.572487 365.732910,71.041451 
z"/>
<path fill="#367F74" opacity="1.000000" stroke="none" 
	d="
M348.464050,59.734802 
	C348.766907,59.187122 349.220917,58.883961 349.674927,58.580803 
	C349.748535,59.029343 349.822144,59.477879 349.895752,59.926414 
	C349.468903,59.944046 349.042023,59.961681 348.464050,59.734802 
z"/>
<path fill="#3A7C78" opacity="1.000000" stroke="none" 
	d="
M390.773315,87.108070 
	C390.683380,87.467171 390.371185,87.755104 390.059021,88.043045 
	C390.013580,87.776161 389.968140,87.509270 390.007568,87.096344 
	C390.092407,86.950310 390.551086,87.036903 390.773315,87.108070 
z"/>
<path fill="#3A7C78" opacity="1.000000" stroke="none" 
	d="
M400.976318,99.726555 
	C400.625336,99.746857 400.425934,99.511810 400.097229,99.083778 
	C400.695007,98.597542 401.431702,98.296204 403.459686,97.466644 
	C401.932709,98.779259 401.525543,99.129272 400.976318,99.726555 
z"/>
<path fill="#387C78" opacity="1.000000" stroke="none" 
	d="
M392.740173,91.467850 
	C393.214722,91.467766 393.496246,91.703056 393.777740,91.938347 
	C393.367523,91.859970 392.957306,91.781593 392.740173,91.467850 
z"/>
<path fill="#387C78" opacity="1.000000" stroke="none" 
	d="
M398.281860,92.685242 
	C397.841522,92.711441 397.582031,92.587769 397.322571,92.464096 
	C397.702637,92.487862 398.082672,92.511627 398.281860,92.685242 
z"/>
<path fill="#3A7C78" opacity="1.000000" stroke="none" 
	d="
M351.719482,68.183083 
	C351.740234,68.369995 351.502014,68.552795 351.065979,68.846924 
	C350.969208,68.630318 351.166656,68.370560 351.719482,68.183083 
z"/>
<path fill="#F9D503" opacity="1.000000" stroke="none" 
	d="
M168.324310,239.876038 
	C168.324280,210.438950 168.324280,181.486938 168.324280,151.840698 
	C165.280502,151.840698 162.679138,151.822250 160.078171,151.845657 
	C157.243240,151.871155 155.802414,150.710022 155.870926,147.659073 
	C156.284531,129.240128 152.936935,132.238785 170.274246,132.195358 
	C223.247116,132.062698 276.220551,132.145248 329.193756,132.150040 
	C336.097229,132.150665 336.097260,132.166931 336.110382,139.036591 
	C336.110718,139.203171 336.110413,139.369766 336.110565,139.536346 
	C336.121887,151.165314 336.121918,151.165314 323.902832,152.181274 
	C323.902832,204.262360 323.902832,256.412415 323.902832,309.154938 
	C328.299011,309.154938 332.941864,308.872162 337.516144,309.308594 
	C339.114136,309.461029 340.542999,311.386169 342.049103,312.501770 
	C340.611786,313.377716 339.176056,315.016815 337.736938,315.019836 
	C276.603333,315.147339 215.469360,315.147308 154.335739,315.017761 
	C152.889099,315.014709 151.445938,313.358246 150.001129,312.472992 
	C151.543610,311.366913 153.009918,309.462921 154.643097,309.307007 
	C159.220093,308.870056 163.865967,309.154785 168.324326,309.154785 
	C168.324326,285.867096 168.324326,263.114105 168.324310,239.876038 
M175.365112,276.499390 
	C175.365112,287.139984 175.365112,297.780609 175.365112,308.666626 
	C222.697357,308.666626 269.568604,308.666626 316.814575,308.666626 
	C316.814575,256.275757 316.814575,204.238754 316.814575,152.230682 
	C269.373138,152.230682 222.320908,152.230682 175.365051,152.230682 
	C175.365051,193.574234 175.365051,234.536789 175.365112,276.499390 
z"/>
<path fill="#387C78" opacity="1.000000" stroke="none" 
	d="
M390.725677,135.300873 
	C391.092468,134.691193 391.553802,134.296661 392.015137,133.902130 
	C392.194519,134.310333 392.373901,134.718536 392.553314,135.126740 
	C391.975616,135.256500 391.397949,135.386261 390.725677,135.300873 
z"/>
<path fill="#000000" opacity="1.000000" stroke="none" 
	d="
M405.468628,154.520248 
	C405.025024,154.863007 404.402252,155.006836 403.779510,155.150665 
	C403.979675,154.771805 404.179840,154.392960 404.653473,153.970718 
	C405.047791,154.058670 405.168640,154.189987 405.468628,154.520248 
z"/>
<path fill="#3A7C78" opacity="1.000000" stroke="none" 
	d="
M390.635040,106.047203 
	C391.081329,105.403603 391.358643,104.803123 391.745361,104.721581 
	C393.352417,104.382751 394.992462,104.200386 396.620392,103.960587 
	C396.407898,104.913185 396.455322,106.487648 395.935455,106.704956 
	C394.184418,107.436897 392.034027,109.893509 390.635040,106.047203 
z"/>
<path fill="#3A7C78" opacity="1.000000" stroke="none" 
	d="
M401.574524,133.559265 
	C401.414032,132.319992 401.414032,131.292358 401.414032,129.716507 
	C404.006866,132.646149 404.006866,132.646149 401.574524,133.559265 
z"/>
<path fill="#000000" opacity="1.000000" stroke="none" 
	d="
M384.529785,85.113777 
	C384.972504,84.104782 385.320984,83.443428 385.669495,82.782074 
	C386.496674,83.407097 387.323822,84.032104 388.151001,84.657120 
	C388.004944,85.041077 387.858887,85.425034 387.712830,85.808998 
	C386.620392,85.693138 385.527985,85.577278 384.529785,85.113777 
z"/>
<path fill="#000000" opacity="1.000000" stroke="none" 
	d="
M394.872345,97.888596 
	C394.594360,98.296150 394.125824,98.518494 393.657349,98.740829 
	C393.741882,98.390900 393.826447,98.040962 394.103699,97.514313 
	C394.424866,97.459518 394.553345,97.581451 394.872345,97.888596 
z"/>
<path fill="#3A7C78" opacity="1.000000" stroke="none" 
	d="
M381.495239,86.501343 
	C381.512573,86.496262 381.477905,86.506416 381.495239,86.501343 
z"/>
<path fill="#3A7C78" opacity="1.000000" stroke="none" 
	d="
M372.495361,79.501328 
	C372.512695,79.496277 372.478027,79.506386 372.495361,79.501328 
z"/>
<path fill="#3A7C78" opacity="1.000000" stroke="none" 
	d="
M370.504578,78.498672 
	C370.487305,78.503723 370.521881,78.493614 370.504578,78.498672 
z"/>
<path fill="#3A7C78" opacity="1.000000" stroke="none" 
	d="
M351.498657,76.495430 
	C351.503723,76.512749 351.493591,76.478111 351.498657,76.495430 
z"/>
<path fill="#000000" opacity="1.000000" stroke="none" 
	d="
M171.658173,452.921753 
	C165.510376,454.676819 159.687500,452.616058 157.056229,447.988098 
	C154.071396,442.738251 154.894943,436.370270 159.061050,432.486023 
	C163.550034,428.300842 169.447433,427.880646 174.587570,431.379730 
	C181.833084,436.312073 180.476898,447.686676 171.658173,452.921753 
z"/>
<path fill="#000000" opacity="1.000000" stroke="none" 
	d="
M212.650574,453.835236 
	C207.526031,453.918732 204.714676,451.525970 204.126358,446.897186 
	C203.635223,443.033142 205.311630,439.364258 208.917084,438.601196 
	C211.365005,438.083099 215.072510,439.567444 216.999527,441.421417 
	C220.251831,444.550446 219.019302,448.508942 216.379654,451.748230 
	C215.602661,452.701782 214.167236,453.118835 212.650574,453.835236 
z"/>
<path fill="#000000" opacity="1.000000" stroke="none" 
	d="
M364.283447,438.669434 
	C365.286163,439.812469 365.980103,440.772675 367.252747,442.533691 
	C362.440796,442.533691 358.683655,442.533691 354.796021,442.533691 
	C356.744690,437.646088 358.370392,436.976379 364.283447,438.669434 
z"/>
<path fill="#000000" opacity="1.000000" stroke="none" 
	d="
M268.283447,438.669434 
	C269.286163,439.812469 269.980072,440.772705 271.252686,442.533691 
	C266.440796,442.533691 262.683655,442.533691 258.796021,442.533691 
	C260.744690,437.646088 262.370392,436.976379 268.283447,438.669434 
z"/>
<path fill="#3B7D77" opacity="1.000000" stroke="none" 
	d="
M175.365082,275.999390 
	C175.365051,234.536789 175.365051,193.574234 175.365051,152.230682 
	C222.320908,152.230682 269.373138,152.230682 316.814575,152.230682 
	C316.814575,204.238754 316.814575,256.275757 316.814575,308.666626 
	C269.568604,308.666626 222.697357,308.666626 175.365112,308.666626 
	C175.365112,297.780609 175.365112,287.139984 175.365082,275.999390 
M255.517075,174.597137 
	C252.354355,174.597229 249.162445,174.867645 246.036133,174.530334 
	C241.943787,174.088776 239.825134,175.820343 237.936188,179.364471 
	C229.492004,195.207703 220.745712,210.889877 212.115143,226.633850 
	C208.551743,233.134216 209.198318,234.172913 216.827972,234.189163 
	C223.535507,234.203445 230.243118,234.192169 237.581589,234.192169 
	C236.375977,238.176361 235.513870,241.179550 234.559341,244.153061 
	C230.446045,256.966644 226.235733,269.749939 222.265503,282.607483 
	C221.781418,284.175232 222.534210,286.124878 222.713760,287.897552 
	C224.540298,287.122009 226.368851,286.351166 228.189209,285.561401 
	C228.323441,285.503174 228.396500,285.307129 228.501556,285.178040 
	C245.519409,264.270111 262.560516,243.380966 279.504669,222.413513 
	C280.645355,221.001984 281.054443,218.999237 281.803772,217.271454 
	C279.863922,216.667816 277.939240,215.608765 275.981476,215.543640 
	C269.406433,215.324921 262.819580,215.460526 255.258301,215.460526 
	C256.610535,213.123886 257.345764,211.713547 258.208099,210.385773 
	C264.368195,200.900757 270.611267,191.468857 276.679199,181.925507 
	C277.767700,180.213593 278.167358,178.063705 278.885101,176.116043 
	C276.920288,175.609863 274.968781,174.739746 272.988068,174.667114 
	C267.502350,174.465973 262.004395,174.597290 255.517075,174.597137 
z"/>
<path fill="#F7D405" opacity="1.000000" stroke="none" 
	d="
M256.014191,174.597168 
	C262.004395,174.597290 267.502350,174.465973 272.988068,174.667114 
	C274.968781,174.739746 276.920288,175.609863 278.885101,176.116043 
	C278.167358,178.063705 277.767700,180.213593 276.679199,181.925507 
	C270.611267,191.468857 264.368195,200.900757 258.208099,210.385773 
	C257.345764,211.713547 256.610535,213.123886 255.258301,215.460526 
	C262.819580,215.460526 269.406433,215.324921 275.981476,215.543640 
	C277.939240,215.608765 279.863922,216.667816 281.803772,217.271454 
	C281.054443,218.999237 280.645355,221.001984 279.504669,222.413513 
	C262.560516,243.380966 245.519409,264.270111 228.501556,285.178040 
	C228.396500,285.307129 228.323441,285.503174 228.189209,285.561401 
	C226.368851,286.351166 224.540298,287.122009 222.713776,287.897552 
	C222.534210,286.124878 221.781418,284.175232 222.265503,282.607483 
	C226.235733,269.749939 230.446045,256.966644 234.559341,244.153061 
	C235.513870,241.179550 236.375977,238.176361 237.581589,234.192169 
	C230.243118,234.192169 223.535507,234.203445 216.827972,234.189163 
	C209.198318,234.172913 208.551743,233.134216 212.115143,226.633850 
	C220.745712,210.889877 229.492004,195.207703 237.936188,179.364471 
	C239.825134,175.820343 241.943787,174.088776 246.036133,174.530334 
	C249.162445,174.867645 252.354355,174.597229 256.014191,174.597168 
M259.449707,180.012024 
	C255.953964,180.012039 252.441345,180.225754 248.967285,179.951309 
	C245.567871,179.682770 243.646271,180.824066 242.000381,183.947739 
	C235.645966,196.007568 228.947571,207.885925 222.400436,219.844543 
	C220.988663,222.423157 219.672928,225.054367 217.889481,228.473160 
	C225.483765,228.473160 232.253952,228.424149 239.023041,228.488724 
	C244.395966,228.539963 245.213333,229.686188 243.557190,234.891098 
	C240.484070,244.549194 237.314529,254.176575 234.218689,263.827545 
	C233.719727,265.382996 233.394211,266.994110 232.988525,268.579498 
	C233.385025,268.739990 233.781525,268.900482 234.178024,269.060974 
	C246.968719,253.378021 259.759399,237.695053 273.225067,221.184494 
	C265.448456,221.184494 259.125580,221.294327 252.810837,221.115982 
	C250.972931,221.064072 249.158264,220.188934 247.332947,219.691147 
	C247.853104,217.890457 247.994354,215.850876 248.954697,214.327713 
	C255.341370,204.198074 261.911591,194.184265 268.396973,184.116592 
	C269.141693,182.960526 269.731140,181.704422 270.656464,180.012024 
	C266.731873,180.012024 263.576508,180.012024 259.449707,180.012024 
z"/>
<path fill="#3D7E76" opacity="1.000000" stroke="none" 
	d="
M259.935425,180.012024 
	C263.576508,180.012024 266.731873,180.012024 270.656464,180.012024 
	C269.731140,181.704422 269.141693,182.960526 268.396973,184.116592 
	C261.911591,194.184265 255.341370,204.198074 248.954697,214.327713 
	C247.994354,215.850876 247.853104,217.890457 247.332947,219.691147 
	C249.158264,220.188934 250.972931,221.064072 252.810837,221.115982 
	C259.125580,221.294327 265.448456,221.184494 273.225067,221.184494 
	C259.759399,237.695053 246.968719,253.378021 234.178024,269.060974 
	C233.781525,268.900482 233.385025,268.739990 232.988525,268.579498 
	C233.394211,266.994110 233.719727,265.382996 234.218689,263.827545 
	C237.314529,254.176575 240.484070,244.549194 243.557190,234.891098 
	C245.213333,229.686188 244.395966,228.539963 239.023041,228.488724 
	C232.253952,228.424149 225.483765,228.473160 217.889481,228.473160 
	C219.672928,225.054367 220.988663,222.423157 222.400436,219.844543 
	C228.947571,207.885925 235.645966,196.007568 242.000381,183.947739 
	C243.646271,180.824066 245.567871,179.682770 248.967285,179.951309 
	C252.441345,180.225754 255.953964,180.012039 259.935425,180.012024 
z"/>
</svg>