<svg version="1.1" id="Layer_1" xmlns="http://www.w3.org/2000/svg" xmlns:xlink="http://www.w3.org/1999/xlink" x="0px" y="0px"
	 width="100%" viewBox="0 0 500 500" enable-background="new 0 0 500 500" xml:space="preserve">
<path fill="#000000" opacity="1.000000" stroke="none" 
	d="
M330.000000,501.000000 
	C220.000031,501.000000 110.500053,501.000000 1.000059,501.000000 
	C1.000039,334.333405 1.000039,167.666794 1.000020,1.000148 
	C167.666565,1.000099 334.333130,1.000099 500.999756,1.000049 
	C500.999847,167.666519 500.999847,334.333038 500.999939,500.999786 
	C444.166656,501.000000 387.333344,501.000000 330.000000,501.000000 
M399.969147,241.264481 
	C400.643097,235.874725 401.735504,230.498688 401.912994,225.092636 
	C402.456848,208.527802 401.974884,192.024826 398.006927,175.779846 
	C388.513336,136.913040 367.624756,105.717621 335.583771,81.792709 
	C317.184509,68.054016 296.622711,59.282204 274.390991,54.270535 
	C254.467972,49.779324 234.167679,49.468086 214.144043,52.338440 
	C194.013397,55.224125 174.987625,62.258041 157.396133,72.846519 
	C139.071320,83.876389 122.972931,97.376778 110.203094,114.609085 
	C94.561729,135.716385 84.271294,159.078262 79.752022,185.116150 
	C76.259132,205.240570 76.195831,225.343704 80.349197,245.101990 
	C87.737923,280.251434 104.392014,310.394073 131.737610,334.358307 
	C149.879059,350.256500 170.190720,361.850067 193.330032,368.728546 
	C220.567459,376.825195 248.062378,377.374329 275.602478,371.382324 
	C299.420776,366.200043 320.863403,355.789612 340.171692,340.601196 
	C358.569031,326.129333 373.005188,308.636017 383.927551,288.119202 
	C391.632843,273.645447 396.574158,258.160889 399.969147,241.264481 
M150.264709,411.174866 
	C142.188873,414.479523 140.020248,417.637054 140.003708,426.218414 
	C139.989258,433.705750 140.097000,441.194550 139.977219,448.679901 
	C139.925064,451.939575 141.301056,452.995209 144.450058,453.053986 
	C147.997971,453.120209 149.086563,451.614075 149.034683,448.276215 
	C148.913177,440.458374 149.035095,432.636871 149.036911,424.816864 
	C149.037811,420.911530 151.544861,418.775818 154.844940,418.590546 
	C156.700180,418.486359 159.606995,420.118774 160.401596,421.761383 
	C161.913818,424.887543 159.457779,426.764069 156.698486,428.225311 
	C153.746292,429.788757 152.965851,434.094330 155.242905,435.533173 
	C156.462753,436.303955 158.304794,436.157776 159.420898,437.009033 
	C161.068298,438.265625 162.318878,440.042419 163.738434,441.597687 
	C162.119370,443.038116 160.627197,444.676758 158.824799,445.830841 
	C157.991608,446.364349 156.386337,445.601379 155.429962,446.055573 
	C154.166931,446.655365 152.355759,447.826874 152.300217,448.836273 
	C152.218246,450.326477 153.055389,452.646637 154.230545,453.298584 
	C161.221664,457.177185 173.127380,450.549805 172.764114,442.651947 
	C172.570984,438.453186 170.162369,434.356323 168.753815,430.213470 
	C167.819473,429.504395 168.310745,428.462219 168.777420,427.409180 
	C171.798645,420.592041 168.347992,413.066833 161.045975,411.436127 
	C157.867523,410.726318 154.433350,411.161499 150.264709,411.174866 
M248.323990,423.588928 
	C251.430695,432.680481 254.371597,441.836212 257.835052,450.789764 
	C258.316742,452.034943 261.403625,452.903961 263.230103,452.816132 
	C264.985413,452.731750 267.488770,451.608215 268.231750,450.190826 
	C270.420990,446.014343 271.900360,441.465790 274.152832,435.821960 
	C276.239441,441.333344 277.628754,445.720093 279.603516,449.825256 
	C280.283508,451.238861 282.414856,452.772247 283.898804,452.788086 
	C286.085663,452.811432 289.662384,452.107422 290.257507,450.701569 
	C294.053375,441.735321 297.194000,432.491699 300.544922,423.354126 
	C294.193878,420.969452 292.903473,421.498657 290.939484,426.674377 
	C289.234314,431.168060 287.480560,435.643341 285.748260,440.126740 
	C282.805206,435.100250 281.279449,430.190613 279.145111,425.561554 
	C278.435303,424.022186 276.317200,422.697815 274.571930,422.168304 
	C271.686371,421.292816 270.077026,423.078430 269.130829,425.834076 
	C267.475800,430.654083 265.562073,435.385193 263.756744,440.153564 
	C261.043243,435.607941 259.465942,431.427032 257.941986,427.226746 
	C255.880356,421.544495 254.982422,421.109558 248.323990,423.588928 
M404.231476,411.091644 
	C399.424988,410.214050 397.443542,412.162720 397.946106,417.044067 
	C398.155396,419.076904 397.752899,421.172729 397.607422,423.592468 
	C396.142670,423.305969 395.344269,423.183075 394.562653,422.991730 
	C387.377045,421.232910 380.131775,423.305054 377.097870,427.999054 
	C372.870331,434.539673 373.013184,442.581665 377.464386,448.637360 
	C380.687408,453.022186 388.544250,454.745178 395.272522,452.857330 
	C397.005524,452.371063 399.033813,452.666046 400.883301,452.918488 
	C405.714417,453.577850 406.953156,452.690460 406.977875,447.859497 
	C407.032379,437.202759 407.070465,426.544373 406.908173,415.889801 
	C406.884399,414.329376 405.725647,412.786194 404.231476,411.091644 
M97.462402,448.951324 
	C92.607292,438.208954 87.656723,427.508057 82.959457,416.697113 
	C81.671570,413.733002 79.797737,412.946320 76.791122,412.928955 
	C73.739029,412.911346 71.833427,413.855072 70.598854,416.738708 
	C67.135475,424.828247 63.472809,432.832245 59.921329,440.884369 
	C58.293152,444.575836 56.741352,448.301025 55.090626,452.161285 
	C63.722153,453.956451 64.165680,453.714905 67.129150,446.680969 
	C70.138824,439.537354 73.186211,432.409637 76.653877,424.246735 
	C78.062866,427.263611 79.082024,429.303436 79.980011,431.395264 
	C82.664154,437.647797 85.346832,443.901764 87.940468,450.192108 
	C89.773499,454.637756 93.550148,452.598480 96.594566,452.750336 
	C96.946373,452.767944 97.402115,450.701813 97.462402,448.951324 
M199.400314,441.000763 
	C200.400192,441.000122 201.400192,441.009277 202.399933,440.997223 
	C208.241318,440.926697 208.633545,440.477509 207.974777,434.638824 
	C207.246460,428.183685 201.969330,423.099854 194.967514,422.107971 
	C187.480637,421.047394 179.966156,425.069458 177.340515,431.542664 
	C174.641296,438.197357 176.785950,446.608521 182.163391,450.457489 
	C188.526779,455.012146 198.998322,455.249298 204.200363,450.666840 
	C205.018280,449.946350 205.325455,447.614044 204.789261,446.595062 
	C203.525528,444.193512 201.721252,443.413879 198.682632,444.947998 
	C193.260162,447.685608 188.508972,446.007812 186.856934,441.000732 
	C190.843979,441.000732 194.641953,441.000732 199.400314,441.000763 
M415.366333,429.055450 
	C410.769379,437.783325 412.680817,446.708679 420.158447,451.431946 
	C427.125977,455.833038 437.872162,454.405823 442.387665,448.274628 
	C441.138458,446.663513 439.842834,444.992523 438.605469,443.396698 
	C429.471741,447.272034 425.669556,446.744507 423.888763,440.993134 
	C429.359985,440.993134 434.662140,441.047333 439.962585,440.977112 
	C444.741608,440.913757 445.722992,439.551178 444.732483,434.783752 
	C443.288879,427.835419 439.071869,423.460754 432.141510,422.339142 
	C425.730652,421.301544 419.911530,422.815857 415.366333,429.055450 
M321.214630,422.946320 
	C315.863983,423.340576 310.485626,423.547516 305.192657,424.331268 
	C304.399261,424.448761 303.289520,427.411072 303.568298,428.809814 
	C304.270691,432.333588 306.957001,431.449249 309.479553,430.782288 
	C313.648285,429.680023 317.903015,428.651764 321.034332,435.038910 
	C317.132782,435.038910 313.820557,434.303986 311.063354,435.227020 
	C307.701538,436.352478 303.779633,438.229065 302.046356,440.998840 
	C300.748932,443.072083 301.416260,448.316620 303.206238,449.922058 
	C305.849060,452.292450 310.192322,453.294891 313.948181,453.748871 
	C317.757385,454.209290 321.731110,453.079407 325.635681,453.051300 
	C328.870453,453.027985 330.121552,451.773346 330.020111,448.589752 
	C329.882355,444.264496 329.924805,439.929962 330.011566,435.601868 
	C330.131592,429.613922 327.628021,425.386627 321.214630,422.946320 
M368.118896,432.570496 
	C366.780731,424.657990 359.826721,420.401520 351.865173,422.586884 
	C349.462219,423.246521 347.509216,424.362396 344.552124,422.577545 
	C340.211731,419.957764 337.047485,422.447845 337.014832,427.658386 
	C336.971008,434.656189 337.100952,441.656036 336.977570,448.651855 
	C336.920349,451.895630 338.251648,453.061554 341.434875,453.041962 
	C344.488647,453.023163 345.978424,452.149353 346.055847,448.789764 
	C346.162445,444.162628 346.493652,439.496796 347.283783,434.943909 
	C347.860260,431.622131 350.444611,429.700287 353.893799,430.296722 
	C357.152710,430.860260 359.106445,432.930634 359.012512,436.603180 
	C358.901855,440.931519 359.059937,445.266083 359.044342,449.597748 
	C359.031677,453.110809 361.490417,453.025452 363.887482,452.974243 
	C366.164429,452.925598 368.972473,453.415161 368.903015,449.820190 
	C368.797272,444.350281 368.497375,438.884125 368.118896,432.570496 
M105.505386,422.049438 
	C102.387199,421.792419 100.896072,423.091797 100.988899,426.354004 
	C101.121155,431.001831 100.781113,435.673615 101.101097,440.303497 
	C101.854691,451.207123 109.440262,456.194397 119.757416,452.995972 
	C121.463211,452.467163 123.502296,452.527039 125.291931,452.847565 
	C130.351883,453.753845 131.931488,452.769531 131.976746,447.978180 
	C132.044189,440.835358 131.916428,433.690308 132.022293,426.548431 
	C132.067825,423.476379 131.073303,421.996216 127.747536,421.983368 
	C124.383781,421.970367 122.851509,423.129486 122.975433,426.618011 
	C123.122765,430.765198 123.043999,434.924286 122.942604,439.075287 
	C122.844398,443.095917 120.146828,445.331390 116.674103,445.592957 
	C113.421806,445.837952 111.162262,443.636169 110.921249,440.030212 
	C110.612572,435.411926 110.195122,430.798065 110.020195,426.174896 
	C109.924545,423.646881 109.288742,421.931458 105.505386,422.049438 
M223.010742,438.902618 
	C223.525040,433.392548 226.109100,430.150024 229.985397,430.150757 
	C233.792206,430.151489 235.852753,433.121033 235.978592,438.927673 
	C236.050735,442.256866 236.130066,445.593384 235.990814,448.917572 
	C235.844620,452.406982 237.762939,453.036377 240.698318,453.025696 
	C243.542068,453.015320 245.080826,452.129639 245.004150,449.022949 
	C244.897369,444.696075 245.031250,440.363922 244.989105,436.034729 
	C244.882568,425.092194 237.589462,419.868713 226.922058,422.845215 
	C225.297745,423.298401 223.236496,423.060303 221.613388,422.480835 
	C216.552856,420.674103 214.050140,422.234283 214.013535,427.652069 
	C213.968536,434.312866 214.065704,440.975067 213.977448,447.634979 
	C213.935577,450.794495 214.228180,453.078400 218.412140,453.081024 
	C222.423996,453.083527 223.194916,451.148560 223.021988,447.808197 
	C222.884415,445.151062 223.000259,442.480774 223.010742,438.902618 
M314.358063,416.815643 
	C313.553864,414.962219 313.103363,412.752258 311.771362,411.430878 
	C311.238800,410.902557 308.088013,411.891144 307.363617,412.997559 
	C306.654480,414.080597 307.214661,417.496674 307.742615,417.618744 
	C309.673828,418.065308 311.823944,417.565033 314.358063,416.815643 
M319.239746,411.730133 
	C319.163940,413.690674 318.711304,415.754517 319.205841,417.558777 
	C319.392303,418.239044 322.227051,419.030823 323.045227,418.507202 
	C324.318573,417.692139 325.765411,415.689331 325.602386,414.381409 
	C325.219818,411.311615 322.715881,410.706421 319.239746,411.730133 
z"/>
<path fill="#3A7C78" opacity="1.000000" stroke="none" 
	d="
M399.926758,241.700073 
	C396.574158,258.160889 391.632843,273.645447 383.927551,288.119202 
	C373.005188,308.636017 358.569031,326.129333 340.171692,340.601196 
	C320.863403,355.789612 299.420776,366.200043 275.602478,371.382324 
	C248.062378,377.374329 220.567459,376.825195 193.330032,368.728546 
	C170.190720,361.850067 149.879059,350.256500 131.737610,334.358307 
	C104.392014,310.394073 87.737923,280.251434 80.349197,245.101990 
	C76.195831,225.343704 76.259132,205.240570 79.752022,185.116150 
	C84.271294,159.078262 94.561729,135.716385 110.203094,114.609085 
	C122.972931,97.376778 139.071320,83.876389 157.396133,72.846519 
	C174.987625,62.258041 194.013397,55.224125 214.144043,52.338440 
	C234.167679,49.468086 254.467972,49.779324 274.390991,54.270535 
	C296.622711,59.282204 317.184509,68.054016 335.583771,81.792709 
	C367.624756,105.717621 388.513336,136.913040 398.006927,175.779846 
	C401.974884,192.024826 402.456848,208.527802 401.912994,225.092636 
	C401.735504,230.498688 400.643097,235.874725 399.926758,241.700073 
M307.227905,136.338684 
	C307.231537,133.012527 305.196014,132.120163 302.308472,132.139648 
	C297.642975,132.171127 292.977051,132.126587 288.311462,132.147491 
	C282.201447,132.174866 281.701172,132.664993 281.657196,138.628632 
	C281.632477,141.979553 281.652740,145.330811 281.652740,150.111679 
	C268.487457,138.028900 256.483551,127.264992 244.810806,116.153175 
	C241.043961,112.567337 238.572952,112.737930 234.835861,116.197937 
	C214.418732,135.101242 193.779800,153.764908 173.227081,172.521835 
	C164.366074,180.608627 155.452576,188.640396 146.715668,196.859497 
	C142.796448,200.546448 142.537308,206.792908 145.718948,210.411850 
	C149.299805,214.484894 154.440247,214.967545 159.189316,211.701431 
	C160.080917,211.088242 161.032562,210.562347 162.422195,209.710800 
	C162.422195,239.725128 162.422195,269.137756 162.422195,299.146820 
	C157.708282,299.146820 153.216324,298.831177 148.807999,299.300629 
	C147.019867,299.491089 145.413864,301.391632 143.725021,302.514069 
	C145.321594,303.474243 146.869339,305.155365 148.523376,305.267426 
	C154.994034,305.705719 161.498474,305.767242 167.990005,305.756256 
	C222.138474,305.664429 276.286987,305.552185 330.434723,305.286072 
	C332.279755,305.277039 335.550293,303.758148 335.690369,302.635345 
	C336.124481,299.155701 333.016693,299.163757 330.461792,299.150757 
	C326.045258,299.128265 321.628479,299.144501 317.361938,299.144501 
	C317.361938,268.854736 317.361938,239.365402 317.361938,209.564133 
	C324.798553,215.087646 329.891754,215.193954 333.952026,210.218857 
	C337.725708,205.594879 336.545013,200.378815 330.403564,194.727982 
	C323.782440,188.635834 316.981201,182.726547 310.608521,176.385757 
	C308.848541,174.634598 307.480408,171.657455 307.399719,169.194748 
	C307.050690,158.541611 307.245575,147.870667 307.227905,136.338684 
z"/>
<path fill="#293D3B" opacity="1.000000" stroke="none" 
	d="
M150.690018,411.125793 
	C154.433350,411.161499 157.867523,410.726318 161.045975,411.436127 
	C168.347992,413.066833 171.798645,420.592041 168.777420,427.409180 
	C168.310745,428.462219 167.819473,429.504395 168.753815,430.213470 
	C170.162369,434.356323 172.570984,438.453186 172.764114,442.651947 
	C173.127380,450.549805 161.221664,457.177185 154.230545,453.298584 
	C153.055389,452.646637 152.218246,450.326477 152.300217,448.836273 
	C152.355759,447.826874 154.166931,446.655365 155.429962,446.055573 
	C156.386337,445.601379 157.991608,446.364349 158.824799,445.830841 
	C160.627197,444.676758 162.119370,443.038116 163.738434,441.597687 
	C162.318878,440.042419 161.068298,438.265625 159.420898,437.009033 
	C158.304794,436.157776 156.462753,436.303955 155.242905,435.533173 
	C152.965851,434.094330 153.746292,429.788757 156.698486,428.225311 
	C159.457779,426.764069 161.913818,424.887543 160.401596,421.761383 
	C159.606995,420.118774 156.700180,418.486359 154.844940,418.590546 
	C151.544861,418.775818 149.037811,420.911530 149.036911,424.816864 
	C149.035095,432.636871 148.913177,440.458374 149.034683,448.276215 
	C149.086563,451.614075 147.997971,453.120209 144.450058,453.053986 
	C141.301056,452.995209 139.925064,451.939575 139.977219,448.679901 
	C140.097000,441.194550 139.989258,433.705750 140.003708,426.218414 
	C140.020248,417.637054 142.188873,414.479523 150.690018,411.125793 
z"/>
<path fill="#293D3B" opacity="1.000000" stroke="none" 
	d="
M248.492325,423.237915 
	C254.982422,421.109558 255.880356,421.544495 257.941986,427.226746 
	C259.465942,431.427032 261.043243,435.607941 263.756744,440.153564 
	C265.562073,435.385193 267.475800,430.654083 269.130829,425.834076 
	C270.077026,423.078430 271.686371,421.292816 274.571930,422.168304 
	C276.317200,422.697815 278.435303,424.022186 279.145111,425.561554 
	C281.279449,430.190613 282.805206,435.100250 285.748260,440.126740 
	C287.480560,435.643341 289.234314,431.168060 290.939484,426.674377 
	C292.903473,421.498657 294.193878,420.969452 300.544922,423.354126 
	C297.194000,432.491699 294.053375,441.735321 290.257507,450.701569 
	C289.662384,452.107422 286.085663,452.811432 283.898804,452.788086 
	C282.414856,452.772247 280.283508,451.238861 279.603516,449.825256 
	C277.628754,445.720093 276.239441,441.333344 274.152832,435.821960 
	C271.900360,441.465790 270.420990,446.014343 268.231750,450.190826 
	C267.488770,451.608215 264.985413,452.731750 263.230103,452.816132 
	C261.403625,452.903961 258.316742,452.034943 257.835052,450.789764 
	C254.371597,441.836212 251.430695,432.680481 248.492325,423.237915 
z"/>
<path fill="#2A3D3B" opacity="1.000000" stroke="none" 
	d="
M404.661743,411.163330 
	C405.725647,412.786194 406.884399,414.329376 406.908173,415.889801 
	C407.070465,426.544373 407.032379,437.202759 406.977875,447.859497 
	C406.953156,452.690460 405.714417,453.577850 400.883301,452.918488 
	C399.033813,452.666046 397.005524,452.371063 395.272522,452.857330 
	C388.544250,454.745178 380.687408,453.022186 377.464386,448.637360 
	C373.013184,442.581665 372.870331,434.539673 377.097870,427.999054 
	C380.131775,423.305054 387.377045,421.232910 394.562653,422.991730 
	C395.344269,423.183075 396.142670,423.305969 397.607422,423.592468 
	C397.752899,421.172729 398.155396,419.076904 397.946106,417.044067 
	C397.443542,412.162720 399.424988,410.214050 404.661743,411.163330 
M389.786316,430.098877 
	C385.066895,430.830261 383.229950,434.510406 383.641113,438.299408 
	C383.921692,440.885162 386.299713,443.962921 388.619507,445.427460 
	C391.586456,447.300568 394.623444,445.475220 396.713196,442.690796 
	C400.568970,437.553375 397.444061,431.124115 389.786316,430.098877 
z"/>
<path fill="#293D3B" opacity="1.000000" stroke="none" 
	d="
M97.636032,449.276550 
	C97.402115,450.701813 96.946373,452.767944 96.594566,452.750336 
	C93.550148,452.598480 89.773499,454.637756 87.940468,450.192108 
	C85.346832,443.901764 82.664154,437.647797 79.980011,431.395264 
	C79.082024,429.303436 78.062866,427.263611 76.653877,424.246735 
	C73.186211,432.409637 70.138824,439.537354 67.129150,446.680969 
	C64.165680,453.714905 63.722153,453.956451 55.090626,452.161285 
	C56.741352,448.301025 58.293152,444.575836 59.921329,440.884369 
	C63.472809,432.832245 67.135475,424.828247 70.598854,416.738708 
	C71.833427,413.855072 73.739029,412.911346 76.791122,412.928955 
	C79.797737,412.946320 81.671570,413.733002 82.959457,416.697113 
	C87.656723,427.508057 92.607292,438.208954 97.636032,449.276550 
z"/>
<path fill="#293D3B" opacity="1.000000" stroke="none" 
	d="
M198.920120,441.000732 
	C194.641953,441.000732 190.843979,441.000732 186.856934,441.000732 
	C188.508972,446.007812 193.260162,447.685608 198.682632,444.947998 
	C201.721252,443.413879 203.525528,444.193512 204.789261,446.595062 
	C205.325455,447.614044 205.018280,449.946350 204.200363,450.666840 
	C198.998322,455.249298 188.526779,455.012146 182.163391,450.457489 
	C176.785950,446.608521 174.641296,438.197357 177.340515,431.542664 
	C179.966156,425.069458 187.480637,421.047394 194.967514,422.107971 
	C201.969330,423.099854 207.246460,428.183685 207.974777,434.638824 
	C208.633545,440.477509 208.241318,440.926697 202.399933,440.997223 
	C201.400192,441.009277 200.400192,441.000122 198.920120,441.000732 
M193.355804,434.996765 
	C195.050369,434.824432 196.744934,434.652069 198.439484,434.479706 
	C198.600296,433.863708 198.761093,433.247711 198.921906,432.631714 
	C196.764572,431.603119 194.584793,429.728424 192.456268,429.784912 
	C190.346329,429.840942 188.288055,431.843079 186.207123,432.991699 
	C186.405792,433.555389 186.604477,434.119110 186.803162,434.682800 
	C188.705719,434.787689 190.608292,434.892609 193.355804,434.996765 
z"/>
<path fill="#2A3D3B" opacity="1.000000" stroke="none" 
	d="
M415.589294,428.747894 
	C419.911530,422.815857 425.730652,421.301544 432.141510,422.339142 
	C439.071869,423.460754 443.288879,427.835419 444.732483,434.783752 
	C445.722992,439.551178 444.741608,440.913757 439.962585,440.977112 
	C434.662140,441.047333 429.359985,440.993134 423.888763,440.993134 
	C425.669556,446.744507 429.471741,447.272034 438.605469,443.396698 
	C439.842834,444.992523 441.138458,446.663513 442.387665,448.274628 
	C437.872162,454.405823 427.125977,455.833038 420.158447,451.431946 
	C412.680817,446.708679 410.769379,437.783325 415.589294,428.747894 
M425.434784,434.976013 
	C428.729279,434.976013 432.023773,434.976013 436.128143,434.976013 
	C432.194885,429.166321 427.996552,428.050934 424.655914,431.055206 
	C423.426147,432.161102 421.438904,433.688202 425.434784,434.976013 
z"/>
<path fill="#2A3D3B" opacity="1.000000" stroke="none" 
	d="
M321.602173,423.043823 
	C327.628021,425.386627 330.131592,429.613922 330.011566,435.601868 
	C329.924805,439.929962 329.882355,444.264496 330.020111,448.589752 
	C330.121552,451.773346 328.870453,453.027985 325.635681,453.051300 
	C321.731110,453.079407 317.757385,454.209290 313.948181,453.748871 
	C310.192322,453.294891 305.849060,452.292450 303.206238,449.922058 
	C301.416260,448.316620 300.748932,443.072083 302.046356,440.998840 
	C303.779633,438.229065 307.701538,436.352478 311.063354,435.227020 
	C313.820557,434.303986 317.132782,435.038910 321.034332,435.038910 
	C317.903015,428.651764 313.648285,429.680023 309.479553,430.782288 
	C306.957001,431.449249 304.270691,432.333588 303.568298,428.809814 
	C303.289520,427.411072 304.399261,424.448761 305.192657,424.331268 
	C310.485626,423.547516 315.863983,423.340576 321.602173,423.043823 
M317.643494,446.505035 
	C318.761444,445.133636 319.879425,443.762238 320.997375,442.390839 
	C320.762543,441.956238 320.527679,441.521637 320.292847,441.087036 
	C318.207397,441.087036 316.037109,440.734863 314.066040,441.209686 
	C312.730316,441.531433 311.674500,443.015228 310.493500,443.979309 
	C311.648621,444.954742 312.694061,446.139160 314.001038,446.825287 
	C314.755951,447.221588 315.932953,446.813904 317.643494,446.505035 
z"/>
<path fill="#2A3D3B" opacity="1.000000" stroke="none" 
	d="
M368.199432,432.993408 
	C368.497375,438.884125 368.797272,444.350281 368.903015,449.820190 
	C368.972473,453.415161 366.164429,452.925598 363.887482,452.974243 
	C361.490417,453.025452 359.031677,453.110809 359.044342,449.597748 
	C359.059937,445.266083 358.901855,440.931519 359.012512,436.603180 
	C359.106445,432.930634 357.152710,430.860260 353.893799,430.296722 
	C350.444611,429.700287 347.860260,431.622131 347.283783,434.943909 
	C346.493652,439.496796 346.162445,444.162628 346.055847,448.789764 
	C345.978424,452.149353 344.488647,453.023163 341.434875,453.041962 
	C338.251648,453.061554 336.920349,451.895630 336.977570,448.651855 
	C337.100952,441.656036 336.971008,434.656189 337.014832,427.658386 
	C337.047485,422.447845 340.211731,419.957764 344.552124,422.577545 
	C347.509216,424.362396 349.462219,423.246521 351.865173,422.586884 
	C359.826721,420.401520 366.780731,424.657990 368.199432,432.993408 
z"/>
<path fill="#2A3D3B" opacity="1.000000" stroke="none" 
	d="
M105.938957,422.056824 
	C109.288742,421.931458 109.924545,423.646881 110.020195,426.174896 
	C110.195122,430.798065 110.612572,435.411926 110.921249,440.030212 
	C111.162262,443.636169 113.421806,445.837952 116.674103,445.592957 
	C120.146828,445.331390 122.844398,443.095917 122.942604,439.075287 
	C123.043999,434.924286 123.122765,430.765198 122.975433,426.618011 
	C122.851509,423.129486 124.383781,421.970367 127.747536,421.983368 
	C131.073303,421.996216 132.067825,423.476379 132.022293,426.548431 
	C131.916428,433.690308 132.044189,440.835358 131.976746,447.978180 
	C131.931488,452.769531 130.351883,453.753845 125.291931,452.847565 
	C123.502296,452.527039 121.463211,452.467163 119.757416,452.995972 
	C109.440262,456.194397 101.854691,451.207123 101.101097,440.303497 
	C100.781113,435.673615 101.121155,431.001831 100.988899,426.354004 
	C100.896072,423.091797 102.387199,421.792419 105.938957,422.056824 
z"/>
<path fill="#2A3D3B" opacity="1.000000" stroke="none" 
	d="
M223.007172,439.359497 
	C223.000259,442.480774 222.884415,445.151062 223.021988,447.808197 
	C223.194916,451.148560 222.423996,453.083527 218.412140,453.081024 
	C214.228180,453.078400 213.935577,450.794495 213.977448,447.634979 
	C214.065704,440.975067 213.968536,434.312866 214.013535,427.652069 
	C214.050140,422.234283 216.552856,420.674103 221.613388,422.480835 
	C223.236496,423.060303 225.297745,423.298401 226.922058,422.845215 
	C237.589462,419.868713 244.882568,425.092194 244.989105,436.034729 
	C245.031250,440.363922 244.897369,444.696075 245.004150,449.022949 
	C245.080826,452.129639 243.542068,453.015320 240.698318,453.025696 
	C237.762939,453.036377 235.844620,452.406982 235.990814,448.917572 
	C236.130066,445.593384 236.050735,442.256866 235.978592,438.927673 
	C235.852753,433.121033 233.792206,430.151489 229.985397,430.150757 
	C226.109100,430.150024 223.525040,433.392548 223.007172,439.359497 
z"/>
<path fill="#2A3C3B" opacity="1.000000" stroke="none" 
	d="
M314.124847,417.118530 
	C311.823944,417.565033 309.673828,418.065308 307.742615,417.618744 
	C307.214661,417.496674 306.654480,414.080597 307.363617,412.997559 
	C308.088013,411.891144 311.238800,410.902557 311.771362,411.430878 
	C313.103363,412.752258 313.553864,414.962219 314.124847,417.118530 
z"/>
<path fill="#293C3B" opacity="1.000000" stroke="none" 
	d="
M319.578613,411.536072 
	C322.715881,410.706421 325.219818,411.311615 325.602386,414.381409 
	C325.765411,415.689331 324.318573,417.692139 323.045227,418.507202 
	C322.227051,419.030823 319.392303,418.239044 319.205841,417.558777 
	C318.711304,415.754517 319.163940,413.690674 319.578613,411.536072 
z"/>
<path fill="#F8D504" opacity="1.000000" stroke="none" 
	d="
M307.235229,136.772430 
	C307.245575,147.870667 307.050690,158.541611 307.399719,169.194748 
	C307.480408,171.657455 308.848541,174.634598 310.608521,176.385757 
	C316.981201,182.726547 323.782440,188.635834 330.403564,194.727982 
	C336.545013,200.378815 337.725708,205.594879 333.952026,210.218857 
	C329.891754,215.193954 324.798553,215.087646 317.361938,209.564133 
	C317.361938,239.365402 317.361938,268.854736 317.361938,299.144501 
	C321.628479,299.144501 326.045258,299.128265 330.461792,299.150757 
	C333.016693,299.163757 336.124481,299.155701 335.690369,302.635345 
	C335.550293,303.758148 332.279755,305.277039 330.434723,305.286072 
	C276.286987,305.552185 222.138474,305.664429 167.990005,305.756256 
	C161.498474,305.767242 154.994034,305.705719 148.523376,305.267426 
	C146.869339,305.155365 145.321594,303.474243 143.725006,302.514069 
	C145.413864,301.391632 147.019867,299.491089 148.807999,299.300629 
	C153.216324,298.831177 157.708282,299.146820 162.422195,299.146820 
	C162.422195,269.137756 162.422195,239.725128 162.422195,209.710800 
	C161.032562,210.562347 160.080917,211.088242 159.189316,211.701431 
	C154.440247,214.967545 149.299805,214.484894 145.718948,210.411850 
	C142.537308,206.792908 142.796448,200.546448 146.715668,196.859497 
	C155.452576,188.640396 164.366074,180.608627 173.227081,172.521835 
	C193.779800,153.764908 214.418732,135.101242 234.835861,116.197937 
	C238.572952,112.737930 241.043961,112.567337 244.810806,116.153175 
	C256.483551,127.264992 268.487457,138.028900 281.652740,150.111679 
	C281.652740,145.330811 281.632477,141.979553 281.657196,138.628632 
	C281.701172,132.664993 282.201447,132.174866 288.311462,132.147491 
	C292.977051,132.126587 297.642975,132.171127 302.308472,132.139648 
	C305.196014,132.120163 307.231537,133.012527 307.235229,136.772430 
M200.242264,173.727829 
	C190.977554,182.358063 181.790207,191.073944 172.395401,199.560150 
	C169.953674,201.765701 168.965912,203.986053 168.979767,207.279846 
	C169.100891,236.104340 169.046051,264.929535 169.059891,293.754547 
	C169.060654,295.368591 169.206573,296.982605 169.291245,298.726685 
	C216.370132,298.726685 263.100189,298.726685 309.945862,298.726685 
	C310.099609,297.833618 310.303131,297.201691 310.303650,296.569611 
	C310.328552,266.245209 310.383667,235.920593 310.227509,205.597061 
	C310.218018,203.760117 308.923737,201.501923 307.529816,200.169205 
	C298.259460,191.305817 288.794617,182.645950 279.401306,173.910995 
	C266.237091,161.669449 253.080078,149.420151 239.750778,137.016724 
	C226.579117,149.256485 213.669098,161.253128 200.242264,173.727829 
M271.685699,149.815506 
	C261.169495,140.140579 250.653305,130.465637 240.157578,120.809547 
	C239.409454,121.240166 238.935577,121.411583 238.591568,121.725388 
	C209.802841,147.985672 181.023865,174.256668 152.247177,200.530151 
	C151.756729,200.977936 150.955353,201.426315 150.897247,201.941833 
	C150.730469,203.421188 150.397964,205.224564 151.070969,206.326035 
	C151.468231,206.976196 153.811142,206.944031 154.985138,206.478088 
	C156.294128,205.958542 157.291534,204.622498 158.387314,203.601852 
	C183.974915,179.768600 209.619415,155.995712 235.070938,132.017960 
	C238.688950,128.609436 240.958405,128.643799 244.541534,132.024017 
	C270.217316,156.245972 296.070984,180.279358 321.872345,204.368164 
	C322.722076,205.161499 323.510864,206.310364 324.516510,206.573639 
	C325.796600,206.908722 328.086914,206.984573 328.474304,206.318604 
	C329.116241,205.215073 328.888947,203.332901 328.448883,201.965027 
	C328.134399,200.987595 326.889771,200.295883 326.030365,199.509262 
	C308.097809,183.095169 290.160919,166.685745 271.685699,149.815506 
M300.897430,140.805710 
	C300.299225,140.172195 299.726593,139.021683 299.098633,138.990662 
	C295.528015,138.814255 291.944183,138.905167 288.466095,138.905167 
	C286.739899,154.415466 289.775513,160.975662 300.922974,166.181931 
	C300.922974,157.957840 300.922974,149.857895 300.897430,140.805710 
z"/>
<path fill="#000000" opacity="1.000000" stroke="none" 
	d="
M390.181030,430.076782 
	C397.444061,431.124115 400.568970,437.553375 396.713196,442.690796 
	C394.623444,445.475220 391.586456,447.300568 388.619507,445.427460 
	C386.299713,443.962921 383.921692,440.885162 383.641113,438.299408 
	C383.229950,434.510406 385.066895,430.830261 390.181030,430.076782 
z"/>
<path fill="#000000" opacity="1.000000" stroke="none" 
	d="
M192.933334,434.997131 
	C190.608292,434.892609 188.705719,434.787689 186.803162,434.682800 
	C186.604477,434.119110 186.405792,433.555389 186.207123,432.991699 
	C188.288055,431.843079 190.346329,429.840942 192.456268,429.784912 
	C194.584793,429.728424 196.764572,431.603119 198.921906,432.631714 
	C198.761093,433.247711 198.600296,433.863708 198.439484,434.479706 
	C196.744934,434.652069 195.050369,434.824432 192.933334,434.997131 
z"/>
<path fill="#000000" opacity="1.000000" stroke="none" 
	d="
M425.066650,434.953125 
	C421.438904,433.688202 423.426147,432.161102 424.655914,431.055206 
	C427.996552,428.050934 432.194885,429.166321 436.128143,434.976013 
	C432.023773,434.976013 428.729279,434.976013 425.066650,434.953125 
z"/>
<path fill="#000000" opacity="1.000000" stroke="none" 
	d="
M317.281738,446.636536 
	C315.932953,446.813904 314.755951,447.221588 314.001038,446.825287 
	C312.694061,446.139160 311.648621,444.954742 310.493500,443.979309 
	C311.674500,443.015228 312.730316,441.531433 314.066040,441.209686 
	C316.037109,440.734863 318.207397,441.087036 320.292847,441.087036 
	C320.527679,441.521637 320.762543,441.956238 320.997375,442.390839 
	C319.879425,443.762238 318.761444,445.133636 317.281738,446.636536 
z"/>
<path fill="#3B7C78" opacity="1.000000" stroke="none" 
	d="
M200.500671,173.488800 
	C213.669098,161.253128 226.579117,149.256485 239.750778,137.016724 
	C253.080078,149.420151 266.237091,161.669449 279.401306,173.910995 
	C288.794617,182.645950 298.259460,191.305817 307.529816,200.169205 
	C308.923737,201.501923 310.218018,203.760117 310.227509,205.597061 
	C310.383667,235.920593 310.328552,266.245209 310.303650,296.569611 
	C310.303131,297.201691 310.099609,297.833618 309.945862,298.726685 
	C263.100189,298.726685 216.370132,298.726685 169.291245,298.726685 
	C169.206573,296.982605 169.060654,295.368591 169.059891,293.754547 
	C169.046051,264.929535 169.100891,236.104340 168.979767,207.279846 
	C168.965912,203.986053 169.953674,201.765701 172.395401,199.560150 
	C181.790207,191.073944 190.977554,182.358063 200.500671,173.488800 
M204.321091,205.681274 
	C204.321136,224.009628 204.301468,242.338028 204.332382,260.666321 
	C204.342590,266.723053 204.829651,267.175049 210.945251,267.180023 
	C230.275528,267.195770 249.606598,267.093719 268.935547,267.255188 
	C273.379303,267.292297 275.186188,265.958252 275.140472,261.264282 
	C274.950562,241.767136 274.924347,222.265457 275.156494,202.769241 
	C275.215027,197.852585 273.413879,196.366837 268.743561,196.405777 
	C250.086807,196.561295 231.427979,196.465668 212.769913,196.470169 
	C204.400696,196.472198 204.358200,196.521500 204.321091,205.681274 
z"/>
<path fill="#417F74" opacity="1.000000" stroke="none" 
	d="
M271.955322,150.045441 
	C290.160919,166.685745 308.097809,183.095169 326.030365,199.509262 
	C326.889771,200.295883 328.134399,200.987595 328.448883,201.965027 
	C328.888947,203.332901 329.116241,205.215073 328.474304,206.318604 
	C328.086914,206.984573 325.796600,206.908722 324.516510,206.573639 
	C323.510864,206.310364 322.722076,205.161499 321.872345,204.368164 
	C296.070984,180.279358 270.217316,156.245972 244.541534,132.024017 
	C240.958405,128.643799 238.688950,128.609436 235.070938,132.017960 
	C209.619415,155.995712 183.974915,179.768600 158.387314,203.601852 
	C157.291534,204.622498 156.294128,205.958542 154.985138,206.478088 
	C153.811142,206.944031 151.468231,206.976196 151.070969,206.326035 
	C150.397964,205.224564 150.730469,203.421188 150.897247,201.941833 
	C150.955353,201.426315 151.756729,200.977936 152.247177,200.530151 
	C181.023865,174.256668 209.802841,147.985672 238.591568,121.725388 
	C238.935577,121.411583 239.409454,121.240166 240.157578,120.809547 
	C250.653305,130.465637 261.169495,140.140579 271.955322,150.045441 
z"/>
<path fill="#3D7E76" opacity="1.000000" stroke="none" 
	d="
M300.910217,141.281830 
	C300.922974,149.857895 300.922974,157.957840 300.922974,166.181931 
	C289.775513,160.975662 286.739899,154.415466 288.466095,138.905167 
	C291.944183,138.905167 295.528015,138.814255 299.098633,138.990662 
	C299.726593,139.021683 300.299225,140.172195 300.910217,141.281830 
z"/>
<path fill="#F9D504" opacity="1.000000" stroke="none" 
	d="
M204.321136,205.210327 
	C204.358200,196.521500 204.400696,196.472198 212.769913,196.470169 
	C231.427979,196.465668 250.086807,196.561295 268.743561,196.405777 
	C273.413879,196.366837 275.215027,197.852585 275.156494,202.769241 
	C274.924347,222.265457 274.950562,241.767136 275.140472,261.264282 
	C275.186188,265.958252 273.379303,267.292297 268.935547,267.255188 
	C249.606598,267.093719 230.275528,267.195770 210.945251,267.180023 
	C204.829651,267.175049 204.342590,266.723053 204.332382,260.666321 
	C204.301468,242.338028 204.321136,224.009628 204.321136,205.210327 
M234.069336,235.012360 
	C226.478958,235.012360 218.888596,235.012360 211.200470,235.012360 
	C211.200470,243.843094 211.200470,252.065964 211.200470,260.454773 
	C219.686035,260.454773 227.868164,260.454773 236.463791,260.454773 
	C236.463791,252.307526 236.494568,244.525467 236.400085,236.744919 
	C236.393188,236.177582 235.478271,235.621277 234.069336,235.012360 
M226.435822,228.828705 
	C229.564453,228.828705 232.693085,228.828705 236.188446,228.828705 
	C236.188446,220.039566 236.188446,211.680817 236.188446,203.363037 
	C227.626938,203.363037 219.406570,203.363037 211.255402,203.363037 
	C211.255402,211.947769 211.255402,220.166992 211.255402,228.828705 
	C216.218338,228.828705 220.838593,228.828705 226.435822,228.828705 
M268.741852,209.651978 
	C268.741852,207.548721 268.741852,205.445480 268.741852,203.343811 
	C259.780579,203.343811 251.542892,203.343811 243.326538,203.343811 
	C243.326538,211.922546 243.326538,220.157578 243.326538,228.422211 
	C251.882263,228.422211 260.091125,228.422211 268.741852,228.422211 
	C268.741852,222.222885 268.741852,216.421097 268.741852,209.651978 
M242.985718,247.501709 
	C242.985718,251.778870 242.985718,256.056030 242.985718,260.462891 
	C251.802795,260.462891 260.013000,260.462891 268.407654,260.462891 
	C268.407654,251.868942 268.407654,243.640198 268.407654,235.313202 
	C259.837036,235.313202 251.603790,235.313202 242.985718,235.313202 
	C242.985718,239.249664 242.985718,242.882019 242.985718,247.501709 
z"/>
<path fill="#3F7E75" opacity="1.000000" stroke="none" 
	d="
M234.527435,235.036102 
	C235.478271,235.621277 236.393188,236.177582 236.400085,236.744919 
	C236.494568,244.525467 236.463791,252.307526 236.463791,260.454773 
	C227.868164,260.454773 219.686035,260.454773 211.200470,260.454773 
	C211.200470,252.065964 211.200470,243.843094 211.200470,235.012360 
	C218.888596,235.012360 226.478958,235.012360 234.527435,235.036102 
z"/>
<path fill="#3F7E75" opacity="1.000000" stroke="none" 
	d="
M225.947327,228.828705 
	C220.838593,228.828705 216.218338,228.828705 211.255402,228.828705 
	C211.255402,220.166992 211.255402,211.947769 211.255402,203.363037 
	C219.406570,203.363037 227.626938,203.363037 236.188446,203.363037 
	C236.188446,211.680817 236.188446,220.039566 236.188446,228.828705 
	C232.693085,228.828705 229.564453,228.828705 225.947327,228.828705 
z"/>
<path fill="#3E7E75" opacity="1.000000" stroke="none" 
	d="
M268.741852,210.135635 
	C268.741852,216.421097 268.741852,222.222885 268.741852,228.422211 
	C260.091125,228.422211 251.882263,228.422211 243.326538,228.422211 
	C243.326538,220.157578 243.326538,211.922546 243.326538,203.343811 
	C251.542892,203.343811 259.780579,203.343811 268.741852,203.343811 
	C268.741852,205.445480 268.741852,207.548721 268.741852,210.135635 
z"/>
<path fill="#3E7E75" opacity="1.000000" stroke="none" 
	d="
M242.985718,247.008041 
	C242.985718,242.882019 242.985718,239.249664 242.985718,235.313202 
	C251.603790,235.313202 259.837036,235.313202 268.407654,235.313202 
	C268.407654,243.640198 268.407654,251.868942 268.407654,260.462891 
	C260.013000,260.462891 251.802795,260.462891 242.985718,260.462891 
	C242.985718,256.056030 242.985718,251.778870 242.985718,247.008041 
z"/>
</svg>