<svg version="1.1" id="Layer_1" xmlns="http://www.w3.org/2000/svg" xmlns:xlink="http://www.w3.org/1999/xlink" x="0px" y="0px"
	 width="100%" viewBox="0 0 500 500" enable-background="new 0 0 500 500" xml:space="preserve">
<path fill="#000000" opacity="1.000000" stroke="none" 
	d="
M286.000000,501.000000 
	C190.666687,501.000000 95.833382,501.000000 1.000051,501.000000 
	C1.000034,334.333405 1.000034,167.666794 1.000017,1.000140 
	C167.666565,1.000094 334.333130,1.000094 500.999756,1.000047 
	C500.999847,167.666519 500.999847,334.333038 500.999939,500.999786 
	C429.500000,501.000000 358.000000,501.000000 286.000000,501.000000 
M399.867859,245.196335 
	C400.911255,236.355423 402.859436,227.506088 402.777252,218.675659 
	C402.665497,206.664062 401.830292,194.528091 399.844879,182.690414 
	C394.545502,151.093918 379.936859,123.791267 357.946686,100.830101 
	C348.911499,91.395966 338.082489,83.448296 327.254150,76.011597 
	C305.351898,60.969551 280.588959,53.022270 254.244705,51.182369 
	C227.441910,49.310448 201.308914,52.532585 176.276688,63.703747 
	C147.943008,76.348251 124.643364,94.760506 107.003197,120.199905 
	C90.727753,143.671188 81.433662,169.627411 78.781197,198.222488 
	C77.263588,214.583115 78.064568,230.672211 81.425949,246.528992 
	C87.154526,273.552582 98.925270,297.717957 117.115128,318.818695 
	C130.259384,334.066437 145.550262,346.411865 163.109314,355.985352 
	C193.187531,372.384430 225.342422,377.583710 259.317719,374.160339 
	C277.471558,372.331146 294.531006,367.267883 310.796600,359.512665 
	C333.482727,348.696320 352.644043,333.332733 368.170410,313.414429 
	C383.839111,293.313568 394.446777,270.960236 399.867859,245.196335 
M339.800598,450.964508 
	C340.199615,445.681549 340.091614,440.283295 341.253601,435.173828 
	C341.702026,433.201904 345.166992,430.490356 347.014038,430.666718 
	C348.828033,430.839935 351.323730,434.057678 351.756989,436.282715 
	C352.538422,440.295929 352.153168,444.571594 351.976593,448.725769 
	C351.815033,452.528564 353.921753,453.039520 357.004944,453.041962 
	C360.097260,453.044434 362.189911,452.510956 362.024078,448.716888 
	C361.849792,444.729645 361.961884,440.725830 362.059753,436.731964 
	C362.148529,433.108734 364.023071,430.075195 367.586456,430.443115 
	C369.578735,430.648773 372.336273,433.511047 372.870483,435.646210 
	C373.938110,439.913574 373.875214,444.501190 373.964905,448.962860 
	C374.026154,452.008362 375.324738,453.038666 378.227631,453.024994 
	C381.091583,453.011505 383.121735,452.559631 383.010468,449.002747 
	C382.869995,444.511810 383.135101,440.006470 382.946838,435.519012 
	C382.466125,424.061981 372.593445,418.544983 362.480072,424.121887 
	C360.216034,425.370331 358.746460,425.159973 356.245789,424.217468 
	C352.638184,422.857788 348.369507,423.241486 344.380554,422.909241 
	C342.637268,422.764038 340.715637,423.118927 339.173584,422.501251 
	C334.211578,420.513733 331.054382,422.342834 331.014008,427.625946 
	C330.965668,433.952545 330.982758,440.279816 331.005554,446.606689 
	C331.030090,453.419800 332.896484,454.547241 339.800598,450.964508 
M414.774261,444.709534 
	C413.226654,444.779816 411.494202,444.421692 410.163940,444.995697 
	C404.886444,447.272919 400.454498,446.028259 398.865906,440.994019 
	C404.326630,440.994019 409.614288,441.043854 414.900574,440.979309 
	C419.710693,440.920563 420.752350,439.579865 419.748566,434.878937 
	C418.336243,428.264679 414.489807,424.038483 407.780792,422.407562 
	C400.484619,420.633881 391.853180,424.621033 389.108795,431.234161 
	C385.931427,438.890656 388.700592,447.657776 395.565338,451.675629 
	C402.537445,455.756378 412.813049,454.291840 417.349548,448.421112 
	C416.625916,447.410675 415.866486,446.350250 414.774261,444.709534 
M187.983154,449.176361 
	C186.816528,445.266663 185.260712,442.705414 180.373428,445.128479 
	C175.565018,447.512421 171.529510,445.891937 169.168152,440.981934 
	C175.204773,440.981934 180.991150,440.957703 186.777145,440.993408 
	C189.221664,441.008484 190.962799,440.536011 190.955261,437.470245 
	C190.938828,430.790497 186.064606,424.545837 179.103043,422.588654 
	C172.423752,420.710876 163.989532,423.889801 160.831329,429.475494 
	C157.116959,436.044830 158.354980,445.548889 163.350388,449.602386 
	C170.520325,455.420410 182.564545,455.284485 187.983154,449.176361 
M258.035858,449.381836 
	C261.251190,453.591888 265.791565,454.132812 270.587250,453.838684 
	C274.087952,453.623993 277.587006,452.988220 281.074890,453.067108 
	C284.735046,453.149841 286.238373,451.866821 286.037781,448.151733 
	C285.822388,444.163055 286.238953,440.131989 285.899994,436.160339 
	C285.471344,431.137543 284.672180,426.020782 279.165283,423.734833 
	C273.197510,421.257538 267.208008,421.528381 261.216370,423.914551 
	C257.638672,425.339355 257.581207,427.751923 259.787292,430.008301 
	C260.715485,430.957672 263.227203,431.012573 264.774048,430.585785 
	C270.348328,429.047729 273.791687,429.963501 275.679504,434.602692 
	C272.894196,434.746796 270.332275,434.906982 267.768036,435.007050 
	C258.606171,435.364502 255.320267,439.805878 258.035858,449.381836 
M106.403625,422.753784 
	C103.160477,422.824188 99.916512,422.971069 96.674500,422.935974 
	C94.769379,422.915375 92.732277,422.980530 90.990280,422.352844 
	C86.448013,420.716217 83.231468,422.462982 83.162025,427.134399 
	C83.055817,434.278961 83.235069,441.428253 83.095879,448.571716 
	C83.025726,452.171967 84.747375,453.100555 88.001472,453.053589 
	C91.072075,453.009247 93.197792,452.536560 93.025215,448.740051 
	C92.851852,444.926331 93.096527,441.095337 93.005356,437.275574 
	C92.907524,433.176514 95.295052,430.917236 98.842827,430.412354 
	C102.545998,429.885376 104.775543,432.261566 105.134598,435.924591 
	C105.585785,440.527557 105.498642,445.199432 106.224983,449.748810 
	C106.424065,450.995697 108.708267,452.768616 110.025360,452.759857 
	C111.657898,452.748962 114.614288,451.227722 114.685196,450.199432 
	C115.083611,444.421753 115.207237,438.550781 114.588943,432.801514 
	C114.116669,428.409973 111.726669,424.674530 106.403625,422.753784 
M121.999336,435.511780 
	C122.003922,439.842041 122.107254,444.175171 121.979805,448.501556 
	C121.888535,451.599396 122.946823,453.031158 126.271858,453.052887 
	C129.635757,453.074829 131.049088,451.989807 131.067642,448.462982 
	C131.090210,444.170837 131.488861,439.852142 132.106400,435.600372 
	C132.626144,432.022003 135.005630,429.788208 138.710800,430.278748 
	C142.254288,430.747894 144.165695,433.050018 144.023895,436.909515 
	C143.877258,440.900848 144.131958,444.906891 143.985611,448.898254 
	C143.858002,452.378387 145.733398,453.094391 148.677277,453.020508 
	C151.477112,452.950226 154.144989,453.109070 154.003754,449.043762 
	C153.859268,444.885040 154.208832,440.698792 153.896637,436.558228 
	C152.980667,424.410217 146.206573,419.875519 134.553329,423.195831 
	C133.266251,423.562561 131.545654,423.154785 130.245453,422.595917 
	C125.269913,420.457428 122.095139,422.274445 122.009697,427.524261 
	C121.971756,429.855377 122.000725,432.187531 121.999336,435.511780 
M315.787140,452.656342 
	C323.960083,453.512573 323.990540,453.490417 323.998230,445.476868 
	C324.004150,439.310730 323.915985,433.143158 324.025513,426.979004 
	C324.081177,423.846161 323.402649,422.009094 319.657440,421.954315 
	C315.706635,421.896545 314.880127,423.737762 314.953705,427.154419 
	C315.043121,431.305603 315.069641,435.507446 314.525635,439.608063 
	C314.052246,443.176178 311.845123,445.974640 307.847565,445.660980 
	C303.670898,445.333191 301.945099,442.472931 302.001282,438.379456 
	C302.058441,434.214233 301.912323,430.045746 301.996338,425.881531 
	C302.061005,422.675537 300.269562,421.998322 297.536865,422.013123 
	C294.876007,422.027527 292.951752,422.512268 293.006561,425.793671 
	C293.098389,431.291443 292.792511,436.805573 293.100311,442.287750 
	C293.564545,450.555481 300.983429,455.607422 308.997650,453.491211 
	C311.008301,452.960297 313.087738,452.689941 315.787140,452.656342 
M197.098801,422.631714 
	C196.742401,423.697723 196.089996,424.760162 196.077087,425.830322 
	C195.984772,433.486176 196.112335,441.145203 195.977951,448.799805 
	C195.918671,452.176941 197.521530,453.022400 200.565903,453.042603 
	C203.740005,453.063629 205.046921,451.914154 205.039886,448.667816 
	C205.030548,444.369690 205.145203,440.032379 205.728180,435.783478 
	C206.248734,431.989746 208.954590,429.815613 212.783020,430.296722 
	C216.473053,430.760468 217.934967,433.589172 217.969101,437.148682 
	C218.004242,440.810455 218.107117,444.476532 217.976410,448.133453 
	C217.862167,451.329498 218.713272,453.081085 222.403763,453.065735 
	C225.893875,453.051239 227.169876,451.733368 227.031921,448.332336 
	C226.863373,444.177856 227.015167,440.011017 226.996338,435.849701 
	C226.946304,424.798218 220.075607,419.762299 209.533371,422.974640 
	C208.178650,423.387390 206.690735,423.751434 205.314224,423.619476 
	C202.813461,423.379761 200.350067,422.750336 197.098801,422.631714 
M249.047775,431.202515 
	C250.649216,430.385925 253.062592,429.937866 253.643463,428.658020 
	C254.345810,427.110565 254.182419,423.883362 253.147461,423.155701 
	C251.815231,422.219025 249.184738,422.761353 247.227463,423.188660 
	C245.409882,423.585510 244.345123,424.626160 242.128815,422.816132 
	C238.483521,419.839172 234.221497,422.473755 234.152939,427.270599 
	C234.053116,434.254028 234.247620,441.242920 234.075699,448.223541 
	C233.983307,451.974915 235.584930,453.068451 239.151932,453.087189 
	C242.861267,453.106659 244.256134,451.716217 244.039001,448.086609 
	C243.850677,444.938599 243.470261,441.638519 244.188797,438.649414 
	C244.809448,436.067657 246.856857,433.828857 249.047775,431.202515 
M66.001297,426.512939 
	C66.003624,433.670593 66.067825,440.828979 65.979187,447.985504 
	C65.941414,451.035400 66.427475,453.025848 70.252602,453.071655 
	C74.097511,453.117645 75.093979,451.496216 75.043877,447.983002 
	C74.901443,437.997589 74.945946,428.008514 75.022430,418.021667 
	C75.045761,414.975494 74.578049,412.977478 70.749893,412.933868 
	C66.903244,412.890015 65.744888,414.517822 65.976326,418.030731 
	C66.140099,420.516663 66.003700,423.022308 66.001297,426.512939 
M280.188354,417.947815 
	C282.310181,414.827881 282.099823,412.192413 278.102905,411.257935 
	C276.873474,410.970490 274.836243,411.990448 273.954742,413.059662 
	C273.280975,413.876892 273.350769,416.589478 273.954071,416.930664 
	C275.591370,417.856506 277.688263,417.969635 280.188354,417.947815 
M269.852966,413.747223 
	C268.023376,412.948578 266.227203,411.750061 264.343964,411.592499 
	C263.771576,411.544647 262.300659,414.446655 262.466278,415.853363 
	C262.596893,416.962494 265.217926,418.909180 265.673218,418.646576 
	C267.330048,417.691101 268.541687,415.963776 269.852966,413.747223 
z"/>
<path fill="#3B7C78" opacity="1.000000" stroke="none" 
	d="
M399.689850,245.588531 
	C394.446777,270.960236 383.839111,293.313568 368.170410,313.414429 
	C352.644043,333.332733 333.482727,348.696320 310.796600,359.512665 
	C294.531006,367.267883 277.471558,372.331146 259.317719,374.160339 
	C225.342422,377.583710 193.187531,372.384430 163.109314,355.985352 
	C145.550262,346.411865 130.259384,334.066437 117.115128,318.818695 
	C98.925270,297.717957 87.154526,273.552582 81.425949,246.528992 
	C78.064568,230.672211 77.263588,214.583115 78.781197,198.222488 
	C81.433662,169.627411 90.727753,143.671188 107.003197,120.199905 
	C124.643364,94.760506 147.943008,76.348251 176.276688,63.703747 
	C201.308914,52.532585 227.441910,49.310448 254.244705,51.182369 
	C280.588959,53.022270 305.351898,60.969551 327.254150,76.011597 
	C338.082489,83.448296 348.911499,91.395966 357.946686,100.830101 
	C379.936859,123.791267 394.545502,151.093918 399.844879,182.690414 
	C401.830292,194.528091 402.665497,206.664062 402.777252,218.675659 
	C402.859436,227.506088 400.911255,236.355423 399.689850,245.588531 
M197.782425,239.462906 
	C196.805649,242.912720 195.094971,246.339645 194.986557,249.816544 
	C194.628586,261.296997 195.002197,272.798584 194.770782,284.285522 
	C194.682419,288.671173 194.881561,292.294556 200.586594,292.465973 
	C200.586594,295.490631 200.732132,298.157837 200.550491,300.802521 
	C200.312302,304.270752 201.743408,305.614166 205.195923,305.438721 
	C209.016663,305.244568 212.858047,305.291412 216.684174,305.419922 
	C219.847824,305.526184 221.289169,304.331360 221.076675,301.034912 
	C220.888260,298.111938 221.037170,295.167236 221.037170,292.177246 
	C253.782715,292.177246 285.851196,292.177246 318.090820,292.177246 
	C318.225494,293.442535 318.389130,294.406342 318.421783,295.374542 
	C318.759796,305.400513 318.753967,305.417969 328.676239,305.396057 
	C341.044983,305.368774 338.811523,306.253235 339.013123,294.984680 
	C339.027802,294.164581 339.083832,293.345184 339.142334,292.042419 
	C344.169464,292.616699 344.184448,289.458405 344.141724,285.800507 
	C343.999756,273.644379 343.846344,261.479187 344.171265,249.330170 
	C344.377930,241.603516 340.984070,236.806213 334.221405,233.682144 
	C332.893585,233.068726 331.447357,231.349915 331.209991,229.945816 
	C328.459747,213.675949 317.513947,203.960846 301.037964,203.849518 
	C280.220856,203.708847 259.401184,203.717957 238.584717,203.900101 
	C234.668961,203.934357 230.502396,204.420731 226.900070,205.838257 
	C214.875412,210.570068 208.885056,219.970825 207.856384,231.786743 
	C204.299133,234.408096 201.269409,236.640701 197.782425,239.462906 
M288.500000,117.991127 
	C267.677734,117.991364 246.855042,118.059814 226.033615,117.927383 
	C222.394669,117.904243 220.983978,119.020149 221.002380,122.755638 
	C221.105835,143.743851 221.081314,164.733078 220.989807,185.721466 
	C220.976196,188.844437 221.912537,190.279999 225.246231,190.273102 
	C254.894012,190.211792 284.542023,190.230927 314.189880,190.276566 
	C317.014984,190.280914 318.522522,189.409729 318.508698,186.287018 
	C318.414337,164.966171 318.380157,143.644928 318.399536,122.323875 
	C318.402405,119.188034 317.297211,117.863319 313.985718,117.934692 
	C305.827209,118.110527 297.662323,117.991562 288.500000,117.991127 
M146.866241,286.140564 
	C143.948654,286.083069 142.634598,287.475433 142.720322,290.424835 
	C142.821884,293.919525 142.921356,297.431519 142.688782,300.913818 
	C142.447159,304.531677 144.084381,305.484985 147.410233,305.438446 
	C157.068588,305.303345 166.730087,305.394562 176.390350,305.395325 
	C188.019699,305.396210 187.848785,305.391815 188.096405,293.815002 
	C188.197189,289.102356 187.820084,285.423767 181.472519,285.819916 
	C181.472519,282.957214 181.312439,280.476501 181.507584,278.024017 
	C181.857620,273.624725 180.362747,271.379181 175.578751,271.938293 
	C173.190720,272.217407 170.743103,271.986877 168.394562,271.986877 
	C168.394562,240.371826 168.394562,209.487366 168.394562,178.179382 
	C175.373291,178.179382 182.007004,178.119415 188.638885,178.203888 
	C192.118301,178.248215 193.615982,176.998215 192.680405,173.363861 
	C189.115631,159.516174 185.736374,145.618591 181.939651,131.835571 
	C181.501831,130.246185 178.932404,128.242783 177.267914,128.162628 
	C169.291702,127.778526 161.285477,128.074158 153.292816,127.946449 
	C150.369965,127.899734 149.205246,129.251572 148.548904,131.893311 
	C145.181381,145.447357 141.700729,158.973358 138.244431,172.505264 
	C137.226761,176.489670 138.320389,178.431244 142.846283,178.250320 
	C149.280151,177.993088 155.731964,178.184952 162.448181,178.184952 
	C162.448181,209.760162 162.448181,240.644989 162.448181,271.986725 
	C160.024994,271.986725 157.887924,271.981079 155.750870,271.987762 
	C149.296906,272.007935 149.265717,272.167511 149.061096,278.825378 
	C148.986465,281.254242 148.202271,283.661285 146.866241,286.140564 
z"/>
<path fill="#2A3D3B" opacity="1.000000" stroke="none" 
	d="
M339.656006,451.380341 
	C332.896484,454.547241 331.030090,453.419800 331.005554,446.606689 
	C330.982758,440.279816 330.965668,433.952545 331.014008,427.625946 
	C331.054382,422.342834 334.211578,420.513733 339.173584,422.501251 
	C340.715637,423.118927 342.637268,422.764038 344.380554,422.909241 
	C348.369507,423.241486 352.638184,422.857788 356.245789,424.217468 
	C358.746460,425.159973 360.216034,425.370331 362.480072,424.121887 
	C372.593445,418.544983 382.466125,424.061981 382.946838,435.519012 
	C383.135101,440.006470 382.869995,444.511810 383.010468,449.002747 
	C383.121735,452.559631 381.091583,453.011505 378.227631,453.024994 
	C375.324738,453.038666 374.026154,452.008362 373.964905,448.962860 
	C373.875214,444.501190 373.938110,439.913574 372.870483,435.646210 
	C372.336273,433.511047 369.578735,430.648773 367.586456,430.443115 
	C364.023071,430.075195 362.148529,433.108734 362.059753,436.731964 
	C361.961884,440.725830 361.849792,444.729645 362.024078,448.716888 
	C362.189911,452.510956 360.097260,453.044434 357.004944,453.041962 
	C353.921753,453.039520 351.815033,452.528564 351.976593,448.725769 
	C352.153168,444.571594 352.538422,440.295929 351.756989,436.282715 
	C351.323730,434.057678 348.828033,430.839935 347.014038,430.666718 
	C345.166992,430.490356 341.702026,433.201904 341.253601,435.173828 
	C340.091614,440.283295 340.199615,445.681549 339.656006,451.380341 
z"/>
<path fill="#2A3D3B" opacity="1.000000" stroke="none" 
	d="
M414.940643,444.999664 
	C415.866486,446.350250 416.625916,447.410675 417.349548,448.421112 
	C412.813049,454.291840 402.537445,455.756378 395.565338,451.675629 
	C388.700592,447.657776 385.931427,438.890656 389.108795,431.234161 
	C391.853180,424.621033 400.484619,420.633881 407.780792,422.407562 
	C414.489807,424.038483 418.336243,428.264679 419.748566,434.878937 
	C420.752350,439.579865 419.710693,440.920563 414.900574,440.979309 
	C409.614288,441.043854 404.326630,440.994019 398.865906,440.994019 
	C400.454498,446.028259 404.886444,447.272919 410.163940,444.995697 
	C411.494202,444.421692 413.226654,444.779816 414.940643,444.999664 
M408.538055,434.913544 
	C409.078430,434.302429 409.618774,433.691345 410.159119,433.080231 
	C407.960358,431.852142 405.807037,429.749298 403.550537,429.632019 
	C401.094910,429.504395 397.958374,430.632172 398.230286,434.967163 
	C401.521393,434.967163 404.638489,434.967163 408.538055,434.913544 
z"/>
<path fill="#2A3D3B" opacity="1.000000" stroke="none" 
	d="
M187.814667,449.455200 
	C182.564545,455.284485 170.520325,455.420410 163.350388,449.602386 
	C158.354980,445.548889 157.116959,436.044830 160.831329,429.475494 
	C163.989532,423.889801 172.423752,420.710876 179.103043,422.588654 
	C186.064606,424.545837 190.938828,430.790497 190.955261,437.470245 
	C190.962799,440.536011 189.221664,441.008484 186.777145,440.993408 
	C180.991150,440.957703 175.204773,440.981934 169.168152,440.981934 
	C171.529510,445.891937 175.565018,447.512421 180.373428,445.128479 
	C185.260712,442.705414 186.816528,445.266663 187.814667,449.455200 
M173.697174,434.998047 
	C176.079300,434.998047 178.461426,434.998047 180.843567,434.998047 
	C181.068863,434.350220 181.294159,433.702362 181.519470,433.054535 
	C179.508652,431.841370 177.476746,429.627625 175.492371,429.669434 
	C173.037231,429.721191 170.621552,431.644775 168.188812,432.759644 
	C168.362045,433.335144 168.535294,433.910645 168.708527,434.486145 
	C170.091431,434.655945 171.474319,434.825745 173.697174,434.998047 
z"/>
<path fill="#2A3D3B" opacity="1.000000" stroke="none" 
	d="
M257.822388,449.075378 
	C255.320267,439.805878 258.606171,435.364502 267.768036,435.007050 
	C270.332275,434.906982 272.894196,434.746796 275.679504,434.602692 
	C273.791687,429.963501 270.348328,429.047729 264.774048,430.585785 
	C263.227203,431.012573 260.715485,430.957672 259.787292,430.008301 
	C257.581207,427.751923 257.638672,425.339355 261.216370,423.914551 
	C267.208008,421.528381 273.197510,421.257538 279.165283,423.734833 
	C284.672180,426.020782 285.471344,431.137543 285.899994,436.160339 
	C286.238953,440.131989 285.822388,444.163055 286.037781,448.151733 
	C286.238373,451.866821 284.735046,453.149841 281.074890,453.067108 
	C277.587006,452.988220 274.087952,453.623993 270.587250,453.838684 
	C265.791565,454.132812 261.251190,453.591888 257.822388,449.075378 
M268.192200,441.255951 
	C267.691498,442.729065 267.190796,444.202209 266.690094,445.675293 
	C268.829742,445.895874 271.056488,446.556458 273.073547,446.157349 
	C274.133484,445.947662 274.826447,443.883453 275.685089,442.656677 
	C274.116180,442.109894 272.565155,441.499817 270.969208,441.048889 
	C270.367889,440.879028 269.662445,441.077759 268.192200,441.255951 
z"/>
<path fill="#293C3A" opacity="1.000000" stroke="none" 
	d="
M106.783417,422.867645 
	C111.726669,424.674530 114.116669,428.409973 114.588943,432.801514 
	C115.207237,438.550781 115.083611,444.421753 114.685196,450.199432 
	C114.614288,451.227722 111.657898,452.748962 110.025360,452.759857 
	C108.708267,452.768616 106.424065,450.995697 106.224983,449.748810 
	C105.498642,445.199432 105.585785,440.527557 105.134598,435.924591 
	C104.775543,432.261566 102.545998,429.885376 98.842827,430.412354 
	C95.295052,430.917236 92.907524,433.176514 93.005356,437.275574 
	C93.096527,441.095337 92.851852,444.926331 93.025215,448.740051 
	C93.197792,452.536560 91.072075,453.009247 88.001472,453.053589 
	C84.747375,453.100555 83.025726,452.171967 83.095879,448.571716 
	C83.235069,441.428253 83.055817,434.278961 83.162025,427.134399 
	C83.231468,422.462982 86.448013,420.716217 90.990280,422.352844 
	C92.732277,422.980530 94.769379,422.915375 96.674500,422.935974 
	C99.916512,422.971069 103.160477,422.824188 106.783417,422.867645 
z"/>
<path fill="#2A3D3B" opacity="1.000000" stroke="none" 
	d="
M121.999329,435.015503 
	C122.000725,432.187531 121.971756,429.855377 122.009697,427.524261 
	C122.095139,422.274445 125.269913,420.457428 130.245453,422.595917 
	C131.545654,423.154785 133.266251,423.562561 134.553329,423.195831 
	C146.206573,419.875519 152.980667,424.410217 153.896637,436.558228 
	C154.208832,440.698792 153.859268,444.885040 154.003754,449.043762 
	C154.144989,453.109070 151.477112,452.950226 148.677277,453.020508 
	C145.733398,453.094391 143.858002,452.378387 143.985611,448.898254 
	C144.131958,444.906891 143.877258,440.900848 144.023895,436.909515 
	C144.165695,433.050018 142.254288,430.747894 138.710800,430.278748 
	C135.005630,429.788208 132.626144,432.022003 132.106400,435.600372 
	C131.488861,439.852142 131.090210,444.170837 131.067642,448.462982 
	C131.049088,451.989807 129.635757,453.074829 126.271858,453.052887 
	C122.946823,453.031158 121.888535,451.599396 121.979805,448.501556 
	C122.107254,444.175171 122.003922,439.842041 121.999329,435.015503 
z"/>
<path fill="#2A3D3B" opacity="1.000000" stroke="none" 
	d="
M315.461365,452.478088 
	C313.087738,452.689941 311.008301,452.960297 308.997650,453.491211 
	C300.983429,455.607422 293.564545,450.555481 293.100311,442.287750 
	C292.792511,436.805573 293.098389,431.291443 293.006561,425.793671 
	C292.951752,422.512268 294.876007,422.027527 297.536865,422.013123 
	C300.269562,421.998322 302.061005,422.675537 301.996338,425.881531 
	C301.912323,430.045746 302.058441,434.214233 302.001282,438.379456 
	C301.945099,442.472931 303.670898,445.333191 307.847565,445.660980 
	C311.845123,445.974640 314.052246,443.176178 314.525635,439.608063 
	C315.069641,435.507446 315.043121,431.305603 314.953705,427.154419 
	C314.880127,423.737762 315.706635,421.896545 319.657440,421.954315 
	C323.402649,422.009094 324.081177,423.846161 324.025513,426.979004 
	C323.915985,433.143158 324.004150,439.310730 323.998230,445.476868 
	C323.990540,453.490417 323.960083,453.512573 315.461365,452.478088 
z"/>
<path fill="#2A3D3B" opacity="1.000000" stroke="none" 
	d="
M197.484940,422.457642 
	C200.350067,422.750336 202.813461,423.379761 205.314224,423.619476 
	C206.690735,423.751434 208.178650,423.387390 209.533371,422.974640 
	C220.075607,419.762299 226.946304,424.798218 226.996338,435.849701 
	C227.015167,440.011017 226.863373,444.177856 227.031921,448.332336 
	C227.169876,451.733368 225.893875,453.051239 222.403763,453.065735 
	C218.713272,453.081085 217.862167,451.329498 217.976410,448.133453 
	C218.107117,444.476532 218.004242,440.810455 217.969101,437.148682 
	C217.934967,433.589172 216.473053,430.760468 212.783020,430.296722 
	C208.954590,429.815613 206.248734,431.989746 205.728180,435.783478 
	C205.145203,440.032379 205.030548,444.369690 205.039886,448.667816 
	C205.046921,451.914154 203.740005,453.063629 200.565903,453.042603 
	C197.521530,453.022400 195.918671,452.176941 195.977951,448.799805 
	C196.112335,441.145203 195.984772,433.486176 196.077087,425.830322 
	C196.089996,424.760162 196.742401,423.697723 197.484940,422.457642 
z"/>
<path fill="#283C3A" opacity="1.000000" stroke="none" 
	d="
M248.660645,431.320496 
	C246.856857,433.828857 244.809448,436.067657 244.188797,438.649414 
	C243.470261,441.638519 243.850677,444.938599 244.039001,448.086609 
	C244.256134,451.716217 242.861267,453.106659 239.151932,453.087189 
	C235.584930,453.068451 233.983307,451.974915 234.075699,448.223541 
	C234.247620,441.242920 234.053116,434.254028 234.152939,427.270599 
	C234.221497,422.473755 238.483521,419.839172 242.128815,422.816132 
	C244.345123,424.626160 245.409882,423.585510 247.227463,423.188660 
	C249.184738,422.761353 251.815231,422.219025 253.147461,423.155701 
	C254.182419,423.883362 254.345810,427.110565 253.643463,428.658020 
	C253.062592,429.937866 250.649216,430.385925 248.660645,431.320496 
z"/>
<path fill="#2A3D3B" opacity="1.000000" stroke="none" 
	d="
M66.001297,426.016052 
	C66.003700,423.022308 66.140099,420.516663 65.976326,418.030731 
	C65.744888,414.517822 66.903244,412.890015 70.749893,412.933868 
	C74.578049,412.977478 75.045761,414.975494 75.022430,418.021667 
	C74.945946,428.008514 74.901443,437.997589 75.043877,447.983002 
	C75.093979,451.496216 74.097511,453.117645 70.252602,453.071655 
	C66.427475,453.025848 65.941414,451.035400 65.979187,447.985504 
	C66.067825,440.828979 66.003624,433.670593 66.001297,426.016052 
z"/>
<path fill="#293C3A" opacity="1.000000" stroke="none" 
	d="
M279.895630,418.176392 
	C277.688263,417.969635 275.591370,417.856506 273.954071,416.930664 
	C273.350769,416.589478 273.280975,413.876892 273.954742,413.059662 
	C274.836243,411.990448 276.873474,410.970490 278.102905,411.257935 
	C282.099823,412.192413 282.310181,414.827881 279.895630,418.176392 
z"/>
<path fill="#283C3A" opacity="1.000000" stroke="none" 
	d="
M269.887085,414.137329 
	C268.541687,415.963776 267.330048,417.691101 265.673218,418.646576 
	C265.217926,418.909180 262.596893,416.962494 262.466278,415.853363 
	C262.300659,414.446655 263.771576,411.544647 264.343964,411.592499 
	C266.227203,411.750061 268.023376,412.948578 269.887085,414.137329 
z"/>
<path fill="#F8D504" opacity="1.000000" stroke="none" 
	d="
M198.011047,239.168106 
	C201.269409,236.640701 204.299133,234.408096 207.856384,231.786743 
	C208.885056,219.970825 214.875412,210.570068 226.900070,205.838257 
	C230.502396,204.420731 234.668961,203.934357 238.584717,203.900101 
	C259.401184,203.717957 280.220856,203.708847 301.037964,203.849518 
	C317.513947,203.960846 328.459747,213.675949 331.209991,229.945816 
	C331.447357,231.349915 332.893585,233.068726 334.221405,233.682144 
	C340.984070,236.806213 344.377930,241.603516 344.171265,249.330170 
	C343.846344,261.479187 343.999756,273.644379 344.141724,285.800507 
	C344.184448,289.458405 344.169464,292.616699 339.142334,292.042419 
	C339.083832,293.345184 339.027802,294.164581 339.013123,294.984680 
	C338.811523,306.253235 341.044983,305.368774 328.676239,305.396057 
	C318.753967,305.417969 318.759796,305.400513 318.421783,295.374542 
	C318.389130,294.406342 318.225494,293.442535 318.090820,292.177246 
	C285.851196,292.177246 253.782715,292.177246 221.037170,292.177246 
	C221.037170,295.167236 220.888260,298.111938 221.076675,301.034912 
	C221.289169,304.331360 219.847824,305.526184 216.684174,305.419922 
	C212.858047,305.291412 209.016663,305.244568 205.195923,305.438721 
	C201.743408,305.614166 200.312302,304.270752 200.550491,300.802521 
	C200.732132,298.157837 200.586594,295.490631 200.586594,292.465973 
	C194.881561,292.294556 194.682419,288.671173 194.770782,284.285522 
	C195.002197,272.798584 194.628586,261.296997 194.986557,249.816544 
	C195.094971,246.339645 196.805649,242.912720 198.011047,239.168106 
M312.724609,247.335220 
	C313.383087,239.060684 318.899628,234.976761 325.875336,232.447693 
	C324.601685,218.989777 315.376007,209.219894 303.286438,209.089691 
	C280.969269,208.849335 258.646515,208.888199 236.328400,209.079590 
	C225.686691,209.170853 215.944778,217.762817 213.969452,227.946426 
	C213.401962,230.872116 213.662766,232.675919 216.969589,234.039886 
	C223.788025,236.852341 226.986496,242.430496 227.000092,249.806900 
	C227.004272,252.075607 227.000732,254.344330 227.000732,256.748138 
	C255.706055,256.748138 283.789368,256.748138 312.597961,256.748138 
	C312.597961,253.744415 312.597961,250.967087 312.724609,247.335220 
M263.500092,262.183380 
	C251.409424,262.183380 239.318756,262.183380 227.213486,262.183380 
	C227.213486,270.525513 227.213486,278.110138 227.213486,285.865784 
	C255.749344,285.865784 283.972443,285.865784 312.349426,285.865784 
	C312.349426,277.885406 312.349426,270.196991 312.349426,262.183380 
	C296.110687,262.183380 280.305389,262.183380 263.500092,262.183380 
M221.101440,250.743073 
	C220.916382,242.931671 217.705566,238.787048 211.318253,238.114624 
	C206.196564,237.575455 200.653305,241.391739 200.454590,246.920547 
	C199.991425,259.807831 200.306839,272.723053 200.306839,285.749084 
	C207.444901,285.749084 214.163742,285.749084 221.102676,285.749084 
	C221.102676,274.207581 221.102676,262.948364 221.101440,250.743073 
M339.267181,279.434998 
	C339.260651,269.467896 339.358124,259.499237 339.211487,249.534195 
	C339.111298,242.726166 334.987946,238.174103 329.252747,238.071014 
	C322.913300,237.957047 318.347839,242.523285 318.176178,249.606125 
	C317.974976,257.907532 318.085632,266.216553 318.067291,274.522278 
	C318.059021,278.276245 318.065857,282.030182 318.065857,285.689636 
	C325.501831,285.689636 332.220947,285.689636 339.267029,285.689636 
	C339.267029,283.701294 339.267029,282.058197 339.267181,279.434998 
M212.288162,300.160156 
	C218.710175,299.624695 214.595856,295.175232 215.690582,292.229492 
	C212.246063,292.229492 209.344574,292.229492 206.245331,292.229492 
	C206.245331,294.889130 206.245331,297.285461 206.245331,300.163025 
	C208.125992,300.163025 209.751831,300.163025 212.288162,300.160156 
M333.646362,294.703735 
	C331.648804,289.139862 327.437714,293.254028 324.233521,292.003357 
	C324.233521,294.965790 324.233521,297.356323 324.233521,299.812866 
	C327.429504,299.812866 330.306793,299.812866 333.415527,299.812866 
	C333.508759,298.178406 333.582672,296.882629 333.646362,294.703735 
z"/>
<path fill="#FCD602" opacity="1.000000" stroke="none" 
	d="
M289.000000,117.991127 
	C297.662323,117.991562 305.827209,118.110527 313.985718,117.934692 
	C317.297211,117.863319 318.402405,119.188034 318.399536,122.323875 
	C318.380157,143.644928 318.414337,164.966171 318.508698,186.287018 
	C318.522522,189.409729 317.014984,190.280914 314.189880,190.276566 
	C284.542023,190.230927 254.894012,190.211792 225.246231,190.273102 
	C221.912537,190.279999 220.976196,188.844437 220.989807,185.721466 
	C221.081314,164.733078 221.105835,143.743851 221.002380,122.755638 
	C220.983978,119.020149 222.394669,117.904243 226.033615,117.927383 
	C246.855042,118.059814 267.677734,117.991364 289.000000,117.991127 
M226.455536,142.501022 
	C226.455536,154.923782 226.455536,167.346558 226.455536,179.769318 
	C228.806824,178.577301 230.146973,177.149887 231.318024,175.595139 
	C237.627213,167.218689 243.869186,158.791565 250.187393,150.421967 
	C253.090912,146.575745 254.615540,146.669067 257.100464,150.823471 
	C260.070160,155.788345 262.941711,160.811920 266.304596,166.579865 
	C270.984436,161.709549 275.175903,157.259995 279.463715,152.905258 
	C286.230347,146.033035 286.157227,146.133362 291.936279,154.048309 
	C298.455536,162.977051 305.179626,171.756226 312.685669,181.761475 
	C312.685669,161.268188 312.685669,142.436325 312.685669,123.414001 
	C283.940491,123.414001 255.536591,123.414001 226.455597,123.414001 
	C226.455597,129.599945 226.455597,135.551025 226.455536,142.501022 
M260.875977,185.001526 
	C276.536743,185.001526 292.197479,185.001526 308.526794,185.001526 
	C300.433655,174.278992 293.048676,164.494690 286.696655,156.078934 
	C276.723358,165.837524 266.856598,175.491898 257.137878,185.001404 
	C257.712982,185.001404 258.850983,185.001404 260.875977,185.001526 
M246.715134,164.213058 
	C241.602005,170.968353 236.488892,177.723663 230.980820,185.000748 
	C235.981812,185.000748 240.125076,185.116043 244.256027,184.940842 
	C245.789337,184.875824 247.660995,184.556076 248.747803,183.620224 
	C253.489517,179.537033 257.999390,175.184631 262.543579,170.976151 
	C259.203552,165.274399 256.464447,160.598526 253.451035,155.454346 
	C251.130280,158.442505 249.120209,161.030640 246.715134,164.213058 
z"/>
<path fill="#F9D504" opacity="1.000000" stroke="none" 
	d="
M147.304016,286.109436 
	C148.202271,283.661285 148.986465,281.254242 149.061096,278.825378 
	C149.265717,272.167511 149.296906,272.007935 155.750870,271.987762 
	C157.887924,271.981079 160.024994,271.986725 162.448181,271.986725 
	C162.448181,240.644989 162.448181,209.760162 162.448181,178.184952 
	C155.731964,178.184952 149.280151,177.993088 142.846283,178.250320 
	C138.320389,178.431244 137.226761,176.489670 138.244431,172.505264 
	C141.700729,158.973358 145.181381,145.447357 148.548904,131.893311 
	C149.205246,129.251572 150.369965,127.899734 153.292816,127.946449 
	C161.285477,128.074158 169.291702,127.778526 177.267914,128.162628 
	C178.932404,128.242783 181.501831,130.246185 181.939651,131.835571 
	C185.736374,145.618591 189.115631,159.516174 192.680405,173.363861 
	C193.615982,176.998215 192.118301,178.248215 188.638885,178.203888 
	C182.007004,178.119415 175.373291,178.179382 168.394562,178.179382 
	C168.394562,209.487366 168.394562,240.371826 168.394562,271.986877 
	C170.743103,271.986877 173.190720,272.217407 175.578751,271.938293 
	C180.362747,271.379181 181.857620,273.624725 181.507584,278.024017 
	C181.312439,280.476501 181.472519,282.957214 181.472519,285.819916 
	C187.820084,285.423767 188.197189,289.102356 188.096405,293.815002 
	C187.848785,305.391815 188.019699,305.396210 176.390350,305.395325 
	C166.730087,305.394562 157.068588,305.303345 147.410233,305.438446 
	C144.084381,305.484985 142.447159,304.531677 142.688782,300.913818 
	C142.921356,297.431519 142.821884,293.919525 142.720322,290.424835 
	C142.634598,287.475433 143.948654,286.083069 147.304016,286.109436 
M148.281174,154.920029 
	C146.843170,160.801224 145.405167,166.682434 143.949371,172.636414 
	C158.509033,172.636414 172.514847,172.636414 186.821930,172.636414 
	C183.738113,160.329239 180.839661,148.403015 177.648071,136.555756 
	C177.312943,135.311737 175.293015,133.749786 173.978729,133.675232 
	C168.342438,133.355499 162.664368,133.326767 157.032684,133.683548 
	C155.616669,133.773239 153.530716,135.436310 153.099274,136.801788 
	C151.301422,142.492065 150.017380,148.344696 148.281174,154.920029 
M148.038345,297.403198 
	C148.701859,298.306183 149.353424,299.985657 150.030670,299.996033 
	C160.765778,300.161133 171.504166,300.112122 182.352417,300.112122 
	C182.352417,297.057831 182.352417,294.668732 182.352417,292.240356 
	C170.790451,292.240356 159.583954,292.240356 148.033524,292.240356 
	C148.033524,293.861664 148.033524,295.163757 148.038345,297.403198 
M155.629517,277.837860 
	C155.269058,280.434143 154.908600,283.030396 154.493958,286.016998 
	C158.859268,286.016998 162.169968,286.016968 165.480667,286.016968 
	C168.909546,286.016968 172.338409,286.016998 175.730194,286.016998 
	C175.730194,282.889160 175.730194,280.466125 175.730194,277.619476 
	C169.153931,277.619476 162.873840,277.619476 155.629517,277.837860 
z"/>
<path fill="#000000" opacity="1.000000" stroke="none" 
	d="
M408.146851,434.940369 
	C404.638489,434.967163 401.521393,434.967163 398.230286,434.967163 
	C397.958374,430.632172 401.094910,429.504395 403.550537,429.632019 
	C405.807037,429.749298 407.960358,431.852142 410.159119,433.080231 
	C409.618774,433.691345 409.078430,434.302429 408.146851,434.940369 
z"/>
<path fill="#000000" opacity="1.000000" stroke="none" 
	d="
M173.277191,434.996796 
	C171.474319,434.825745 170.091431,434.655945 168.708527,434.486145 
	C168.535294,433.910645 168.362045,433.335144 168.188812,432.759644 
	C170.621552,431.644775 173.037231,429.721191 175.492371,429.669434 
	C177.476746,429.627625 179.508652,431.841370 181.519470,433.054535 
	C181.294159,433.702362 181.068863,434.350220 180.843567,434.998047 
	C178.461426,434.998047 176.079300,434.998047 173.277191,434.996796 
z"/>
<path fill="#000000" opacity="1.000000" stroke="none" 
	d="
M268.598328,441.182190 
	C269.662445,441.077759 270.367889,440.879028 270.969208,441.048889 
	C272.565155,441.499817 274.116180,442.109894 275.685120,442.656677 
	C274.826447,443.883453 274.133484,445.947662 273.073547,446.157349 
	C271.056488,446.556458 268.829742,445.895874 266.690094,445.675293 
	C267.190796,444.202209 267.691498,442.729065 268.598328,441.182190 
z"/>
<path fill="#3B7C78" opacity="1.000000" stroke="none" 
	d="
M312.661285,247.762482 
	C312.597961,250.967087 312.597961,253.744415 312.597961,256.748138 
	C283.789368,256.748138 255.706055,256.748138 227.000732,256.748138 
	C227.000732,254.344330 227.004272,252.075607 227.000092,249.806900 
	C226.986496,242.430496 223.788025,236.852341 216.969589,234.039886 
	C213.662766,232.675919 213.401962,230.872116 213.969452,227.946426 
	C215.944778,217.762817 225.686691,209.170853 236.328400,209.079590 
	C258.646515,208.888199 280.969269,208.849335 303.286438,209.089691 
	C315.376007,209.219894 324.601685,218.989777 325.875336,232.447693 
	C318.899628,234.976761 313.383087,239.060684 312.661285,247.762482 
z"/>
<path fill="#3D7D76" opacity="1.000000" stroke="none" 
	d="
M264.000122,262.183380 
	C280.305389,262.183380 296.110687,262.183380 312.349426,262.183380 
	C312.349426,270.196991 312.349426,277.885406 312.349426,285.865784 
	C283.972443,285.865784 255.749344,285.865784 227.213486,285.865784 
	C227.213486,278.110138 227.213486,270.525513 227.213486,262.183380 
	C239.318756,262.183380 251.409424,262.183380 264.000122,262.183380 
z"/>
<path fill="#3C7D77" opacity="1.000000" stroke="none" 
	d="
M221.102051,251.216110 
	C221.102676,262.948364 221.102676,274.207581 221.102676,285.749084 
	C214.163742,285.749084 207.444901,285.749084 200.306839,285.749084 
	C200.306839,272.723053 199.991425,259.807831 200.454590,246.920547 
	C200.653305,241.391739 206.196564,237.575455 211.318253,238.114624 
	C217.705566,238.787048 220.916382,242.931671 221.102051,251.216110 
z"/>
<path fill="#3C7D77" opacity="1.000000" stroke="none" 
	d="
M339.267090,279.925049 
	C339.267029,282.058197 339.267029,283.701294 339.267029,285.689636 
	C332.220947,285.689636 325.501831,285.689636 318.065857,285.689636 
	C318.065857,282.030182 318.059021,278.276245 318.067291,274.522278 
	C318.085632,266.216553 317.974976,257.907532 318.176178,249.606125 
	C318.347839,242.523285 322.913300,237.957047 329.252747,238.071014 
	C334.987946,238.174103 339.111298,242.726166 339.211487,249.534195 
	C339.358124,259.499237 339.260651,269.467896 339.267090,279.925049 
z"/>
<path fill="#417F74" opacity="1.000000" stroke="none" 
	d="
M211.832916,300.161591 
	C209.751831,300.163025 208.125992,300.163025 206.245331,300.163025 
	C206.245331,297.285461 206.245331,294.889130 206.245331,292.229492 
	C209.344574,292.229492 212.246063,292.229492 215.690582,292.229492 
	C214.595856,295.175232 218.710175,299.624695 211.832916,300.161591 
z"/>
<path fill="#428073" opacity="1.000000" stroke="none" 
	d="
M333.651489,295.145325 
	C333.582672,296.882629 333.508759,298.178406 333.415527,299.812866 
	C330.306793,299.812866 327.429504,299.812866 324.233521,299.812866 
	C324.233521,297.356323 324.233521,294.965790 324.233521,292.003357 
	C327.437714,293.254028 331.648804,289.139862 333.651489,295.145325 
z"/>
<path fill="#3F7E75" opacity="1.000000" stroke="none" 
	d="
M226.455566,142.001556 
	C226.455597,135.551025 226.455597,129.599945 226.455597,123.414001 
	C255.536591,123.414001 283.940491,123.414001 312.685669,123.414001 
	C312.685669,142.436325 312.685669,161.268188 312.685669,181.761475 
	C305.179626,171.756226 298.455536,162.977051 291.936279,154.048309 
	C286.157227,146.133362 286.230347,146.033035 279.463715,152.905258 
	C275.175903,157.259995 270.984436,161.709549 266.304596,166.579865 
	C262.941711,160.811920 260.070160,155.788345 257.100464,150.823471 
	C254.615540,146.669067 253.090912,146.575745 250.187393,150.421967 
	C243.869186,158.791565 237.627213,167.218689 231.318024,175.595139 
	C230.146973,177.149887 228.806824,178.577301 226.455536,179.769318 
	C226.455536,167.346558 226.455536,154.923782 226.455566,142.001556 
M274.956848,146.571167 
	C279.330231,141.971359 280.328308,137.638168 278.040588,133.182938 
	C275.872284,128.960251 271.468292,126.670929 266.932251,127.402992 
	C262.582520,128.104996 259.586884,130.658325 258.331604,134.724854 
	C256.950592,139.198578 258.093689,143.326492 261.847290,146.343399 
	C265.781860,149.505753 270.034241,149.441330 274.956848,146.571167 
z"/>
<path fill="#3E7E76" opacity="1.000000" stroke="none" 
	d="
M260.432495,185.001465 
	C258.850983,185.001404 257.712982,185.001404 257.137878,185.001404 
	C266.856598,175.491898 276.723358,165.837524 286.696655,156.078934 
	C293.048676,164.494690 300.433655,174.278992 308.526794,185.001526 
	C292.197479,185.001526 276.536743,185.001526 260.432495,185.001465 
z"/>
<path fill="#3E7E76" opacity="1.000000" stroke="none" 
	d="
M246.912628,163.915924 
	C249.120209,161.030640 251.130280,158.442505 253.451035,155.454346 
	C256.464447,160.598526 259.203552,165.274399 262.543579,170.976151 
	C257.999390,175.184631 253.489517,179.537033 248.747803,183.620224 
	C247.660995,184.556076 245.789337,184.875824 244.256027,184.940842 
	C240.125076,185.116043 235.981812,185.000748 230.980820,185.000748 
	C236.488892,177.723663 241.602005,170.968353 246.912628,163.915924 
z"/>
<path fill="#3C7D77" opacity="1.000000" stroke="none" 
	d="
M148.413040,154.528900 
	C150.017380,148.344696 151.301422,142.492065 153.099274,136.801788 
	C153.530716,135.436310 155.616669,133.773239 157.032684,133.683548 
	C162.664368,133.326767 168.342438,133.355499 173.978729,133.675232 
	C175.293015,133.749786 177.312943,135.311737 177.648071,136.555756 
	C180.839661,148.403015 183.738113,160.329239 186.821930,172.636414 
	C172.514847,172.636414 158.509033,172.636414 143.949371,172.636414 
	C145.405167,166.682434 146.843170,160.801224 148.413040,154.528900 
z"/>
<path fill="#3C7D77" opacity="1.000000" stroke="none" 
	d="
M148.035934,296.934509 
	C148.033524,295.163757 148.033524,293.861664 148.033524,292.240356 
	C159.583954,292.240356 170.790451,292.240356 182.352417,292.240356 
	C182.352417,294.668732 182.352417,297.057831 182.352417,300.112122 
	C171.504166,300.112122 160.765778,300.161133 150.030670,299.996033 
	C149.353424,299.985657 148.701859,298.306183 148.035934,296.934509 
z"/>
<path fill="#3A7C78" opacity="1.000000" stroke="none" 
	d="
M156.111633,277.728668 
	C162.873840,277.619476 169.153931,277.619476 175.730194,277.619476 
	C175.730194,280.466125 175.730194,282.889160 175.730194,286.016998 
	C172.338409,286.016998 168.909546,286.016968 165.480667,286.016968 
	C162.169968,286.016968 158.859268,286.016998 154.493958,286.016998 
	C154.908600,283.030396 155.269058,280.434143 156.111633,277.728668 
z"/>
<path fill="#F5D306" opacity="1.000000" stroke="none" 
	d="
M274.650635,146.796753 
	C270.034241,149.441330 265.781860,149.505753 261.847290,146.343399 
	C258.093689,143.326492 256.950592,139.198578 258.331604,134.724854 
	C259.586884,130.658325 262.582520,128.104996 266.932251,127.402992 
	C271.468292,126.670929 275.872284,128.960251 278.040588,133.182938 
	C280.328308,137.638168 279.330231,141.971359 274.650635,146.796753 
M265.581757,133.817886 
	C264.994934,135.968170 263.719025,138.241379 264.072632,140.223907 
	C264.294556,141.468109 267.052338,143.185501 268.512421,143.043701 
	C270.248383,142.875092 272.504059,141.293121 273.315613,139.701904 
	C275.349365,135.714310 271.707367,132.591721 265.581757,133.817886 
z"/>
<path fill="#428073" opacity="1.000000" stroke="none" 
	d="
M265.907379,133.597321 
	C271.707367,132.591721 275.349365,135.714310 273.315613,139.701904 
	C272.504059,141.293121 270.248383,142.875092 268.512421,143.043701 
	C267.052338,143.185501 264.294556,141.468109 264.072632,140.223907 
	C263.719025,138.241379 264.994934,135.968170 265.907379,133.597321 
z"/>
</svg>