<svg version="1.1" id="Layer_1" xmlns="http://www.w3.org/2000/svg" xmlns:xlink="http://www.w3.org/1999/xlink" x="0px" y="0px"
	 width="100%" viewBox="0 0 500 500" enable-background="new 0 0 500 500" xml:space="preserve">
<path fill="#000000" opacity="1.000000" stroke="none" 
	d="
M294.000000,501.000000 
	C196.000031,501.000000 98.500046,501.000000 1.000052,501.000000 
	C1.000035,334.333405 1.000035,167.666794 1.000017,1.000142 
	C167.666565,1.000095 334.333130,1.000095 500.999756,1.000047 
	C500.999847,167.666519 500.999847,334.333038 500.999939,500.999786 
	C432.166656,501.000000 363.333344,501.000000 294.000000,501.000000 
M97.887100,269.596222 
	C111.245560,299.596313 132.080063,323.280731 159.706863,340.688721 
	C192.152802,361.133331 227.731049,368.486420 265.840027,364.075806 
	C287.033722,361.622925 306.948700,355.346649 325.441650,344.807617 
	C356.775024,326.950806 380.051239,301.669067 394.753906,268.619659 
	C408.031067,238.774689 410.888306,207.701721 406.093628,175.634476 
	C401.256378,143.281982 386.565277,115.656700 364.964813,91.714691 
	C352.429779,77.820793 337.287781,66.764404 320.509796,58.305489 
	C303.354370,49.656265 285.360962,43.673672 266.033844,41.904934 
	C245.799561,40.053177 225.675476,40.071922 205.937347,45.226814 
	C169.964142,54.621719 140.008804,73.907242 117.506546,103.393913 
	C90.862892,138.307419 79.970047,178.017105 84.857445,221.990112 
	C86.679436,238.382935 91.185555,253.861313 97.887100,269.596222 
M242.732590,431.367523 
	C243.316376,429.928650 243.900162,428.489807 244.981552,425.824493 
	C246.938004,431.087402 248.582474,435.027924 249.850159,439.086121 
	C250.737457,441.926636 252.296417,443.089813 255.270691,443.048615 
	C258.255737,443.007294 260.714905,442.897980 261.898773,439.368469 
	C264.434326,431.809082 267.312958,424.365326 270.007568,416.858582 
	C271.422119,412.917938 270.371277,411.389740 266.244751,412.234070 
	C264.600555,412.570526 262.744659,414.442719 261.992584,416.078827 
	C259.880615,420.673187 258.292755,425.508484 255.998581,431.568481 
	C253.770157,425.683624 251.887375,421.154266 250.358017,416.508575 
	C249.423355,413.669373 248.229309,411.921112 244.840332,411.973022 
	C241.642792,412.022034 240.616394,413.777588 239.722641,416.361786 
	C238.092850,421.074188 236.193222,425.693268 233.870621,431.747223 
	C231.811859,425.764465 230.363708,421.361786 228.781647,417.007782 
	C226.800735,411.556091 224.462448,410.716583 218.521362,413.552612 
	C221.520462,421.736938 224.666840,429.927979 227.491516,438.228546 
	C228.600128,441.486328 230.077225,443.155182 233.822189,443.101654 
	C237.547684,443.048309 239.234207,441.392242 240.138214,438.091309 
	C240.705719,436.019165 241.644394,434.048645 242.732590,431.367523 
M363.793549,412.189453 
	C351.427917,411.544067 345.502716,417.572723 346.014252,430.278992 
	C346.387329,439.545685 355.925507,446.139435 364.822815,443.523895 
	C367.165314,442.835297 369.788544,443.102417 372.282684,442.928680 
	C375.178467,442.726929 379.029480,444.303955 378.997040,438.958771 
	C378.928436,427.649231 378.929169,416.338715 379.006165,405.029297 
	C379.026978,401.972870 377.638641,400.972168 374.752777,400.978516 
	C371.874451,400.984894 369.832428,401.483856 369.996613,405.019226 
	C370.131775,407.929962 370.024200,410.852020 370.024200,414.540558 
	C367.554840,413.570160 366.055786,412.981079 363.793549,412.189453 
M408.399323,413.828400 
	C397.940857,410.021576 388.593079,413.217773 385.265167,421.738434 
	C382.844299,427.936676 384.455536,435.344757 389.147980,439.590729 
	C394.395020,444.338562 402.781189,445.502869 409.668335,441.974548 
	C411.299622,441.138794 413.540619,438.391510 413.170563,437.357971 
	C412.226929,434.722565 410.252686,433.046783 406.602753,434.976440 
	C401.623138,437.609039 397.267212,436.134949 394.536652,431.444366 
	C396.360077,431.281860 397.922211,431.044952 399.487488,431.022034 
	C403.642914,430.961151 407.801819,430.908600 411.955231,431.014618 
	C415.127289,431.095612 416.335999,429.972443 416.157013,426.589142 
	C415.868439,421.134155 413.523865,417.117920 408.399323,413.828400 
M153.432678,431.000092 
	C154.430557,430.998932 155.428741,431.012970 156.426285,430.994049 
	C161.849167,430.891266 162.845367,429.558685 161.617599,424.350433 
	C160.096542,417.898041 156.159683,413.971771 149.718994,412.393860 
	C142.444702,410.611786 133.792938,414.696106 131.087738,421.317352 
	C127.848953,429.244568 130.883774,438.174194 138.102646,441.957916 
	C145.325867,445.743927 155.176575,444.110321 159.364731,438.234741 
	C158.115311,436.627319 156.821106,434.962311 155.585831,433.373108 
	C146.723953,437.239349 143.718018,436.920776 140.267410,431.000061 
	C144.692871,431.000061 148.578476,431.000061 153.432678,431.000092 
M300.170532,442.750519 
	C300.732605,442.009796 301.767242,441.278259 301.781769,440.526947 
	C301.894470,434.704865 302.283020,428.827759 301.659363,423.068024 
	C300.979095,416.785126 297.245270,412.958282 290.886597,412.421356 
	C286.404053,412.042908 281.716278,413.148743 277.252777,414.171051 
	C276.166595,414.419861 274.783264,417.064575 274.975494,418.400604 
	C275.330048,420.864868 276.864594,422.371368 280.029144,421.113892 
	C282.249023,420.231781 284.934296,419.902069 287.297089,420.208832 
	C288.964264,420.425323 290.439178,422.122437 291.999908,423.158508 
	C291.726318,423.799103 291.452698,424.439697 291.179108,425.080292 
	C288.226746,425.080292 285.247681,424.824127 282.327118,425.128937 
	C274.000153,425.998138 269.523590,434.111542 274.765289,439.606567 
	C277.245941,442.207184 282.002441,443.292084 285.879120,443.732544 
	C290.278656,444.232391 294.847473,443.242859 300.170532,442.750519 
M308.999481,422.545410 
	C309.004578,427.872253 309.101440,433.201172 308.979858,438.525116 
	C308.908600,441.644470 310.009918,443.021057 313.303711,443.051056 
	C316.702454,443.082001 318.023590,441.904877 318.068909,438.423279 
	C318.126892,433.967621 318.492889,429.474121 319.234802,425.082886 
	C319.796448,421.758270 322.292206,419.766998 325.742401,420.280548 
	C328.987793,420.763611 331.078186,422.742462 331.000427,426.441589 
	C330.912964,430.600922 331.125183,434.767914 330.988342,438.924377 
	C330.873199,442.421478 332.796600,443.074554 335.711884,443.020325 
	C338.545624,442.967560 341.148438,443.027863 341.003784,439.000183 
	C340.854523,434.843903 341.211945,430.658691 340.892181,426.521332 
	C339.953796,414.379364 333.223755,409.863495 321.543762,413.256989 
	C320.504425,413.558929 319.222931,413.927551 318.300385,413.590546 
	C310.026001,410.567719 309.026154,411.171143 308.999908,419.569275 
	C308.997803,420.235138 308.999542,420.900970 308.999481,422.545410 
M190.679535,412.125824 
	C184.039520,412.035370 184.023529,412.035339 184.004974,418.654602 
	C183.986786,425.146759 184.091049,431.640503 183.971954,438.130463 
	C183.913315,441.325470 184.722900,443.077515 188.409363,443.063171 
	C191.911407,443.049561 193.059814,441.689819 193.054108,438.312988 
	C193.046860,434.022247 193.248871,429.693756 193.849716,425.450775 
	C194.364609,421.814728 197.099594,419.901550 200.646713,420.280396 
	C204.345505,420.675446 205.903503,423.441040 205.960022,427.014313 
	C206.023178,431.008667 206.098129,435.006500 205.997620,438.998566 
	C205.919907,442.085205 207.421494,443.018097 210.282288,443.023804 
	C213.198074,443.029602 215.125763,442.445190 215.012741,438.940338 
	C214.873306,434.617004 215.013245,430.285248 214.995819,425.957306 
	C214.950287,414.651520 208.141663,409.828308 197.124802,412.984406 
	C195.429276,413.470184 193.327042,412.536346 190.679535,412.125824 
M108.001282,419.497498 
	C107.996323,415.506165 107.895546,411.511932 108.017365,407.524475 
	C108.111237,404.451965 107.080986,402.975647 103.745071,402.957123 
	C100.396172,402.938538 98.920197,404.008911 98.967003,407.539337 
	C99.103699,417.848480 99.072952,428.161072 98.980537,438.471191 
	C98.952950,441.548981 99.941322,443.082275 103.262466,443.019440 
	C110.078484,442.890503 116.899254,442.929260 123.716835,443.007294 
	C126.541763,443.039612 128.017838,442.146057 128.014481,439.013977 
	C128.011154,435.902863 126.577049,434.925354 123.732567,435.003296 
	C120.409180,435.094360 117.064850,434.801788 113.758995,435.056702 
	C109.531281,435.382721 107.516144,433.992462 107.951294,429.469330 
	C108.236626,426.503418 108.002670,423.487518 108.001282,419.497498 
M175.796234,440.950409 
	C175.859665,432.806915 175.859909,424.662201 176.018723,416.520569 
	C176.079315,413.414307 175.004410,412.003906 171.708679,411.984009 
	C168.305344,411.963501 166.897415,413.205597 166.970703,416.660767 
	C167.111740,423.308350 166.984131,429.961243 167.006866,436.611786 
	C167.030090,443.408813 168.926498,444.549408 175.796234,440.950409 
M172.391037,399.061127 
	C169.001160,398.996063 166.020111,400.243866 166.411972,403.894836 
	C166.605835,405.700836 169.110703,408.122925 171.000000,408.614960 
	C172.569778,409.023804 175.775009,407.483887 176.472580,405.980042 
	C177.793549,403.132324 177.116257,400.052673 172.391037,399.061127 
M289.670105,406.048706 
	C290.816254,409.038300 293.195038,409.754639 295.619263,408.285370 
	C296.778137,407.583008 297.941986,404.491028 297.457764,403.947540 
	C296.247223,402.588684 294.090759,401.442627 292.324188,401.457275 
	C291.344421,401.465393 290.385406,403.974731 289.670105,406.048706 
M285.176636,407.930054 
	C287.312714,404.814850 287.084595,402.192657 283.100372,401.260468 
	C281.873230,400.973328 279.839539,401.991699 278.959229,403.058990 
	C278.285828,403.875336 278.354431,406.586395 278.953827,406.923309 
	C280.586945,407.841309 282.676422,407.947540 285.176636,407.930054 
z"/>
<path fill="#3A7C78" opacity="1.000000" stroke="none" 
	d="
M97.677834,269.277344 
	C91.185555,253.861313 86.679436,238.382935 84.857445,221.990112 
	C79.970047,178.017105 90.862892,138.307419 117.506546,103.393913 
	C140.008804,73.907242 169.964142,54.621719 205.937347,45.226814 
	C225.675476,40.071922 245.799561,40.053177 266.033844,41.904934 
	C285.360962,43.673672 303.354370,49.656265 320.509796,58.305489 
	C337.287781,66.764404 352.429779,77.820793 364.964813,91.714691 
	C386.565277,115.656700 401.256378,143.281982 406.093628,175.634476 
	C410.888306,207.701721 408.031067,238.774689 394.753906,268.619659 
	C380.051239,301.669067 356.775024,326.950806 325.441650,344.807617 
	C306.948700,355.346649 287.033722,361.622925 265.840027,364.075806 
	C227.731049,368.486420 192.152802,361.133331 159.706863,340.688721 
	C132.080063,323.280731 111.245560,299.596313 97.677834,269.277344 
M243.500000,266.859406 
	C251.831848,266.859894 260.166046,266.972321 268.494232,266.797882 
	C271.269196,266.739746 272.676331,267.700134 273.703339,270.238312 
	C276.385803,276.867828 279.240082,283.432709 282.235901,289.926422 
	C282.827301,291.208374 284.324982,292.919434 285.462311,292.964081 
	C292.568970,293.242950 299.692017,293.104828 308.523132,293.104828 
	C299.737244,272.630646 291.385437,253.167969 282.814270,233.194122 
	C291.440460,233.194122 299.099884,233.197189 306.759338,233.193268 
	C314.309845,233.189407 314.286774,233.186111 314.347137,225.840866 
	C314.364288,223.751358 314.558197,221.663315 314.664368,219.698578 
	C323.469391,218.343597 325.168945,216.353287 325.171783,207.809189 
	C325.181152,179.480255 325.140961,151.151230 325.209106,122.822456 
	C325.219116,118.669373 324.505890,114.261253 320.219055,113.563469 
	C314.159485,112.577141 313.709625,109.187515 314.344574,104.548393 
	C315.001801,99.746140 312.698090,98.657768 308.280579,98.722321 
	C293.286102,98.941475 278.286469,98.805786 263.288788,98.805641 
	C261.518463,98.805618 259.748169,98.805634 257.330292,98.805634 
	C257.330292,94.459274 257.509369,90.815155 257.291626,87.194908 
	C256.884155,80.421265 252.517059,76.256378 246.101349,76.228485 
	C239.470581,76.199661 235.034271,80.610504 234.826157,87.578552 
	C234.718796,91.173103 234.807312,94.773506 234.807312,98.805717 
	C232.240631,98.805717 230.439835,98.805717 228.639023,98.805725 
	C214.974472,98.805763 201.309891,98.787926 187.645386,98.811394 
	C176.463486,98.830605 177.926605,97.912193 177.823944,108.245964 
	C177.812469,109.401909 177.700058,110.556847 177.637314,111.662071 
	C166.978470,115.135567 166.978409,115.135567 166.978394,126.830933 
	C166.978333,153.493469 166.978012,180.156006 166.978516,206.818542 
	C166.978699,216.607391 167.991150,217.880035 177.835770,219.910477 
	C177.835770,222.083176 177.828842,224.374771 177.837082,226.666306 
	C177.859985,233.031464 177.980469,233.172638 184.199265,233.188324 
	C192.306900,233.208786 200.414642,233.193344 209.327026,233.193344 
	C200.710892,253.297012 192.392578,272.705750 183.636017,293.137085 
	C191.797287,293.137085 198.433578,292.989075 205.057892,293.206055 
	C207.921005,293.299835 209.148865,292.119812 210.148331,289.642334 
	C212.699158,283.319336 215.669220,277.163788 218.159790,270.818878 
	C219.389725,267.685516 221.157013,266.615448 224.506805,266.778076 
	C230.491745,267.068695 236.500961,266.859589 243.500000,266.859406 
z"/>
<path fill="#2A3D3B" opacity="1.000000" stroke="none" 
	d="
M242.574554,431.700043 
	C241.644394,434.048645 240.705719,436.019165 240.138214,438.091309 
	C239.234207,441.392242 237.547684,443.048309 233.822189,443.101654 
	C230.077225,443.155182 228.600128,441.486328 227.491516,438.228546 
	C224.666840,429.927979 221.520462,421.736938 218.521362,413.552612 
	C224.462448,410.716583 226.800735,411.556091 228.781647,417.007782 
	C230.363708,421.361786 231.811859,425.764465 233.870621,431.747223 
	C236.193222,425.693268 238.092850,421.074188 239.722641,416.361786 
	C240.616394,413.777588 241.642792,412.022034 244.840332,411.973022 
	C248.229309,411.921112 249.423355,413.669373 250.358017,416.508575 
	C251.887375,421.154266 253.770157,425.683624 255.998581,431.568481 
	C258.292755,425.508484 259.880615,420.673187 261.992584,416.078827 
	C262.744659,414.442719 264.600555,412.570526 266.244751,412.234070 
	C270.371277,411.389740 271.422119,412.917938 270.007568,416.858582 
	C267.312958,424.365326 264.434326,431.809082 261.898773,439.368469 
	C260.714905,442.897980 258.255737,443.007294 255.270691,443.048615 
	C252.296417,443.089813 250.737457,441.926636 249.850159,439.086121 
	C248.582474,435.027924 246.938004,431.087402 244.981552,425.824493 
	C243.900162,428.489807 243.316376,429.928650 242.574554,431.700043 
z"/>
<path fill="#2A3D3B" opacity="1.000000" stroke="none" 
	d="
M364.175140,412.290710 
	C366.055786,412.981079 367.554840,413.570160 370.024200,414.540558 
	C370.024200,410.852020 370.131775,407.929962 369.996613,405.019226 
	C369.832428,401.483856 371.874451,400.984894 374.752777,400.978516 
	C377.638641,400.972168 379.026978,401.972870 379.006165,405.029297 
	C378.929169,416.338715 378.928436,427.649231 378.997040,438.958771 
	C379.029480,444.303955 375.178467,442.726929 372.282684,442.928680 
	C369.788544,443.102417 367.165314,442.835297 364.822815,443.523895 
	C355.925507,446.139435 346.387329,439.545685 346.014252,430.278992 
	C345.502716,417.572723 351.427917,411.544067 364.175140,412.290710 
M358.810303,434.897858 
	C361.950043,436.628418 365.025330,436.396088 367.354462,433.732788 
	C369.744263,431.000122 371.238647,427.383026 368.729431,424.261383 
	C367.113312,422.250854 364.052612,420.427704 361.599731,420.375275 
	C359.677734,420.334198 357.037140,422.760559 355.883911,424.763275 
	C353.843964,428.306122 355.101593,431.764740 358.810303,434.897858 
z"/>
<path fill="#293D3B" opacity="1.000000" stroke="none" 
	d="
M408.747559,413.988159 
	C413.523865,417.117920 415.868439,421.134155 416.157013,426.589142 
	C416.335999,429.972443 415.127289,431.095612 411.955231,431.014618 
	C407.801819,430.908600 403.642914,430.961151 399.487488,431.022034 
	C397.922211,431.044952 396.360077,431.281860 394.536652,431.444366 
	C397.267212,436.134949 401.623138,437.609039 406.602753,434.976440 
	C410.252686,433.046783 412.226929,434.722565 413.170563,437.357971 
	C413.540619,438.391510 411.299622,441.138794 409.668335,441.974548 
	C402.781189,445.502869 394.395020,444.338562 389.147980,439.590729 
	C384.455536,435.344757 382.844299,427.936676 385.265167,421.738434 
	C388.593079,413.217773 397.940857,410.021576 408.747559,413.988159 
M406.342102,423.784302 
	C404.371368,422.373199 402.472992,419.985046 400.409058,419.832153 
	C398.434326,419.685852 396.287506,421.863007 394.216339,423.018982 
	C394.438751,423.686523 394.661194,424.354065 394.883606,425.021606 
	C398.583191,424.817108 402.282745,424.612640 406.342102,423.784302 
z"/>
<path fill="#2A3D3B" opacity="1.000000" stroke="none" 
	d="
M152.948380,431.000061 
	C148.578476,431.000061 144.692871,431.000061 140.267410,431.000061 
	C143.718018,436.920776 146.723953,437.239349 155.585831,433.373108 
	C156.821106,434.962311 158.115311,436.627319 159.364731,438.234741 
	C155.176575,444.110321 145.325867,445.743927 138.102646,441.957916 
	C130.883774,438.174194 127.848953,429.244568 131.087738,421.317352 
	C133.792938,414.696106 142.444702,410.611786 149.718994,412.393860 
	C156.159683,413.971771 160.096542,417.898041 161.617599,424.350433 
	C162.845367,429.558685 161.849167,430.891266 156.426285,430.994049 
	C155.428741,431.012970 154.430557,430.998932 152.948380,431.000061 
M144.263229,419.842224 
	C142.689346,421.066925 141.115479,422.291626 139.541595,423.516357 
	C139.811249,423.827637 140.080917,424.138916 140.350571,424.450195 
	C144.316177,424.450195 148.281784,424.450195 152.247375,424.450195 
	C152.415863,423.798950 152.584335,423.147736 152.752808,422.496490 
	C150.152100,421.530273 147.551392,420.564087 144.263229,419.842224 
z"/>
<path fill="#2A3D3B" opacity="1.000000" stroke="none" 
	d="
M299.756592,442.825684 
	C294.847473,443.242859 290.278656,444.232391 285.879120,443.732544 
	C282.002441,443.292084 277.245941,442.207184 274.765289,439.606567 
	C269.523590,434.111542 274.000153,425.998138 282.327118,425.128937 
	C285.247681,424.824127 288.226746,425.080292 291.179108,425.080292 
	C291.452698,424.439697 291.726318,423.799103 291.999908,423.158508 
	C290.439178,422.122437 288.964264,420.425323 287.297089,420.208832 
	C284.934296,419.902069 282.249023,420.231781 280.029144,421.113892 
	C276.864594,422.371368 275.330048,420.864868 274.975494,418.400604 
	C274.783264,417.064575 276.166595,414.419861 277.252777,414.171051 
	C281.716278,413.148743 286.404053,412.042908 290.886597,412.421356 
	C297.245270,412.958282 300.979095,416.785126 301.659363,423.068024 
	C302.283020,428.827759 301.894470,434.704865 301.781769,440.526947 
	C301.767242,441.278259 300.732605,442.009796 299.756592,442.825684 
M282.809326,435.842499 
	C288.631073,438.131439 290.810852,437.207245 292.171936,431.872894 
	C285.574005,429.940857 283.240265,430.729980 282.809326,435.842499 
z"/>
<path fill="#2A3D3B" opacity="1.000000" stroke="none" 
	d="
M308.999512,422.056122 
	C308.999542,420.900970 308.997803,420.235138 308.999908,419.569275 
	C309.026154,411.171143 310.026001,410.567719 318.300385,413.590546 
	C319.222931,413.927551 320.504425,413.558929 321.543762,413.256989 
	C333.223755,409.863495 339.953796,414.379364 340.892181,426.521332 
	C341.211945,430.658691 340.854523,434.843903 341.003784,439.000183 
	C341.148438,443.027863 338.545624,442.967560 335.711884,443.020325 
	C332.796600,443.074554 330.873199,442.421478 330.988342,438.924377 
	C331.125183,434.767914 330.912964,430.600922 331.000427,426.441589 
	C331.078186,422.742462 328.987793,420.763611 325.742401,420.280548 
	C322.292206,419.766998 319.796448,421.758270 319.234802,425.082886 
	C318.492889,429.474121 318.126892,433.967621 318.068909,438.423279 
	C318.023590,441.904877 316.702454,443.082001 313.303711,443.051056 
	C310.009918,443.021057 308.908600,441.644470 308.979858,438.525116 
	C309.101440,433.201172 309.004578,427.872253 308.999512,422.056122 
z"/>
<path fill="#2A3D3B" opacity="1.000000" stroke="none" 
	d="
M191.046219,412.192444 
	C193.327042,412.536346 195.429276,413.470184 197.124802,412.984406 
	C208.141663,409.828308 214.950287,414.651520 214.995819,425.957306 
	C215.013245,430.285248 214.873306,434.617004 215.012741,438.940338 
	C215.125763,442.445190 213.198074,443.029602 210.282288,443.023804 
	C207.421494,443.018097 205.919907,442.085205 205.997620,438.998566 
	C206.098129,435.006500 206.023178,431.008667 205.960022,427.014313 
	C205.903503,423.441040 204.345505,420.675446 200.646713,420.280396 
	C197.099594,419.901550 194.364609,421.814728 193.849716,425.450775 
	C193.248871,429.693756 193.046860,434.022247 193.054108,438.312988 
	C193.059814,441.689819 191.911407,443.049561 188.409363,443.063171 
	C184.722900,443.077515 183.913315,441.325470 183.971954,438.130463 
	C184.091049,431.640503 183.986786,425.146759 184.004974,418.654602 
	C184.023529,412.035339 184.039520,412.035370 191.046219,412.192444 
z"/>
<path fill="#2A3D3B" opacity="1.000000" stroke="none" 
	d="
M108.001282,419.995758 
	C108.002670,423.487518 108.236626,426.503418 107.951294,429.469330 
	C107.516144,433.992462 109.531281,435.382721 113.758995,435.056702 
	C117.064850,434.801788 120.409180,435.094360 123.732567,435.003296 
	C126.577049,434.925354 128.011154,435.902863 128.014481,439.013977 
	C128.017838,442.146057 126.541763,443.039612 123.716835,443.007294 
	C116.899254,442.929260 110.078484,442.890503 103.262466,443.019440 
	C99.941322,443.082275 98.952950,441.548981 98.980537,438.471191 
	C99.072952,428.161072 99.103699,417.848480 98.967003,407.539337 
	C98.920197,404.008911 100.396172,402.938538 103.745071,402.957123 
	C107.080986,402.975647 108.111237,404.451965 108.017365,407.524475 
	C107.895546,411.511932 107.996323,415.506165 108.001282,419.995758 
z"/>
<path fill="#2A3D3B" opacity="1.000000" stroke="none" 
	d="
M175.651306,441.366943 
	C168.926498,444.549408 167.030090,443.408813 167.006866,436.611786 
	C166.984131,429.961243 167.111740,423.308350 166.970703,416.660767 
	C166.897415,413.205597 168.305344,411.963501 171.708679,411.984009 
	C175.004410,412.003906 176.079315,413.414307 176.018723,416.520569 
	C175.859909,424.662201 175.859665,432.806915 175.651306,441.366943 
z"/>
<path fill="#2A3D3B" opacity="1.000000" stroke="none" 
	d="
M172.790619,399.090332 
	C177.116257,400.052673 177.793549,403.132324 176.472580,405.980042 
	C175.775009,407.483887 172.569778,409.023804 171.000000,408.614960 
	C169.110703,408.122925 166.605835,405.700836 166.411972,403.894836 
	C166.020111,400.243866 169.001160,398.996063 172.790619,399.090332 
z"/>
<path fill="#293C3B" opacity="1.000000" stroke="none" 
	d="
M289.543579,405.702698 
	C290.385406,403.974731 291.344421,401.465393 292.324188,401.457275 
	C294.090759,401.442627 296.247223,402.588684 297.457764,403.947540 
	C297.941986,404.491028 296.778137,407.583008 295.619263,408.285370 
	C293.195038,409.754639 290.816254,409.038300 289.543579,405.702698 
z"/>
<path fill="#293C3A" opacity="1.000000" stroke="none" 
	d="
M284.880859,408.152740 
	C282.676422,407.947540 280.586945,407.841309 278.953827,406.923309 
	C278.354431,406.586395 278.285828,403.875336 278.959229,403.058990 
	C279.839539,401.991699 281.873230,400.973328 283.100372,401.260468 
	C287.084595,402.192657 287.312714,404.814850 284.880859,408.152740 
z"/>
<path fill="#F7D405" opacity="1.000000" stroke="none" 
	d="
M243.000015,266.859406 
	C236.500961,266.859589 230.491745,267.068695 224.506805,266.778076 
	C221.157013,266.615448 219.389725,267.685516 218.159790,270.818878 
	C215.669220,277.163788 212.699158,283.319336 210.148331,289.642334 
	C209.148865,292.119812 207.921005,293.299835 205.057892,293.206055 
	C198.433578,292.989075 191.797287,293.137085 183.636017,293.137085 
	C192.392578,272.705750 200.710892,253.297012 209.327026,233.193344 
	C200.414642,233.193344 192.306900,233.208786 184.199265,233.188324 
	C177.980469,233.172638 177.859985,233.031464 177.837082,226.666306 
	C177.828842,224.374771 177.835770,222.083176 177.835770,219.910477 
	C167.991150,217.880035 166.978699,216.607391 166.978516,206.818542 
	C166.978012,180.156006 166.978333,153.493469 166.978394,126.830933 
	C166.978409,115.135567 166.978470,115.135567 177.637314,111.662071 
	C177.700058,110.556847 177.812469,109.401909 177.823944,108.245964 
	C177.926605,97.912193 176.463486,98.830605 187.645386,98.811394 
	C201.309891,98.787926 214.974472,98.805763 228.639023,98.805725 
	C230.439835,98.805717 232.240631,98.805717 234.807312,98.805717 
	C234.807312,94.773506 234.718796,91.173103 234.826157,87.578552 
	C235.034271,80.610504 239.470581,76.199661 246.101349,76.228485 
	C252.517059,76.256378 256.884155,80.421265 257.291626,87.194908 
	C257.509369,90.815155 257.330292,94.459274 257.330292,98.805634 
	C259.748169,98.805634 261.518463,98.805618 263.288788,98.805641 
	C278.286469,98.805786 293.286102,98.941475 308.280579,98.722321 
	C312.698090,98.657768 315.001801,99.746140 314.344574,104.548393 
	C313.709625,109.187515 314.159485,112.577141 320.219055,113.563469 
	C324.505890,114.261253 325.219116,118.669373 325.209106,122.822456 
	C325.140961,151.151230 325.181152,179.480255 325.171783,207.809189 
	C325.168945,216.353287 323.469391,218.343597 314.664368,219.698578 
	C314.558197,221.663315 314.364288,223.751358 314.347137,225.840866 
	C314.286774,233.186111 314.309845,233.189407 306.759338,233.193268 
	C299.099884,233.197189 291.440460,233.194122 282.814270,233.194122 
	C291.385437,253.167969 299.737244,272.630646 308.523132,293.104828 
	C299.692017,293.104828 292.568970,293.242950 285.462311,292.964081 
	C284.324982,292.919434 282.827301,291.208374 282.235901,289.926422 
	C279.240082,283.432709 276.385803,276.867828 273.703339,270.238312 
	C272.676331,267.700134 271.269196,266.739746 268.494232,266.797882 
	C260.166046,266.972321 251.831848,266.859894 243.000015,266.859406 
M171.943954,205.358292 
	C171.952087,214.056839 171.952087,214.045868 180.245270,214.049011 
	C224.715027,214.065887 269.184784,214.082748 313.654541,214.116455 
	C319.681610,214.121017 320.164093,213.725250 320.167847,207.574402 
	C320.184784,179.758926 320.097656,151.943039 320.248474,124.128380 
	C320.274384,119.355141 318.663971,117.783333 313.853180,117.799225 
	C268.718140,117.948265 223.582474,117.900566 178.446976,117.889107 
	C172.404938,117.887573 171.953049,118.256477 171.949966,124.439354 
	C171.936676,151.088913 171.944061,177.738464 171.943954,205.358292 
M225.499664,112.514999 
	C253.249130,112.514999 280.998596,112.514999 308.823303,112.514999 
	C308.823303,109.302460 308.823303,106.747337 308.823303,104.133347 
	C266.751068,104.133347 225.057510,104.133347 183.274536,104.133347 
	C183.274536,106.994804 183.274536,109.538567 183.274536,112.514915 
	C197.248764,112.514915 210.874207,112.514915 225.499664,112.514999 
M304.352081,227.993805 
	C305.808411,227.912109 307.264771,227.830399 308.893066,227.739044 
	C308.893066,224.884216 308.893066,222.316528 308.893066,219.582489 
	C266.812195,219.582489 225.022278,219.582489 183.300873,219.582489 
	C183.300873,222.562134 183.300873,225.130814 183.300873,227.993942 
	C223.568619,227.993942 263.473846,227.993942 304.352081,227.993805 
M288.658173,259.874329 
	C285.277954,252.097641 281.964935,244.290375 278.452789,236.573730 
	C277.852203,235.254150 276.493988,233.495270 275.325348,233.363663 
	C271.639465,232.948517 267.877289,233.210571 264.227753,233.210571 
	C264.145721,234.258728 263.999908,234.632477 264.112518,234.895569 
	C271.502747,252.157852 278.886810,269.422974 286.395233,286.633850 
	C286.812927,287.591248 288.238037,288.640778 289.256989,288.708923 
	C292.970947,288.957306 296.711578,288.807068 301.121521,288.807068 
	C296.822968,278.845123 292.882935,269.714081 288.658173,259.874329 
M211.314423,241.838348 
	C204.685654,257.202545 198.056885,272.566711 191.043564,288.822205 
	C194.148529,288.822205 196.280212,288.566010 198.327225,288.873505 
	C203.168884,289.600800 205.596619,287.810547 207.496246,283.084229 
	C213.510269,268.121124 220.175110,253.419876 226.561111,238.605637 
	C227.247940,237.012329 227.756897,235.342331 228.404556,233.552597 
	C215.441498,232.293579 215.441498,232.293579 211.314423,241.838348 
M243.583145,233.182968 
	C240.418320,233.618515 235.762238,232.919800 234.392502,234.720673 
	C231.341187,238.732391 229.932571,243.993561 227.710281,249.075424 
	C240.341827,249.075424 252.034042,249.075424 264.150635,249.075424 
	C263.612640,247.523392 263.298157,246.437195 262.866974,245.399475 
	C257.790039,233.181061 257.785461,233.182968 243.583145,233.182968 
M239.517578,254.444656 
	C236.522873,254.444794 233.528137,254.436066 230.533463,254.446930 
	C224.599106,254.468460 223.626114,255.433365 223.334824,261.669556 
	C238.602509,261.669556 253.863861,261.669556 269.318726,261.669556 
	C268.700500,256.813904 267.073212,253.948364 261.466492,254.331116 
	C254.511292,254.805954 247.498993,254.444794 239.517578,254.444656 
M252.243896,91.533424 
	C252.179092,89.719360 252.779129,87.430153 251.899078,86.198730 
	C250.453796,84.176407 248.044159,81.564751 246.049072,81.571419 
	C244.030746,81.578163 240.763367,84.157387 240.278580,86.152840 
	C239.351151,89.970337 240.009079,94.172989 240.009079,98.226738 
	C244.412140,98.226738 248.116684,98.226738 252.244156,98.226738 
	C252.244156,96.053368 252.244156,94.256447 252.243896,91.533424 
z"/>
<path fill="#000000" opacity="1.000000" stroke="none" 
	d="
M358.485535,434.684814 
	C355.101593,431.764740 353.843964,428.306122 355.883911,424.763275 
	C357.037140,422.760559 359.677734,420.334198 361.599731,420.375275 
	C364.052612,420.427704 367.113312,422.250854 368.729431,424.261383 
	C371.238647,427.383026 369.744263,431.000122 367.354462,433.732788 
	C365.025330,436.396088 361.950043,436.628418 358.485535,434.684814 
z"/>
<path fill="#000000" opacity="1.000000" stroke="none" 
	d="
M406.162201,424.096222 
	C402.282745,424.612640 398.583191,424.817108 394.883606,425.021606 
	C394.661194,424.354065 394.438751,423.686523 394.216339,423.018982 
	C396.287506,421.863007 398.434326,419.685852 400.409058,419.832153 
	C402.472992,419.985046 404.371368,422.373199 406.162201,424.096222 
z"/>
<path fill="#000000" opacity="1.000000" stroke="none" 
	d="
M144.606964,419.720032 
	C147.551392,420.564087 150.152100,421.530273 152.752808,422.496490 
	C152.584335,423.147736 152.415863,423.798950 152.247375,424.450195 
	C148.281784,424.450195 144.316177,424.450195 140.350571,424.450195 
	C140.080917,424.138916 139.811249,423.827637 139.541595,423.516357 
	C141.115479,422.291626 142.689346,421.066925 144.606964,419.720032 
z"/>
<path fill="#000000" opacity="1.000000" stroke="none" 
	d="
M282.604065,435.510040 
	C283.240265,430.729980 285.574005,429.940857 292.171936,431.872894 
	C290.810852,437.207245 288.631073,438.131439 282.604065,435.510040 
z"/>
<path fill="#3A7C78" opacity="1.000000" stroke="none" 
	d="
M171.943939,204.873169 
	C171.944061,177.738464 171.936676,151.088913 171.949966,124.439354 
	C171.953049,118.256477 172.404938,117.887573 178.446976,117.889107 
	C223.582474,117.900566 268.718140,117.948265 313.853180,117.799225 
	C318.663971,117.783333 320.274384,119.355141 320.248474,124.128380 
	C320.097656,151.943039 320.184784,179.758926 320.167847,207.574402 
	C320.164093,213.725250 319.681610,214.121017 313.654541,214.116455 
	C269.184784,214.082748 224.715027,214.065887 180.245270,214.049011 
	C171.952087,214.045868 171.952087,214.056839 171.943939,204.873169 
z"/>
<path fill="#458171" opacity="1.000000" stroke="none" 
	d="
M224.999664,112.514954 
	C210.874207,112.514915 197.248764,112.514915 183.274536,112.514915 
	C183.274536,109.538567 183.274536,106.994804 183.274536,104.133347 
	C225.057510,104.133347 266.751068,104.133347 308.823303,104.133347 
	C308.823303,106.747337 308.823303,109.302460 308.823303,112.514999 
	C280.998596,112.514999 253.249130,112.514999 224.999664,112.514954 
z"/>
<path fill="#407F75" opacity="1.000000" stroke="none" 
	d="
M303.865601,227.993866 
	C263.473846,227.993942 223.568619,227.993942 183.300873,227.993942 
	C183.300873,225.130814 183.300873,222.562134 183.300873,219.582489 
	C225.022278,219.582489 266.812195,219.582489 308.893066,219.582489 
	C308.893066,222.316528 308.893066,224.884216 308.893066,227.739044 
	C307.264771,227.830399 305.808411,227.912109 303.865601,227.993866 
z"/>
<path fill="#3F7F75" opacity="1.000000" stroke="none" 
	d="
M288.800537,260.228699 
	C292.882935,269.714081 296.822968,278.845123 301.121521,288.807068 
	C296.711578,288.807068 292.970947,288.957306 289.256989,288.708923 
	C288.238037,288.640778 286.812927,287.591248 286.395233,286.633850 
	C278.886810,269.422974 271.502747,252.157852 264.112518,234.895569 
	C263.999908,234.632477 264.145721,234.258728 264.227753,233.210571 
	C267.877289,233.210571 271.639465,232.948517 275.325348,233.363663 
	C276.493988,233.495270 277.852203,235.254150 278.452789,236.573730 
	C281.964935,244.290375 285.277954,252.097641 288.800537,260.228699 
z"/>
<path fill="#3F7E75" opacity="1.000000" stroke="none" 
	d="
M211.494827,241.502441 
	C215.441498,232.293579 215.441498,232.293579 228.404556,233.552597 
	C227.756897,235.342331 227.247940,237.012329 226.561111,238.605637 
	C220.175110,253.419876 213.510269,268.121124 207.496246,283.084229 
	C205.596619,287.810547 203.168884,289.600800 198.327225,288.873505 
	C196.280212,288.566010 194.148529,288.822205 191.043564,288.822205 
	C198.056885,272.566711 204.685654,257.202545 211.494827,241.502441 
z"/>
<path fill="#3E7E76" opacity="1.000000" stroke="none" 
	d="
M244.067322,233.182968 
	C257.785461,233.182968 257.790039,233.181061 262.866974,245.399475 
	C263.298157,246.437195 263.612640,247.523392 264.150635,249.075424 
	C252.034042,249.075424 240.341827,249.075424 227.710281,249.075424 
	C229.932571,243.993561 231.341187,238.732391 234.392502,234.720673 
	C235.762238,232.919800 240.418320,233.618515 244.067322,233.182968 
z"/>
<path fill="#4D856D" opacity="1.000000" stroke="none" 
	d="
M240.014465,254.444702 
	C247.498993,254.444794 254.511292,254.805954 261.466492,254.331116 
	C267.073212,253.948364 268.700500,256.813904 269.318726,261.669556 
	C253.863861,261.669556 238.602509,261.669556 223.334824,261.669556 
	C223.626114,255.433365 224.599106,254.468460 230.533463,254.446930 
	C233.528137,254.436066 236.522873,254.444794 240.014465,254.444702 
z"/>
<path fill="#428073" opacity="1.000000" stroke="none" 
	d="
M252.244019,91.996475 
	C252.244156,94.256447 252.244156,96.053368 252.244156,98.226738 
	C248.116684,98.226738 244.412140,98.226738 240.009079,98.226738 
	C240.009079,94.172989 239.351151,89.970337 240.278580,86.152840 
	C240.763367,84.157387 244.030746,81.578163 246.049072,81.571419 
	C248.044159,81.564751 250.453796,84.176407 251.899078,86.198730 
	C252.779129,87.430153 252.179092,89.719360 252.244019,91.996475 
z"/>
</svg>