<svg version="1.1" id="Layer_1" xmlns="http://www.w3.org/2000/svg" xmlns:xlink="http://www.w3.org/1999/xlink" x="0px" y="0px"
	 width="100%" viewBox="0 0 500 500" enable-background="new 0 0 500 500" xml:space="preserve">
<path fill="#000000" opacity="1.000000" stroke="none" 
	d="
M296.000000,501.000000 
	C197.333359,501.000000 99.166710,501.000000 1.000053,501.000000 
	C1.000035,334.333405 1.000035,167.666794 1.000018,1.000142 
	C167.666565,1.000095 334.333130,1.000095 500.999756,1.000047 
	C500.999847,167.666519 500.999847,334.333038 500.999939,500.999786 
	C432.833344,501.000000 364.666656,501.000000 296.000000,501.000000 
M77.013794,196.221725 
	C76.468521,195.912018 75.923256,195.602310 75.377983,195.292618 
	C75.679214,196.080093 75.980446,196.867554 76.609207,198.140961 
	C76.264771,199.666763 75.920334,201.192551 75.341995,203.754486 
	C74.512840,202.493423 73.348900,201.506195 73.267914,200.436935 
	C73.099533,198.213821 73.505051,195.947235 74.183235,193.293488 
	C75.439636,192.518707 76.696030,191.743942 78.177467,190.830383 
	C74.930710,188.357422 74.303619,191.571716 72.142601,192.976974 
	C69.765236,192.663742 69.597313,197.802582 66.343658,195.326981 
	C62.768875,200.878998 58.393372,197.714859 54.191719,196.443375 
	C53.794037,196.323029 53.294762,195.984573 53.013634,196.115234 
	C48.062302,198.416565 43.137585,200.775162 37.706314,203.359665 
	C39.084148,203.864380 39.921421,204.171066 40.758694,204.477768 
	C40.770836,204.857483 40.782974,205.237183 40.795116,205.616898 
	C38.417316,205.727798 36.039513,205.838699 32.698265,205.994537 
	C32.533558,206.104233 31.305044,206.922424 30.076529,207.740616 
	C28.995361,208.703903 29.481192,211.309525 28.400311,212.674484 
	C26.832455,214.654419 23.921953,215.511093 22.000879,217.295532 
	C20.970581,218.252563 20.768881,220.133438 20.271954,221.623672 
	C19.799828,223.039551 19.507479,224.517960 18.994383,225.916901 
	C18.448702,227.404648 17.736565,228.831345 16.786322,230.991043 
	C15.820354,231.174622 13.939926,231.532013 12.170433,231.868301 
	C12.505312,234.011780 12.837552,236.138367 13.169792,238.264954 
	C13.042291,239.483978 13.516038,240.690933 14.085441,241.850937 
	C15.707168,245.154800 13.587009,248.790436 14.315148,251.625504 
	C15.811249,257.450684 13.510177,257.421936 8.154694,255.823730 
	C9.268835,257.541901 9.595611,258.562897 10.293272,259.030457 
	C13.025300,260.861389 16.025463,266.041473 17.627644,269.693909 
	C18.469938,271.614075 18.082289,276.079254 23.107107,274.423004 
	C21.866125,277.801971 24.052765,280.530273 24.171799,282.833496 
	C25.457703,283.833313 26.348360,284.525818 27.530582,285.445007 
	C28.968134,284.634705 30.942572,283.863190 32.131538,287.246643 
	C32.491299,288.270386 32.817707,290.752869 35.297249,288.636383 
	C35.873230,288.144745 38.191116,289.693848 40.510098,290.626862 
	C38.785706,291.305420 37.897564,291.654907 37.009418,292.004395 
	C37.253872,292.387970 37.498322,292.771576 37.742771,293.155182 
	C40.381550,292.363617 43.844269,292.722168 43.789806,287.564545 
	C44.389378,289.277435 44.141037,290.779205 44.464649,292.145569 
	C44.744759,293.328247 45.673958,294.357178 46.178749,295.219238 
	C48.116371,293.420288 49.218307,291.700989 50.723824,291.203766 
	C52.109505,290.746185 53.929222,291.602936 55.750374,291.913574 
	C56.194771,295.162415 57.215443,295.620331 62.937832,294.584534 
	C66.203705,293.993378 69.447891,293.132660 72.736763,292.910675 
	C73.706169,292.845215 75.762421,294.675201 75.664032,295.416748 
	C75.199097,298.920776 75.097267,299.171051 77.919685,301.059814 
	C77.580353,299.211639 77.241020,297.363464 76.925156,295.643097 
	C79.052872,294.928925 80.722466,294.368530 81.691292,294.043335 
	C80.260117,292.188934 78.978699,290.528595 77.956009,289.203461 
	C80.140678,288.010590 81.665009,287.178284 83.183601,286.349121 
	C84.892296,288.885254 90.690262,287.477570 95.530632,282.876587 
	C95.826698,284.255524 96.084068,285.454224 96.347115,286.679413 
	C99.442863,284.841705 102.462189,283.049377 105.856140,281.034668 
	C105.592422,282.361816 105.370216,283.480072 105.053375,285.074524 
	C106.311615,284.794342 107.809074,284.833221 107.991112,284.362915 
	C109.852455,279.554199 113.930115,281.177765 117.329628,281.030762 
	C120.581573,280.890106 123.844368,281.000092 127.102394,281.000092 
	C219.261536,281.000092 311.420654,281.000061 403.579803,281.000061 
	C405.336090,281.000061 407.092377,281.000092 409.405792,281.000092 
	C408.880463,283.002075 408.222992,284.262512 408.303406,285.473938 
	C408.447449,287.643250 408.703278,289.939362 409.604797,291.856934 
	C409.956848,292.605682 413.090454,293.084717 413.388000,292.639038 
	C414.590515,290.837830 415.277039,288.658600 415.944794,286.552582 
	C416.169281,285.844452 415.647949,284.932343 415.692017,284.125763 
	C415.739716,283.252045 415.766693,282.119385 416.293671,281.574005 
	C418.683990,279.100220 428.884552,281.523315 429.907715,284.839050 
	C433.609161,296.834259 435.297333,309.133484 434.958496,321.680847 
	C434.870209,324.948883 434.081268,328.211853 434.163330,331.463287 
	C434.193146,332.643982 435.825409,333.784210 436.726501,334.942902 
	C437.232941,333.531219 438.311310,332.052826 438.155731,330.718323 
	C436.855560,319.564484 437.431183,308.543671 440.071014,297.643982 
	C440.298035,296.706635 441.309631,295.959351 441.956787,295.123810 
	C442.621185,295.760284 443.811310,296.351501 443.870575,297.040070 
	C444.659882,306.210388 445.514709,315.385620 445.870667,324.578339 
	C446.060852,329.489044 445.094757,334.437683 445.136841,339.365051 
	C445.150055,340.911713 446.747009,342.444824 447.619019,343.984131 
	C448.592224,342.646057 449.785370,341.407684 450.454773,339.931793 
	C450.845215,339.070984 450.369324,337.831055 450.331451,336.759979 
	C449.891907,324.330566 449.295013,311.902588 449.165802,299.469757 
	C449.139099,296.903137 450.753784,294.272583 451.803528,291.751221 
	C454.103394,286.227264 456.612946,280.789642 458.860443,275.245209 
	C459.931061,272.604065 459.931091,269.283173 461.570984,267.163788 
	C466.936249,260.229828 468.979034,252.636566 469.125305,243.920471 
	C469.434570,225.485855 452.035065,208.935959 434.059113,208.954163 
	C338.067078,209.051422 242.074844,209.000015 146.082672,208.999573 
	C139.375397,208.999542 132.641754,209.367004 125.968033,208.892776 
	C118.846794,208.386749 111.824730,207.548508 104.665314,208.841476 
	C102.685448,209.199036 100.394958,207.593765 98.201073,207.088333 
	C96.541267,206.705933 94.810722,206.618164 93.107079,206.444107 
	C92.355148,206.367264 91.591866,206.401505 90.833748,206.385345 
	C91.277626,205.903641 91.766174,205.455276 92.155846,204.933121 
	C92.913429,203.917953 93.615540,202.861404 94.875771,201.054871 
	C90.500839,201.054871 87.324051,201.054871 85.650909,201.054871 
	C85.248566,198.315613 85.008766,196.683014 84.768967,195.050415 
	C84.509102,195.182617 84.249229,195.314804 83.989357,195.446991 
	C83.595589,196.756454 83.201828,198.065903 82.808060,199.375366 
	C81.256332,197.733994 77.860489,200.365845 77.013794,196.221725 
z"/>
<path fill="#01C8BB" opacity="1.000000" stroke="none" 
	d="
M77.092331,196.908752 
	C77.860489,200.365845 81.256332,197.733994 82.808060,199.375366 
	C83.201828,198.065903 83.595589,196.756454 83.989357,195.446991 
	C84.249229,195.314804 84.509102,195.182617 84.768967,195.050415 
	C85.008766,196.683014 85.248566,198.315613 85.650909,201.054871 
	C87.324051,201.054871 90.500839,201.054871 94.875771,201.054871 
	C93.615540,202.861404 92.913429,203.917953 92.155846,204.933121 
	C91.766174,205.455276 91.277626,205.903641 90.833740,206.385345 
	C91.591866,206.401505 92.355148,206.367264 93.107079,206.444107 
	C94.810722,206.618164 96.541267,206.705933 98.201073,207.088333 
	C100.394958,207.593765 102.685448,209.199036 104.665314,208.841476 
	C111.824730,207.548508 118.846794,208.386749 125.968033,208.892776 
	C132.641754,209.367004 139.375397,208.999542 146.082672,208.999573 
	C242.074844,209.000015 338.067078,209.051422 434.059113,208.954163 
	C452.035065,208.935959 469.434570,225.485855 469.125305,243.920471 
	C468.979034,252.636566 466.936249,260.229828 461.570984,267.163788 
	C459.931091,269.283173 459.931061,272.604065 458.860443,275.245209 
	C456.612946,280.789642 454.103394,286.227264 451.803528,291.751221 
	C450.753784,294.272583 449.139099,296.903137 449.165802,299.469757 
	C449.295013,311.902588 449.891907,324.330566 450.331451,336.759979 
	C450.369324,337.831055 450.845215,339.070984 450.454773,339.931793 
	C449.785370,341.407684 448.592224,342.646057 447.619019,343.984131 
	C446.747009,342.444824 445.150055,340.911713 445.136841,339.365051 
	C445.094757,334.437683 446.060852,329.489044 445.870667,324.578339 
	C445.514709,315.385620 444.659882,306.210388 443.870575,297.040070 
	C443.811310,296.351501 442.621185,295.760284 441.956787,295.123779 
	C441.309631,295.959351 440.298035,296.706635 440.071014,297.643982 
	C437.431183,308.543671 436.855560,319.564484 438.155731,330.718323 
	C438.311310,332.052826 437.232941,333.531219 436.726501,334.942902 
	C435.825409,333.784210 434.193146,332.643982 434.163330,331.463287 
	C434.081268,328.211853 434.870209,324.948883 434.958496,321.680847 
	C435.297333,309.133484 433.609161,296.834259 429.907715,284.839050 
	C428.884552,281.523315 418.683990,279.100220 416.293671,281.574005 
	C415.766693,282.119385 415.739716,283.252045 415.692017,284.125763 
	C415.647949,284.932343 416.169281,285.844452 415.944794,286.552582 
	C415.277039,288.658600 414.590515,290.837830 413.388000,292.639038 
	C413.090454,293.084717 409.956848,292.605682 409.604797,291.856934 
	C408.703278,289.939362 408.447449,287.643250 408.303406,285.473938 
	C408.222992,284.262512 408.880463,283.002075 409.405792,281.000092 
	C407.092377,281.000092 405.336090,281.000061 403.579803,281.000061 
	C311.420654,281.000061 219.261536,281.000092 127.102394,281.000092 
	C123.844368,281.000092 120.581573,280.890106 117.329628,281.030762 
	C113.930115,281.177765 109.852455,279.554199 107.991112,284.362915 
	C107.809074,284.833221 106.311615,284.794342 105.053375,285.074524 
	C105.370216,283.480072 105.592422,282.361816 105.856140,281.034668 
	C102.462189,283.049377 99.442863,284.841705 96.347115,286.679413 
	C96.084068,285.454224 95.826698,284.255524 95.530632,282.876587 
	C90.690262,287.477570 84.892296,288.885254 83.183601,286.349121 
	C81.665009,287.178284 80.140678,288.010590 77.956009,289.203461 
	C78.978699,290.528595 80.260117,292.188934 81.691292,294.043335 
	C80.722466,294.368530 79.052872,294.928925 76.925156,295.643097 
	C77.241020,297.363464 77.580353,299.211639 77.916451,301.058197 
	C75.097267,299.171051 75.199097,298.920776 75.664032,295.416748 
	C75.762421,294.675201 73.706169,292.845215 72.736763,292.910675 
	C69.447891,293.132660 66.203705,293.993378 62.937832,294.584534 
	C57.215443,295.620331 56.194771,295.162415 55.750374,291.913574 
	C53.929222,291.602936 52.109505,290.746185 50.723824,291.203766 
	C49.218307,291.700989 48.116371,293.420288 46.178749,295.219238 
	C45.673958,294.357178 44.744759,293.328247 44.464649,292.145569 
	C44.141037,290.779205 44.389378,289.277435 43.789806,287.564545 
	C43.844269,292.722168 40.381550,292.363617 37.742771,293.155182 
	C37.498322,292.771576 37.253872,292.387970 37.009418,292.004395 
	C37.897564,291.654907 38.785706,291.305420 40.510098,290.626862 
	C38.191116,289.693848 35.873230,288.144745 35.297249,288.636383 
	C32.817707,290.752869 32.491299,288.270386 32.131538,287.246643 
	C30.942572,283.863190 28.968134,284.634705 27.530582,285.445007 
	C26.348360,284.525818 25.457703,283.833313 24.171799,282.833496 
	C24.052765,280.530273 21.866125,277.801971 23.107107,274.423004 
	C18.082289,276.079254 18.469938,271.614075 17.627644,269.693909 
	C16.025463,266.041473 13.025300,260.861389 10.293272,259.030457 
	C9.595611,258.562897 9.268835,257.541901 8.154694,255.823730 
	C13.510177,257.421936 15.811249,257.450684 14.315148,251.625504 
	C13.587009,248.790436 15.707168,245.154800 14.085441,241.850937 
	C13.516038,240.690933 13.042291,239.483978 13.169792,238.264954 
	C12.837552,236.138367 12.505312,234.011780 12.170433,231.868301 
	C13.939926,231.532013 15.820354,231.174622 16.786322,230.991043 
	C17.736565,228.831345 18.448702,227.404648 18.994383,225.916901 
	C19.507479,224.517960 19.799828,223.039551 20.271954,221.623672 
	C20.768881,220.133438 20.970581,218.252563 22.000879,217.295532 
	C23.921953,215.511093 26.832455,214.654419 28.400311,212.674484 
	C29.481192,211.309525 28.995361,208.703903 30.076529,207.740616 
	C31.305044,206.922424 32.533558,206.104233 32.698265,205.994537 
	C36.039513,205.838699 38.417316,205.727798 40.795116,205.616898 
	C40.782974,205.237183 40.770836,204.857483 40.758694,204.477768 
	C39.921421,204.171066 39.084148,203.864380 37.706314,203.359665 
	C43.137585,200.775162 48.062302,198.416565 53.013634,196.115234 
	C53.294762,195.984573 53.794037,196.323029 54.191719,196.443375 
	C58.393372,197.714859 62.768875,200.878998 66.343658,195.326981 
	C69.597313,197.802582 69.765236,192.663742 72.718445,193.142761 
	C73.421082,193.438553 73.547882,193.568527 73.674683,193.698517 
	C73.505051,195.947235 73.099533,198.213821 73.267914,200.436935 
	C73.348900,201.506195 74.512840,202.493423 75.341995,203.754486 
	C75.920334,201.192551 76.264771,199.666763 76.648727,197.712097 
	C76.822945,197.158401 76.957634,197.033585 77.092331,196.908752 
M211.252151,252.449326 
	C212.189453,253.111221 213.126740,253.773117 214.064026,254.435013 
	C214.648819,253.370026 215.233612,252.305038 215.723923,251.290970 
	C215.723923,251.290970 215.674561,251.195648 216.287750,250.723145 
	C219.102432,247.097748 217.953949,243.935242 214.755981,240.378738 
	C211.422226,236.770859 203.943542,236.035110 199.290344,238.974945 
	C198.051437,239.033295 196.812515,239.091629 194.931793,238.893494 
	C191.790436,238.670456 188.649063,238.447418 184.612656,238.145752 
	C183.415909,238.098190 182.219162,238.050629 180.547012,237.487549 
	C177.306046,237.990402 174.065079,238.493256 170.017349,239.001587 
	C168.941879,239.024368 167.866425,239.047134 166.115784,238.830414 
	C162.472137,236.072205 158.941193,236.951904 154.616669,239.102615 
	C153.501770,239.066086 152.386887,239.029556 150.857544,238.343170 
	C147.130844,236.433487 143.544769,236.814484 139.207489,239.005585 
	C137.770203,239.006256 136.332916,239.006943 134.259827,238.678940 
	C129.858093,238.449570 125.456352,238.220200 120.182175,237.993118 
	C119.309723,237.994217 118.437279,237.995316 117.057343,237.654800 
	C115.704803,238.091431 114.352257,238.528061 112.151489,238.982559 
	C110.455048,238.978195 108.758614,238.973846 106.787666,238.341156 
	C105.367744,238.542450 103.947815,238.743744 102.013504,239.347000 
	C97.980591,248.464966 102.162109,255.420013 111.843987,254.853638 
	C117.136276,254.544052 122.334846,252.785645 127.605438,251.847885 
	C128.987335,251.602005 130.480270,251.980164 132.140991,252.709091 
	C132.421539,253.113510 132.696930,253.866592 132.983414,253.870834 
	C138.677338,253.955124 144.373123,254.002426 150.067123,253.936539 
	C151.685043,253.917816 153.309235,253.269058 154.912231,253.337570 
	C161.317139,253.611404 167.712372,254.186615 174.117584,254.306213 
	C175.212646,254.326660 176.501068,252.804184 177.402054,251.741684 
	C178.186569,250.816528 178.550064,249.534348 179.107376,248.393997 
	C181.876678,250.534271 184.175125,253.767258 186.745056,253.999771 
	C192.451813,254.516113 198.295822,253.544083 204.077774,253.099564 
	C204.317261,253.081146 204.495178,252.261658 204.736176,251.878525 
	C204.736176,251.878525 204.701950,251.825638 205.436615,251.776871 
	C207.373856,251.806183 209.311111,251.835495 211.135818,251.868484 
	C211.135818,251.868484 211.134857,251.755890 211.252151,252.449326 
M327.718628,239.727158 
	C327.527863,239.455429 327.313599,239.203674 326.436615,238.614639 
	C322.077179,238.408554 317.717712,238.202469 312.409668,237.997971 
	C311.461060,237.998169 310.512451,237.998367 309.057220,237.655701 
	C307.704742,238.091980 306.352234,238.528244 304.151550,238.982254 
	C302.455078,238.977997 300.758636,238.973740 298.795898,238.352570 
	C297.598785,237.937439 296.401642,237.522293 294.374359,237.070312 
	C292.235840,236.689682 290.097290,236.309036 287.709503,235.288895 
	C285.856049,233.050598 284.378296,233.437225 282.527679,236.007141 
	C281.383118,236.658295 280.238556,237.309433 278.320648,237.865005 
	C275.304749,237.947098 272.288818,238.029190 268.652313,237.730148 
	C267.661102,236.260193 266.815796,234.657318 265.634491,233.360565 
	C264.610657,232.236664 263.099426,230.624588 261.999542,230.764847 
	C260.904053,230.904541 259.985107,232.910263 259.110535,234.181595 
	C257.947784,235.871887 256.902954,237.643280 255.140564,239.060059 
	C249.262375,235.804886 246.455429,236.468063 241.733246,242.289917 
	C240.810349,244.244507 239.887451,246.199097 238.201630,248.357773 
	C237.156494,248.290863 236.111343,248.223938 234.868927,247.331238 
	C234.577438,245.231903 234.438461,243.096405 233.951721,241.043350 
	C233.460846,238.972687 232.624817,236.983856 231.693771,234.267807 
	C229.787079,232.255280 228.115372,231.837692 226.312485,235.372391 
	C225.877960,239.056641 225.138718,242.740875 225.138306,246.425171 
	C225.138107,248.248978 226.498398,250.072937 227.172791,251.906067 
	C227.172791,251.906067 227.217300,251.850464 227.354233,252.595047 
	C231.041916,257.079742 235.884033,254.678024 240.238495,254.586197 
	C246.272583,254.458954 252.763031,252.215424 258.224426,253.782822 
	C268.619476,256.766174 278.895508,251.198303 289.014740,254.755051 
	C289.902924,255.067230 291.192566,254.109665 292.324615,253.891830 
	C293.437073,253.677765 294.591095,253.527161 295.718628,253.569092 
	C302.267029,253.812653 308.811890,254.209915 315.361176,254.289169 
	C316.130737,254.298477 316.920013,252.679459 317.732666,251.879440 
	C317.732666,251.879440 317.702179,251.824051 318.436707,251.776291 
	C320.373871,251.805344 322.311035,251.834381 324.137085,251.867096 
	C324.137085,251.867096 324.136169,251.755920 324.253998,252.450272 
	C326.912018,253.334106 329.570038,254.217957 332.308777,255.374603 
	C332.308777,255.374603 332.181702,255.629150 332.270569,256.364502 
	C335.477142,261.803558 343.187469,262.057037 347.515656,256.493530 
	C349.741455,253.632477 351.673462,253.676071 355.066254,254.155884 
	C360.700836,254.952744 366.551849,254.239075 372.310211,254.100037 
	C372.725067,254.090027 373.226898,253.657623 373.520081,253.288132 
	C375.339539,250.995178 376.968140,251.524353 378.906342,253.282883 
	C381.081482,255.256393 383.093048,255.516541 383.786865,251.881851 
	C383.786865,251.881851 383.716187,251.861282 384.428650,251.583557 
	C386.981598,247.303223 386.525146,243.527786 382.461731,239.547333 
	C378.864807,236.807449 371.281403,236.520645 367.017090,238.999756 
	C365.940125,239.023224 364.863159,239.046692 363.112000,238.831802 
	C359.462494,236.070084 355.930481,236.958160 351.532776,239.107376 
	C350.319305,239.055908 349.105835,239.004425 347.547668,238.361481 
	C342.194183,237.038300 336.875031,236.033035 331.250336,240.021851 
	C330.122711,240.036942 328.995087,240.052017 327.967468,240.042847 
	C327.967468,240.042847 327.990997,240.143036 327.718628,239.727158 
M86.306595,238.352188 
	C84.155823,240.452194 82.170105,239.781830 79.716553,237.521378 
	C78.544724,237.475952 77.372894,237.430527 76.017349,236.741425 
	C75.149673,235.817978 74.281998,234.894516 72.822632,233.282806 
	C68.508575,233.168243 64.186028,232.874222 59.887005,233.077591 
	C58.929184,233.122894 58.054111,234.917465 56.842525,236.409607 
	C58.336166,239.519058 60.563137,242.453949 59.132881,246.241684 
	C59.132881,246.241684 59.191059,246.257233 58.461864,246.370193 
	C57.737221,248.319092 56.260166,250.393570 56.557018,252.171951 
	C56.749359,253.324249 59.504791,254.768158 61.160782,254.833221 
	C68.672676,255.128342 76.214813,255.236038 83.718521,254.860611 
	C86.584564,254.717209 91.005661,253.857468 91.866951,252.001236 
	C93.711464,248.025970 94.500526,243.124359 90.921562,238.324432 
	C89.558426,238.211609 88.195290,238.098785 86.306595,238.352188 
M427.056488,235.159378 
	C426.023560,240.872742 432.359924,241.277817 434.180603,244.913818 
	C426.985687,253.006134 426.985687,253.006134 427.924927,256.765289 
	C432.973328,252.853134 437.866272,249.061432 443.093292,245.010849 
	C438.080536,241.145035 433.771210,237.765533 429.372284,234.506912 
	C428.874207,234.137955 427.871674,234.449951 427.056488,235.159378 
M416.979950,236.563446 
	C415.527496,235.527603 414.075043,234.491760 412.548645,233.403168 
	C409.619598,240.403839 417.281067,241.171036 419.135925,245.121063 
	C416.595337,248.837555 409.864075,249.821960 412.596710,256.842316 
	C417.706085,252.899963 422.601868,249.122421 427.919739,245.019180 
	C424.058929,242.036331 420.800964,239.519257 416.979950,236.563446 
M410.951019,243.597610 
	C406.501709,240.213989 402.052399,236.830353 397.506805,233.373520 
	C394.827789,240.356033 401.858063,241.322723 404.068176,245.036407 
	C401.567780,248.726349 394.765503,249.708817 397.699371,256.612183 
	C402.216370,253.141037 406.573059,249.860245 410.820404,246.443542 
	C411.345306,246.021301 411.287903,244.875168 410.951019,243.597610 
z"/>
<path fill="#01C8BB" opacity="1.000000" stroke="none" 
	d="
M73.105270,193.112427 
	C74.303619,191.571716 74.930710,188.357422 78.177467,190.830383 
	C76.696030,191.743942 75.439636,192.518707 73.928955,193.496002 
	C73.547882,193.568527 73.421082,193.438553 73.105270,193.112427 
z"/>
<path fill="#01C8BB" opacity="1.000000" stroke="none" 
	d="
M76.484962,197.469131 
	C75.980446,196.867554 75.679214,196.080093 75.377991,195.292603 
	C75.923256,195.602310 76.468521,195.912018 77.053062,196.565247 
	C76.957634,197.033585 76.822945,197.158401 76.484962,197.469131 
z"/>
<path fill="#08B7AB" opacity="1.000000" stroke="none" 
	d="
M309.563843,237.998550 
	C310.512451,237.998367 311.461060,237.998169 312.951233,238.457687 
	C313.492798,243.121613 313.492798,247.325806 313.492798,251.815308 
	C315.185883,251.815308 316.443024,251.815308 317.700165,251.815308 
	C316.920013,252.679459 316.130737,254.298477 315.361176,254.289169 
	C308.811890,254.209915 302.267029,253.812653 295.718628,253.569092 
	C294.591095,253.527161 293.437073,253.677765 292.324615,253.891830 
	C291.192566,254.109665 289.902924,255.067230 289.014740,254.755051 
	C278.895508,251.198303 268.619476,256.766174 258.224426,253.782822 
	C252.763031,252.215424 246.272583,254.458954 240.238495,254.586197 
	C235.884033,254.678024 231.041916,257.079742 227.734451,252.278961 
	C232.320831,251.962891 236.526978,251.962891 242.253494,251.962891 
	C240.639786,250.093903 239.802170,249.123795 238.964569,248.153687 
	C239.887451,246.199097 240.810349,244.244507 242.014709,242.575165 
	C241.705414,246.734039 242.940659,249.784241 246.662079,251.301270 
	C249.971298,252.650253 253.289886,252.864807 256.031067,249.878113 
	C255.255600,248.635605 254.608398,247.598587 253.878357,246.428864 
	C259.873566,245.197281 256.587189,242.007904 255.807465,239.379822 
	C256.902954,237.643280 257.947784,235.871887 259.110535,234.181595 
	C259.985107,232.910263 260.904053,230.904541 261.999542,230.764847 
	C263.099426,230.624588 264.610657,232.236664 265.634491,233.360565 
	C266.815796,234.657318 267.661102,236.260193 268.800812,238.216888 
	C264.004517,247.125854 273.757050,244.687057 276.521362,248.448914 
	C272.990784,248.687195 270.150269,248.878906 267.309723,249.070618 
	C267.342529,249.847672 267.375305,250.624725 267.408112,251.401764 
	C270.267059,251.560059 273.241119,252.254059 275.941376,251.673859 
	C277.537628,251.330887 279.390106,249.136734 279.790009,247.456696 
	C280.015564,246.509109 277.695435,244.660400 276.212738,243.690353 
	C274.917755,242.843140 273.189758,242.657776 271.653046,242.180008 
	C271.750824,241.689240 271.848602,241.198456 271.946381,240.707687 
	C273.456512,240.707687 275.084778,241.055756 276.439026,240.596252 
	C277.500000,240.236282 278.221619,238.876282 279.093994,237.960571 
	C280.238556,237.309433 281.383118,236.658295 282.812622,236.340912 
	C282.487335,237.595383 281.230042,238.641388 281.379852,239.414825 
	C281.999115,242.611816 282.959473,245.753464 283.955658,248.863861 
	C285.093597,252.416748 288.695251,253.041840 291.866089,250.330414 
	C286.421936,246.628036 286.395355,246.095825 290.701691,240.321075 
	C291.044800,239.860916 290.663330,238.548523 290.224945,237.897003 
	C289.685638,237.095428 288.732849,236.572037 287.958771,235.928406 
	C290.097290,236.309036 292.235840,236.689682 294.657593,237.525223 
	C294.936951,240.965698 294.280823,244.158783 295.142975,246.868835 
	C295.791687,248.907959 298.139404,251.246902 300.178040,251.798004 
	C302.938202,252.544159 306.126251,251.707336 309.563843,251.526886 
	C309.563843,246.953827 309.563843,242.476196 309.563843,237.998550 
M263.387665,237.282791 
	C262.410126,238.044861 260.648193,238.749939 260.587982,239.578674 
	C260.294281,243.621643 260.455048,247.697617 260.455048,251.761917 
	C260.919342,252.010513 261.383606,252.259125 261.847900,252.507736 
	C262.814545,251.652069 264.587921,250.816620 264.609955,249.937332 
	C264.712219,245.853851 264.329193,241.758240 263.387665,237.282791 
z"/>
<path fill="#08B6AB" opacity="1.000000" stroke="none" 
	d="
M195.573608,239.149979 
	C196.812515,239.091629 198.051437,239.033295 199.871918,239.416840 
	C200.453476,243.749069 200.453476,247.639435 200.453476,251.815353 
	C202.179901,251.815353 203.440826,251.815353 204.701767,251.815353 
	C204.495178,252.261658 204.317261,253.081146 204.077774,253.099564 
	C198.295822,253.544083 192.451813,254.516113 186.745056,253.999771 
	C184.175125,253.767258 181.876678,250.534271 179.107376,248.393997 
	C178.550064,249.534348 178.186569,250.816528 177.402054,251.741684 
	C176.501068,252.804184 175.212646,254.326660 174.117584,254.306213 
	C167.712372,254.186615 161.317139,253.611404 154.912231,253.337570 
	C153.309235,253.269058 151.685043,253.917816 150.067123,253.936539 
	C144.373123,254.002426 138.677338,253.955124 132.983414,253.870834 
	C132.696930,253.866592 132.421539,253.113510 132.075348,252.348663 
	C132.009689,251.988235 132.095749,251.904465 132.528671,251.944305 
	C134.003830,251.194702 135.944550,250.393417 135.934311,249.617859 
	C135.887573,246.077164 135.293198,242.543701 134.895630,239.007629 
	C136.332916,239.006943 137.770203,239.006256 139.538147,239.348724 
	C137.371613,244.782196 142.397095,245.332214 145.233963,247.769287 
	C142.769333,248.441864 140.894363,248.953522 139.019394,249.465179 
	C139.127472,250.242477 139.235550,251.019791 139.343628,251.797089 
	C142.236130,251.797089 145.236313,252.257355 147.978668,251.615692 
	C149.500641,251.259567 151.498810,249.127853 151.602066,247.676865 
	C151.691040,246.426239 149.591629,244.712509 148.106613,243.746323 
	C146.707260,242.835892 144.846848,242.634094 143.189255,242.120544 
	C143.224045,241.712753 143.258835,241.304962 143.293625,240.897171 
	C144.796204,240.794128 146.337418,240.862518 147.789429,240.535172 
	C149.004425,240.261230 150.115112,239.524719 151.271988,238.993042 
	C152.386887,239.029556 153.501770,239.066086 154.876785,239.461548 
	C152.801025,243.462906 152.426895,247.184662 155.977005,250.088181 
	C159.501511,252.970764 163.430649,253.107437 167.435516,249.974976 
	C166.623993,248.908539 166.002594,248.091949 165.235535,247.083939 
	C166.533203,246.313248 167.715164,245.611282 168.998901,244.848862 
	C168.183594,242.714935 167.487274,240.892410 166.790955,239.069901 
	C167.866425,239.047134 168.941879,239.024368 170.484818,239.460205 
	C170.952286,243.853638 170.952286,247.788437 170.952286,252.091064 
	C172.944107,251.901413 174.321060,251.770294 175.797394,251.629715 
	C176.214371,246.973907 174.388153,241.670975 180.670670,239.886963 
	C180.944199,239.809296 180.912140,238.655563 181.022415,238.003067 
	C182.219162,238.050629 183.415909,238.098190 184.826324,238.462067 
	C181.412613,243.301910 181.242371,247.148392 184.540375,250.067581 
	C187.827576,252.977203 192.454269,252.803162 196.554199,249.043930 
	C193.045380,248.567032 190.067245,248.162262 187.089111,247.757492 
	C187.146118,247.229401 187.203140,246.701324 187.260147,246.173248 
	C190.570389,246.000168 193.880630,245.827087 198.004135,245.611481 
	C197.024200,243.006348 196.298904,241.078171 195.573608,239.149979 
z"/>
<path fill="#08B7AB" opacity="1.000000" stroke="none" 
	d="
M363.786194,239.070160 
	C364.863159,239.046692 365.940125,239.023224 367.485229,239.458328 
	C367.953400,243.848587 367.953400,247.780273 367.953400,252.081039 
	C369.938965,251.896240 371.310852,251.768555 372.763885,251.633331 
	C372.828003,250.429703 372.793304,249.603241 372.928619,248.805634 
	C373.425873,245.875183 371.252045,241.065765 376.384338,241.048965 
	C381.212097,241.033157 379.528717,245.694305 379.515900,248.447250 
	C379.500031,251.848633 380.926086,252.450333 383.734680,251.828400 
	C383.093048,255.516541 381.081482,255.256393 378.906342,253.282883 
	C376.968140,251.524353 375.339539,250.995178 373.520081,253.288132 
	C373.226898,253.657623 372.725067,254.090027 372.310211,254.100037 
	C366.551849,254.239075 360.700836,254.952744 355.066254,254.155884 
	C351.673462,253.676071 349.741455,253.632477 347.515656,256.493530 
	C343.187469,262.057037 335.477142,261.803558 332.572632,256.139160 
	C342.722778,259.793304 347.515106,256.676971 347.602203,246.377518 
	C347.623138,243.902008 347.791687,241.427765 347.892365,238.952942 
	C349.105835,239.004425 350.319305,239.055908 351.832153,239.471359 
	C349.828186,243.444458 349.430634,247.145264 352.925964,250.045288 
	C356.370514,252.903229 360.249786,253.140808 364.147034,250.150009 
	C363.396637,249.003143 362.823975,248.127884 362.151428,247.099991 
	C363.555115,246.264603 364.729523,245.565674 365.992737,244.813889 
	C365.176117,242.688202 364.481171,240.879181 363.786194,239.070160 
z"/>
<path fill="#0BB8AC" opacity="1.000000" stroke="none" 
	d="
M73.414330,233.971069 
	C74.281998,234.894516 75.149673,235.817978 76.087326,237.493225 
	C76.206894,241.064865 75.621216,244.106201 76.503136,246.635864 
	C77.234474,248.733582 79.427063,251.195862 81.454056,251.757309 
	C84.295799,252.544449 87.584389,251.718399 91.138802,251.562332 
	C91.138802,247.239899 91.138802,243.105957 91.138802,238.972000 
	C94.500526,243.124359 93.711464,248.025970 91.866951,252.001236 
	C91.005661,253.857468 86.584564,254.717209 83.718521,254.860611 
	C76.214813,255.236038 68.672676,255.128342 61.160782,254.833221 
	C59.504791,254.768158 56.749359,253.324249 56.557018,252.171951 
	C56.260166,250.393570 57.737221,248.319092 58.692436,246.651886 
	C58.224792,248.426071 57.526581,249.918549 56.559029,251.986771 
	C61.851337,251.986771 66.177979,252.083572 70.494545,251.917725 
	C71.554115,251.877029 72.580734,250.978622 73.622498,250.474548 
	C72.498093,249.841568 71.426819,248.823883 70.237679,248.659668 
	C68.088104,248.362808 65.868156,248.575638 63.264027,248.575638 
	C67.030533,243.156281 70.222435,238.563675 73.414330,233.971069 
z"/>
<path fill="#DEECE8" opacity="1.000000" stroke="none" 
	d="
M347.720032,238.657211 
	C347.791687,241.427765 347.623138,243.902008 347.602203,246.377518 
	C347.515106,256.676971 342.722778,259.793304 332.528198,255.771469 
	C332.181702,255.629150 332.308777,255.374603 332.495422,254.961151 
	C334.279205,253.808624 335.876312,253.069534 337.427368,252.351746 
	C330.708008,247.525177 329.956970,245.808212 332.095978,240.029892 
	C336.875031,236.033035 342.194183,237.038300 347.720032,238.657211 
M336.132202,245.921478 
	C338.009155,246.326172 339.920288,247.089386 341.742157,246.915787 
	C342.284393,246.864120 343.154724,244.016571 342.792664,242.762527 
	C342.521362,241.822968 339.932434,240.523453 339.394257,240.888062 
	C337.933838,241.877457 337.015472,243.666885 336.132202,245.921478 
z"/>
<path fill="#08B6AB" opacity="1.000000" stroke="none" 
	d="
M117.564827,237.996414 
	C118.437279,237.995316 119.309723,237.994217 120.667313,238.455399 
	C121.167198,242.231796 121.245766,245.547226 121.177925,248.859650 
	C121.115593,251.903610 122.320091,252.709763 125.043259,251.438980 
	C125.249779,248.668152 125.102036,245.944260 125.798729,243.456879 
	C126.107765,242.353500 128.078705,241.194138 129.380722,241.085632 
	C130.163803,241.020355 131.690781,242.839722 131.868286,243.971390 
	C132.274979,246.563858 132.058945,249.253983 132.095764,251.904465 
	C132.095749,251.904465 132.009689,251.988235 131.965942,252.029999 
	C130.480270,251.980164 128.987335,251.602005 127.605438,251.847885 
	C122.334846,252.785645 117.136276,254.544052 111.843987,254.853638 
	C102.162109,255.420013 97.980591,248.464966 102.353714,239.598022 
	C102.765312,242.151169 102.725922,244.463333 102.933784,246.753052 
	C103.253464,250.274490 105.358223,252.054169 108.839836,252.024902 
	C111.508980,252.002457 114.176102,251.739212 117.564827,251.540878 
	C117.564827,247.101395 117.564827,242.548904 117.564827,237.996414 
z"/>
<path fill="#D9EBE6" opacity="1.000000" stroke="none" 
	d="
M166.453369,238.950165 
	C167.487274,240.892410 168.183594,242.714935 168.998901,244.848862 
	C167.715164,245.611282 166.533203,246.313248 165.235535,247.083939 
	C166.002594,248.091949 166.623993,248.908539 167.435516,249.974976 
	C163.430649,253.107437 159.501511,252.970764 155.977005,250.088181 
	C152.426895,247.184662 152.801025,243.462906 155.294159,239.490631 
	C158.941193,236.951904 162.472137,236.072205 166.453369,238.950165 
z"/>
<path fill="#DAEBE6" opacity="1.000000" stroke="none" 
	d="
M363.449097,238.950989 
	C364.481171,240.879181 365.176117,242.688202 365.992737,244.813889 
	C364.729523,245.565674 363.555115,246.264603 362.151428,247.099991 
	C362.823975,248.127884 363.396637,249.003143 364.147034,250.150009 
	C360.249786,253.140808 356.370514,252.903229 352.925964,250.045288 
	C349.430634,247.145264 349.828186,243.444458 352.286377,239.505295 
	C355.930481,236.958160 359.462494,236.070084 363.449097,238.950989 
z"/>
<path fill="#DCEBE7" opacity="1.000000" stroke="none" 
	d="
M255.474014,239.219940 
	C256.587189,242.007904 259.873566,245.197281 253.878357,246.428864 
	C254.608398,247.598587 255.255600,248.635605 256.031067,249.878113 
	C253.289886,252.864807 249.971298,252.650253 246.662079,251.301270 
	C242.940659,249.784241 241.705414,246.734039 242.358459,242.462830 
	C246.455429,236.468063 249.262375,235.804886 255.474014,239.219940 
z"/>
<path fill="#DAEBE6" opacity="1.000000" stroke="none" 
	d="
M195.252701,239.021729 
	C196.298904,241.078171 197.024200,243.006348 198.004135,245.611481 
	C193.880630,245.827087 190.570389,246.000168 187.260147,246.173248 
	C187.203140,246.701324 187.146118,247.229401 187.089111,247.757492 
	C190.067245,248.162262 193.045380,248.567032 196.554199,249.043930 
	C192.454269,252.803162 187.827576,252.977203 184.540375,250.067581 
	C181.242371,247.148392 181.412613,243.301910 185.273849,238.501373 
	C188.649063,238.447418 191.790436,238.670456 195.252701,239.021729 
z"/>
<path fill="#EBF0EC" opacity="1.000000" stroke="none" 
	d="
M73.118484,233.626953 
	C70.222435,238.563675 67.030533,243.156281 63.264027,248.575638 
	C65.868156,248.575638 68.088104,248.362808 70.237679,248.659668 
	C71.426819,248.823883 72.498093,249.841568 73.622498,250.474548 
	C72.580734,250.978622 71.554115,251.877029 70.494545,251.917725 
	C66.177979,252.083572 61.851337,251.986771 56.559029,251.986771 
	C57.526581,249.918549 58.224792,248.426071 59.057030,246.595398 
	C59.191059,246.257233 59.132881,246.241684 59.453144,246.078033 
	C62.214310,242.994751 64.655205,240.075134 67.604782,236.547073 
	C63.308849,236.284149 60.224895,236.095398 57.140938,235.906647 
	C58.054111,234.917465 58.929184,233.122894 59.887005,233.077591 
	C64.186028,232.874222 68.508575,233.168243 73.118484,233.626953 
z"/>
<path fill="#E0EDE9" opacity="1.000000" stroke="none" 
	d="
M204.718964,251.846939 
	C203.440826,251.815353 202.179901,251.815353 200.453476,251.815353 
	C200.453476,247.639435 200.453476,243.749069 200.336853,239.403717 
	C203.943542,236.035110 211.422226,236.770859 214.934753,241.085510 
	C215.300522,244.926743 215.487534,248.061203 215.674561,251.195648 
	C215.674561,251.195648 215.723923,251.290970 215.424072,251.480423 
	C213.794418,251.698547 212.464645,251.727219 211.134857,251.755890 
	C211.134857,251.755890 211.135818,251.868484 211.178238,251.420105 
	C211.198196,248.654816 211.506638,246.265427 211.021362,244.049881 
	C210.756821,242.841980 209.101654,241.057693 208.154541,241.106400 
	C207.006851,241.165375 205.233063,242.739868 204.991562,243.917282 
	C204.468826,246.465988 204.749725,249.179520 204.701950,251.825638 
	C204.701950,251.825638 204.736176,251.878525 204.718964,251.846939 
z"/>
<path fill="#E6F0EC" opacity="1.000000" stroke="none" 
	d="
M427.079773,234.802795 
	C427.871674,234.449951 428.874207,234.137955 429.372284,234.506912 
	C433.771210,237.765533 438.080536,241.145035 443.093292,245.010849 
	C437.866272,249.061432 432.973328,252.853134 427.924927,256.765289 
	C426.985687,253.006134 426.985687,253.006134 434.180603,244.913818 
	C432.359924,241.277817 426.023560,240.872742 427.079773,234.802795 
z"/>
<path fill="#E8F1EC" opacity="1.000000" stroke="none" 
	d="
M417.261475,236.782806 
	C420.800964,239.519257 424.058929,242.036331 427.919739,245.019180 
	C422.601868,249.122421 417.706085,252.899963 412.596710,256.842316 
	C409.864075,249.821960 416.595337,248.837555 419.135925,245.121063 
	C417.281067,241.171036 409.619598,240.403839 412.548645,233.403168 
	C414.075043,234.491760 415.527496,235.527603 417.261475,236.782806 
z"/>
<path fill="#E2EEE9" opacity="1.000000" stroke="none" 
	d="
M117.311081,237.825607 
	C117.564827,242.548904 117.564827,247.101395 117.564827,251.540878 
	C114.176102,251.739212 111.508980,252.002457 108.839836,252.024902 
	C105.358223,252.054169 103.253464,250.274490 102.933784,246.753052 
	C102.725922,244.463333 102.765312,242.151169 102.610916,239.397064 
	C103.947815,238.743744 105.367744,238.542450 106.843193,239.101471 
	C106.891640,241.512253 106.488487,243.297516 106.991142,244.774521 
	C107.474091,246.193665 108.895157,247.293564 109.903992,248.533737 
	C110.992455,247.317490 112.633286,246.257050 113.031242,244.846054 
	C113.542656,243.032806 113.056267,240.938126 112.999718,238.964691 
	C114.352257,238.528061 115.704803,238.091431 117.311081,237.825607 
z"/>
<path fill="#E2EEE9" opacity="1.000000" stroke="none" 
	d="
M309.310547,237.827118 
	C309.563843,242.476196 309.563843,246.953827 309.563843,251.526886 
	C306.126251,251.707336 302.938202,252.544159 300.178040,251.798004 
	C298.139404,251.246902 295.791687,248.907959 295.142975,246.868835 
	C294.280823,244.158783 294.936951,240.965698 295.072662,237.543640 
	C296.401642,237.522293 297.598785,237.937439 298.847412,239.107193 
	C298.891510,241.512344 298.487885,243.297699 298.990417,244.774719 
	C299.473328,246.194000 300.894653,247.293976 301.903625,248.534256 
	C302.992218,247.317841 304.633179,246.257248 305.031281,244.846054 
	C305.542755,243.032776 305.056305,240.938019 304.999756,238.964508 
	C306.352234,238.528244 307.704742,238.091980 309.310547,237.827118 
z"/>
<path fill="#E0EDE9" opacity="1.000000" stroke="none" 
	d="
M317.716431,251.847382 
	C316.443024,251.815308 315.185883,251.815308 313.492798,251.815308 
	C313.492798,247.325806 313.492798,243.121613 313.425537,238.456894 
	C317.717712,238.202469 322.077179,238.408554 326.816772,239.050812 
	C327.461639,239.705658 327.726318,239.924347 327.990997,240.143036 
	C327.990997,240.143036 327.967468,240.042847 327.960632,240.510483 
	C327.953827,244.575851 327.953827,248.173584 327.953827,251.969086 
	C326.410217,251.882904 325.273193,251.819412 324.136169,251.755920 
	C324.136169,251.755920 324.137085,251.867096 324.179535,251.418808 
	C324.199493,248.653549 324.507965,246.264053 324.022522,244.048523 
	C323.757843,242.840576 322.102478,241.056793 321.154602,241.105209 
	C320.006775,241.163818 318.231903,242.738281 317.990540,243.915573 
	C317.468018,246.464310 317.749512,249.177887 317.702209,251.824051 
	C317.702179,251.824051 317.732666,251.879440 317.716431,251.847382 
z"/>
<path fill="#E5EFEA" opacity="1.000000" stroke="none" 
	d="
M383.760773,251.855133 
	C380.926086,252.450333 379.500031,251.848633 379.515900,248.447250 
	C379.528717,245.694305 381.212097,241.033157 376.384338,241.048965 
	C371.252045,241.065765 373.425873,245.875183 372.928619,248.805634 
	C372.793304,249.603241 372.828003,250.429703 372.763885,251.633331 
	C371.310852,251.768555 369.938965,251.896240 367.953400,252.081039 
	C367.953400,247.780273 367.953400,243.848587 367.889160,239.455322 
	C371.281403,236.520645 378.864807,236.807449 382.751465,240.178558 
	C383.266205,244.493607 383.491211,248.177444 383.716187,251.861282 
	C383.716187,251.861282 383.786865,251.881851 383.760773,251.855133 
z"/>
<path fill="#EAF1ED" opacity="1.000000" stroke="none" 
	d="
M411.225677,243.831055 
	C411.287903,244.875168 411.345306,246.021301 410.820404,246.443542 
	C406.573059,249.860245 402.216370,253.141037 397.699371,256.612183 
	C394.765503,249.708817 401.567780,248.726349 404.068176,245.036407 
	C401.858063,241.322723 394.827789,240.356033 397.506805,233.373520 
	C402.052399,236.830353 406.501709,240.213989 411.225677,243.831055 
z"/>
<path fill="#E2EEE9" opacity="1.000000" stroke="none" 
	d="
M132.528687,251.944305 
	C132.058945,249.253983 132.274979,246.563858 131.868286,243.971390 
	C131.690781,242.839722 130.163803,241.020355 129.380722,241.085632 
	C128.078705,241.194138 126.107765,242.353500 125.798729,243.456879 
	C125.102036,245.944260 125.249779,248.668152 125.043259,251.438980 
	C122.320091,252.709763 121.115593,251.903610 121.177925,248.859650 
	C121.245766,245.547226 121.167198,242.231796 121.103539,238.454254 
	C125.456352,238.220200 129.858093,238.449570 134.577728,238.843292 
	C135.293198,242.543701 135.887573,246.077164 135.934311,249.617859 
	C135.944550,250.393417 134.003830,251.194702 132.528687,251.944305 
z"/>
<path fill="#E5EFEA" opacity="1.000000" stroke="none" 
	d="
M91.030182,238.648224 
	C91.138802,243.105957 91.138802,247.239899 91.138802,251.562332 
	C87.584389,251.718399 84.295799,252.544449 81.454056,251.757309 
	C79.427063,251.195862 77.234474,248.733582 76.503136,246.635864 
	C75.621216,244.106201 76.206894,241.064865 76.179184,237.815063 
	C77.372894,237.430527 78.544724,237.475952 79.936050,238.197876 
	C80.169899,241.005325 79.833763,243.221710 80.324921,245.236404 
	C80.639099,246.525162 82.175423,247.515976 83.163849,248.640366 
	C84.379326,247.544968 86.319633,246.631470 86.650269,245.314011 
	C87.230560,243.001740 86.824867,240.442032 86.832153,237.985962 
	C88.195290,238.098785 89.558426,238.211609 91.030182,238.648224 
z"/>
<path fill="#E2EEE9" opacity="1.000000" stroke="none" 
	d="
M151.064758,238.668106 
	C150.115112,239.524719 149.004425,240.261230 147.789429,240.535172 
	C146.337418,240.862518 144.796204,240.794128 143.293625,240.897171 
	C143.258835,241.304962 143.224045,241.712753 143.189255,242.120544 
	C144.846848,242.634094 146.707260,242.835892 148.106613,243.746323 
	C149.591629,244.712509 151.691040,246.426239 151.602066,247.676865 
	C151.498810,249.127853 149.500641,251.259567 147.978668,251.615692 
	C145.236313,252.257355 142.236130,251.797089 139.343628,251.797089 
	C139.235550,251.019791 139.127472,250.242477 139.019394,249.465179 
	C140.894363,248.953522 142.769333,248.441864 145.233963,247.769287 
	C142.397095,245.332214 137.371613,244.782196 139.969315,239.348663 
	C143.544769,236.814484 147.130844,236.433487 151.064758,238.668106 
z"/>
<path fill="#D4EAE5" opacity="1.000000" stroke="none" 
	d="
M238.583099,248.255737 
	C239.802170,249.123795 240.639786,250.093903 242.253494,251.962891 
	C236.526978,251.962891 232.320831,251.962891 227.665985,251.906677 
	C227.217300,251.850464 227.172791,251.906067 227.187561,251.438904 
	C227.123489,245.635941 227.044662,240.300156 226.965851,234.964371 
	C228.115372,231.837692 229.787079,232.255280 231.720520,235.075317 
	C231.726669,239.116760 231.444092,242.383408 231.841537,245.565109 
	C231.964340,246.548019 233.939285,247.299561 235.066193,248.157028 
	C236.111343,248.223938 237.156494,248.290863 238.583099,248.255737 
z"/>
<path fill="#E2EEE9" opacity="1.000000" stroke="none" 
	d="
M278.707336,237.912781 
	C278.221619,238.876282 277.500000,240.236282 276.439026,240.596252 
	C275.084778,241.055756 273.456512,240.707687 271.946381,240.707687 
	C271.848602,241.198456 271.750824,241.689240 271.653046,242.180008 
	C273.189758,242.657776 274.917755,242.843140 276.212738,243.690353 
	C277.695435,244.660400 280.015564,246.509109 279.790009,247.456696 
	C279.390106,249.136734 277.537628,251.330887 275.941376,251.673859 
	C273.241119,252.254059 270.267059,251.560059 267.408112,251.401764 
	C267.375305,250.624725 267.342529,249.847672 267.309723,249.070618 
	C270.150269,248.878906 272.990784,248.687195 276.521362,248.448914 
	C273.757050,244.687057 264.004517,247.125854 269.111115,238.407455 
	C272.288818,238.029190 275.304749,237.947098 278.707336,237.912781 
z"/>
<path fill="#E0EDE9" opacity="1.000000" stroke="none" 
	d="
M287.834137,235.608643 
	C288.732849,236.572037 289.685638,237.095428 290.224945,237.897003 
	C290.663330,238.548523 291.044800,239.860916 290.701691,240.321075 
	C286.395355,246.095825 286.421936,246.628036 291.866089,250.330414 
	C288.695251,253.041840 285.093597,252.416748 283.955658,248.863861 
	C282.959473,245.753464 281.999115,242.611816 281.379852,239.414825 
	C281.230042,238.641388 282.487335,237.595383 283.150085,236.304337 
	C284.378296,233.437225 285.856049,233.050598 287.834137,235.608643 
z"/>
<path fill="#E5EFEA" opacity="1.000000" stroke="none" 
	d="
M180.784714,237.745300 
	C180.912140,238.655563 180.944199,239.809296 180.670670,239.886963 
	C174.388153,241.670975 176.214371,246.973907 175.797394,251.629715 
	C174.321060,251.770294 172.944107,251.901413 170.952286,252.091064 
	C170.952286,247.788437 170.952286,243.853638 170.888199,239.457458 
	C174.065079,238.493256 177.306046,237.990402 180.784714,237.745300 
z"/>
<path fill="#08B7AB" opacity="1.000000" stroke="none" 
	d="
M324.195068,252.103104 
	C325.273193,251.819412 326.410217,251.882904 327.953827,251.969086 
	C327.953827,248.173584 327.953827,244.575851 327.910645,240.522614 
	C328.995087,240.052017 330.122711,240.036942 331.673157,240.025879 
	C329.956970,245.808212 330.708008,247.525177 337.427368,252.351746 
	C335.876312,253.069534 334.279205,253.808624 332.455078,254.824768 
	C329.570038,254.217957 326.912018,253.334106 324.195068,252.103104 
z"/>
<path fill="#18BCB1" opacity="1.000000" stroke="none" 
	d="
M86.569374,238.169067 
	C86.824867,240.442032 87.230560,243.001740 86.650269,245.314011 
	C86.319633,246.631470 84.379326,247.544968 83.163849,248.640366 
	C82.175423,247.515976 80.639099,246.525162 80.324921,245.236404 
	C79.833763,243.221710 80.169899,241.005325 80.203339,238.432892 
	C82.170105,239.781830 84.155823,240.452194 86.569374,238.169067 
z"/>
<path fill="#08B7AB" opacity="1.000000" stroke="none" 
	d="
M318.069458,251.800171 
	C317.749512,249.177887 317.468018,246.464310 317.990540,243.915573 
	C318.231903,242.738281 320.006775,241.163818 321.154602,241.105209 
	C322.102478,241.056793 323.757843,242.840576 324.022522,244.048523 
	C324.507965,246.264053 324.199493,248.653549 324.235107,251.416962 
	C322.311035,251.834381 320.373871,251.805344 318.069458,251.800171 
z"/>
<path fill="#08B6AB" opacity="1.000000" stroke="none" 
	d="
M205.069275,251.801254 
	C204.749725,249.179520 204.468826,246.465988 204.991562,243.917282 
	C205.233063,242.739868 207.006851,241.165375 208.154541,241.106400 
	C209.101654,241.057693 210.756821,242.841980 211.021362,244.049881 
	C211.506638,246.265427 211.198196,248.654816 211.234497,251.418274 
	C209.311111,251.835495 207.373856,251.806183 205.069275,251.801254 
z"/>
<path fill="#0BB8AC" opacity="1.000000" stroke="none" 
	d="
M56.991734,236.158127 
	C60.224895,236.095398 63.308849,236.284149 67.604782,236.547073 
	C64.655205,240.075134 62.214310,242.994751 59.478813,246.080765 
	C60.563137,242.453949 58.336166,239.519058 56.991734,236.158127 
z"/>
<path fill="#05BAAE" opacity="1.000000" stroke="none" 
	d="
M304.575653,238.973389 
	C305.056305,240.938019 305.542755,243.032776 305.031281,244.846054 
	C304.633179,246.257248 302.992218,247.317841 301.903625,248.534256 
	C300.894653,247.293976 299.473328,246.194000 298.990417,244.774719 
	C298.487885,243.297699 298.891510,241.512344 298.980530,239.415649 
	C300.758636,238.973740 302.455078,238.977997 304.575653,238.973389 
z"/>
<path fill="#05BAAE" opacity="1.000000" stroke="none" 
	d="
M112.575607,238.973633 
	C113.056267,240.938126 113.542656,243.032806 113.031242,244.846054 
	C112.633286,246.257050 110.992455,247.317490 109.903992,248.533737 
	C108.895157,247.293564 107.474091,246.193665 106.991142,244.774521 
	C106.488487,243.297516 106.891640,241.512253 106.980446,239.415634 
	C108.758614,238.973846 110.455048,238.978195 112.575607,238.973633 
z"/>
<path fill="#08B7AB" opacity="1.000000" stroke="none" 
	d="
M226.639160,235.168381 
	C227.044662,240.300156 227.123489,245.635941 227.222717,251.434280 
	C226.498398,250.072937 225.138107,248.248978 225.138306,246.425171 
	C225.138718,242.740875 225.877960,239.056641 226.639160,235.168381 
z"/>
<path fill="#08B7AB" opacity="1.000000" stroke="none" 
	d="
M234.967560,247.744141 
	C233.939285,247.299561 231.964340,246.548019 231.841537,245.565109 
	C231.444092,242.383408 231.726669,239.116760 231.843628,235.420990 
	C232.624817,236.983856 233.460846,238.972687 233.951721,241.043350 
	C234.438461,243.096405 234.577438,245.231903 234.967560,247.744141 
z"/>
<path fill="#08B7AB" opacity="1.000000" stroke="none" 
	d="
M384.072449,251.722412 
	C383.491211,248.177444 383.266205,244.493607 383.033020,240.390961 
	C386.525146,243.527786 386.981598,247.303223 384.072449,251.722412 
z"/>
<path fill="#08B6AB" opacity="1.000000" stroke="none" 
	d="
M215.981155,250.959396 
	C215.487534,248.061203 215.300522,244.926743 215.130844,241.379303 
	C217.953949,243.935242 219.102432,247.097748 215.981155,250.959396 
z"/>
<path fill="#08B6AB" opacity="1.000000" stroke="none" 
	d="
M211.193512,252.102615 
	C212.464645,251.727219 213.794418,251.698547 215.471313,251.454971 
	C215.233612,252.305038 214.648819,253.370026 214.064026,254.435013 
	C213.126740,253.773117 212.189453,253.111221 211.193512,252.102615 
z"/>
<path fill="#08B7AB" opacity="1.000000" stroke="none" 
	d="
M327.854797,239.935089 
	C327.726318,239.924347 327.461639,239.705658 327.136414,239.229446 
	C327.313599,239.203674 327.527863,239.455429 327.854797,239.935089 
z"/>
<path fill="#C4E5E0" opacity="1.000000" stroke="none" 
	d="
M263.753784,237.474884 
	C264.329193,241.758240 264.712219,245.853851 264.609955,249.937332 
	C264.587921,250.816620 262.814545,251.652069 261.847900,252.507736 
	C261.383606,252.259125 260.919342,252.010513 260.455048,251.761917 
	C260.455048,247.697617 260.294281,243.621643 260.587982,239.578674 
	C260.648193,238.749939 262.410126,238.044861 263.753784,237.474884 
z"/>
<path fill="#08B0A5" opacity="1.000000" stroke="none" 
	d="
M336.007202,245.530304 
	C337.015472,243.666885 337.933838,241.877457 339.394257,240.888062 
	C339.932434,240.523453 342.521362,241.822968 342.792664,242.762527 
	C343.154724,244.016571 342.284393,246.864120 341.742157,246.915787 
	C339.920288,247.089386 338.009155,246.326172 336.007202,245.530304 
z"/>
</svg>