<svg version="1.1" id="Layer_1" xmlns="http://www.w3.org/2000/svg" xmlns:xlink="http://www.w3.org/1999/xlink" x="0px" y="0px"
	 width="100%" viewBox="0 0 500 500" enable-background="new 0 0 500 500" xml:space="preserve">
<path fill="#000000" opacity="1.000000" stroke="none" 
	d="
M227.000000,501.000000 
	C151.333359,501.000000 76.166702,501.000000 1.000040,501.000000 
	C1.000027,334.333405 1.000027,167.666779 1.000013,1.000130 
	C167.666565,1.000087 334.333130,1.000087 500.999756,1.000043 
	C500.999847,167.666534 500.999847,334.333069 500.999939,500.999817 
	C409.833344,501.000000 318.666656,501.000000 227.000000,501.000000 
M36.515602,218.058578 
	C36.753372,220.665283 38.127151,223.990219 37.017620,225.745087 
	C33.579391,231.183075 36.972832,236.139618 37.034763,241.271072 
	C37.041363,241.817703 37.457207,242.396149 37.781609,242.895935 
	C39.293522,245.225128 40.840000,247.531860 42.969196,250.744507 
	C48.592480,250.416977 46.011436,256.007141 46.123421,258.158600 
	C50.451302,260.914185 53.715355,262.992401 56.440788,264.727692 
	C57.586933,264.424500 59.709042,263.763397 59.747204,263.867310 
	C61.970196,269.922333 67.227280,266.481445 70.991096,267.518585 
	C73.723030,268.271423 76.499374,268.863129 79.255913,269.526672 
	C81.972176,270.083435 84.976967,270.159760 87.975990,270.060974 
	C90.718369,269.970673 94.081345,273.148102 96.035225,268.622314 
	C96.536140,269.678284 97.128220,270.705627 97.474609,271.810059 
	C97.562454,272.090149 96.868057,272.615570 96.070396,273.598328 
	C104.028320,271.258331 106.613083,263.946442 112.315903,259.644043 
	C112.819199,261.014221 113.175957,261.985474 113.532715,262.956726 
	C113.964745,262.994232 114.396782,263.031708 114.828812,263.069214 
	C115.125458,261.426086 115.422104,259.782959 115.745430,257.992065 
	C116.652740,258.412109 117.660034,258.878418 118.672127,259.346985 
	C118.231895,260.144531 117.806908,260.914459 117.381927,261.684387 
	C119.357201,261.255920 120.428947,259.331909 121.736313,259.155701 
	C126.825645,258.469604 131.989517,258.047302 137.126022,258.043457 
	C219.446838,257.981903 301.767731,258.000031 384.088593,258.000000 
	C399.504517,257.999969 414.920441,258.000000 430.975677,258.000000 
	C431.256348,260.666626 431.866638,264.194397 431.949982,267.734619 
	C432.118622,274.896240 431.917419,282.066528 432.083160,289.228302 
	C432.111511,290.452820 433.204224,291.652740 433.805237,292.864075 
	C434.536407,291.610840 435.398407,290.411499 435.945923,289.082581 
	C436.238678,288.371948 436.134888,287.406525 435.962555,286.609589 
	C433.936035,277.240448 434.753510,267.954163 437.052795,258.794067 
	C437.664917,256.355377 439.374725,254.192215 440.580566,251.902557 
	C441.139923,252.108261 441.699280,252.313965 442.258636,252.519669 
	C442.839294,261.692871 443.673950,270.859558 443.909515,280.041656 
	C444.061340,285.960144 443.123413,291.901245 443.125122,297.832092 
	C443.125641,299.689148 444.596008,301.545807 445.393585,303.402618 
	C446.037415,303.310303 446.681244,303.217987 447.325043,303.125641 
	C447.879730,300.687286 448.986633,298.228271 448.896301,295.814056 
	C448.433899,283.452881 447.429352,271.108612 447.145813,258.746216 
	C447.063568,255.160400 447.814728,250.898712 449.779510,248.045776 
	C455.694305,239.457291 458.119751,230.179825 458.037109,219.918243 
	C457.895538,202.335800 442.649567,184.853363 423.195038,184.904480 
	C338.541779,185.126907 253.887589,184.999985 169.233734,184.999969 
	C162.527176,184.999969 155.815125,185.166809 149.115860,184.945679 
	C144.015884,184.777313 138.552658,182.725082 133.926468,183.987045 
	C126.181671,186.099686 119.813622,181.413193 111.971512,182.030579 
	C113.679504,180.983810 114.741135,180.333176 116.695305,179.135529 
	C113.494362,178.063705 111.239418,177.308640 108.490974,176.388336 
	C108.059204,175.072784 107.368683,172.968826 106.678154,170.864883 
	C106.317276,170.925659 105.956398,170.986450 105.595520,171.047241 
	C105.132950,172.374664 104.670372,173.702087 103.767365,176.293427 
	C101.698906,171.623276 100.160301,168.149414 98.956558,165.431610 
	C94.062187,168.841339 89.873589,171.759399 85.309769,174.308990 
	C85.183807,174.187073 85.057846,174.065155 84.983963,173.207458 
	C84.727310,172.834351 84.470665,172.461227 84.214020,172.088120 
	C79.680199,175.615906 76.498192,172.484131 73.277130,169.459061 
	C72.632477,171.669876 72.099236,173.498611 71.696289,174.880493 
	C66.038155,172.763321 63.550232,178.962387 59.140190,179.524200 
	C59.019917,181.178116 58.907528,182.723648 58.794083,184.283691 
	C49.860291,182.761795 49.860291,182.761795 48.725166,184.306305 
	C49.711689,185.867355 50.485199,187.091354 51.671513,188.968552 
	C49.115257,188.363297 47.623562,188.010086 45.867580,187.594315 
	C46.295513,189.344315 46.667007,190.863525 46.913441,191.871307 
	C44.456844,192.968277 42.317776,193.923462 40.630978,194.676682 
	C42.859833,199.352615 39.599857,201.169815 37.283524,202.910843 
	C34.958191,204.658661 31.531044,205.412949 34.385342,209.739258 
	C32.687840,209.739258 31.587797,209.739258 30.244629,209.739258 
	C30.981276,211.100723 31.493738,212.047852 31.835489,212.679489 
	C33.164612,212.024719 34.328167,211.451538 34.569370,211.332703 
	C35.125805,213.843430 35.555084,215.780411 35.815712,218.593567 
	C33.969345,217.516312 32.122978,216.439072 30.335655,215.396271 
	C28.871689,219.424286 30.649347,221.930923 35.706875,221.541290 
	C35.785450,220.223480 35.864166,218.903290 36.515602,218.058578 
z"/>
<path fill="#01C8BB" opacity="1.000000" stroke="none" 
	d="
M85.684990,174.677444 
	C89.873589,171.759399 94.062187,168.841339 98.956558,165.431610 
	C100.160301,168.149414 101.698906,171.623276 103.767365,176.293427 
	C104.670372,173.702087 105.132950,172.374664 105.595520,171.047241 
	C105.956398,170.986450 106.317276,170.925659 106.678154,170.864883 
	C107.368683,172.968826 108.059204,175.072784 108.490974,176.388336 
	C111.239418,177.308640 113.494362,178.063705 116.695305,179.135529 
	C114.741135,180.333176 113.679504,180.983810 111.971512,182.030579 
	C119.813622,181.413193 126.181671,186.099686 133.926468,183.987045 
	C138.552658,182.725082 144.015884,184.777313 149.115860,184.945679 
	C155.815125,185.166809 162.527176,184.999969 169.233734,184.999969 
	C253.887589,184.999985 338.541779,185.126907 423.195038,184.904480 
	C442.649567,184.853363 457.895538,202.335800 458.037109,219.918243 
	C458.119751,230.179825 455.694305,239.457291 449.779510,248.045776 
	C447.814728,250.898712 447.063568,255.160400 447.145813,258.746216 
	C447.429352,271.108612 448.433899,283.452881 448.896301,295.814056 
	C448.986633,298.228271 447.879730,300.687286 447.325043,303.125641 
	C446.681244,303.217987 446.037415,303.310303 445.393585,303.402618 
	C444.596008,301.545807 443.125641,299.689148 443.125122,297.832092 
	C443.123413,291.901245 444.061340,285.960144 443.909515,280.041656 
	C443.673950,270.859558 442.839294,261.692871 442.258636,252.519669 
	C441.699280,252.313965 441.139923,252.108261 440.580566,251.902557 
	C439.374725,254.192215 437.664917,256.355377 437.052795,258.794067 
	C434.753510,267.954163 433.936035,277.240448 435.962555,286.609589 
	C436.134888,287.406525 436.238678,288.371948 435.945923,289.082581 
	C435.398407,290.411499 434.536407,291.610840 433.805237,292.864075 
	C433.204224,291.652740 432.111511,290.452820 432.083160,289.228302 
	C431.917419,282.066528 432.118622,274.896240 431.949982,267.734619 
	C431.866638,264.194397 431.256348,260.666626 430.975677,258.000000 
	C414.920441,258.000000 399.504517,257.999969 384.088593,258.000000 
	C301.767731,258.000031 219.446838,257.981903 137.126022,258.043457 
	C131.989517,258.047302 126.825645,258.469604 121.736313,259.155701 
	C120.428947,259.331909 119.357201,261.255920 117.381927,261.684387 
	C117.806908,260.914459 118.231895,260.144531 118.672127,259.346985 
	C117.660034,258.878418 116.652740,258.412109 115.745430,257.992065 
	C115.422104,259.782959 115.125458,261.426086 114.828812,263.069214 
	C114.396782,263.031708 113.964745,262.994232 113.532715,262.956726 
	C113.175957,261.985474 112.819199,261.014221 112.315903,259.644043 
	C106.613083,263.946442 104.028320,271.258331 96.070396,273.598328 
	C96.868057,272.615570 97.562454,272.090149 97.474609,271.810059 
	C97.128220,270.705627 96.536140,269.678284 96.035225,268.622314 
	C94.081345,273.148102 90.718369,269.970673 87.975990,270.060974 
	C84.976967,270.159760 81.972176,270.083435 79.255913,269.526672 
	C76.499374,268.863129 73.723030,268.271423 70.991096,267.518585 
	C67.227280,266.481445 61.970196,269.922333 59.747204,263.867310 
	C59.709042,263.763397 57.586933,264.424500 56.440788,264.727692 
	C53.715355,262.992401 50.451302,260.914185 46.123421,258.158600 
	C46.011436,256.007141 48.592480,250.416977 42.969196,250.744507 
	C40.840000,247.531860 39.293522,245.225128 37.781609,242.895935 
	C37.457207,242.396149 37.041363,241.817703 37.034763,241.271072 
	C36.972832,236.139618 33.579391,231.183075 37.017620,225.745087 
	C38.127151,223.990219 36.753372,220.665283 36.228844,217.857727 
	C35.942089,217.656891 35.984364,217.717377 35.984364,217.717377 
	C35.555084,215.780411 35.125805,213.843430 34.569370,211.332703 
	C34.328167,211.451538 33.164612,212.024719 31.835489,212.679489 
	C31.493738,212.047852 30.981276,211.100723 30.244629,209.739258 
	C31.587797,209.739258 32.687840,209.739258 34.385342,209.739258 
	C31.531044,205.412949 34.958191,204.658661 37.283524,202.910843 
	C39.599857,201.169815 42.859833,199.352615 40.630978,194.676682 
	C42.317776,193.923462 44.456844,192.968277 46.913441,191.871307 
	C46.667007,190.863525 46.295513,189.344315 45.867580,187.594315 
	C47.623562,188.010086 49.115257,188.363297 51.671513,188.968552 
	C50.485199,187.091354 49.711689,185.867355 48.725166,184.306305 
	C49.860291,182.761795 49.860291,182.761795 58.794083,184.283691 
	C58.907528,182.723648 59.019917,181.178116 59.140190,179.524200 
	C63.550232,178.962387 66.038155,172.763321 71.696289,174.880493 
	C72.099236,173.498611 72.632477,171.669876 73.277130,169.459061 
	C76.498192,172.484131 79.680199,175.615906 84.214020,172.088120 
	C84.470665,172.461227 84.727310,172.834351 84.670166,173.710266 
	C84.256897,174.987595 84.157417,175.762131 83.955826,177.331787 
	C84.837570,175.978256 85.261284,175.327850 85.684990,174.677444 
M290.499451,235.882523 
	C291.030548,235.445587 291.561646,235.008667 292.694061,234.269943 
	C293.353394,234.157867 294.012726,234.045807 295.407867,233.846786 
	C299.330658,230.715714 303.829193,230.337311 308.585175,231.007431 
	C309.702789,231.164902 310.865417,231.003342 312.721252,230.842316 
	C314.188385,230.777863 315.661682,230.594482 317.121490,230.670441 
	C322.241577,230.936935 327.358887,231.571304 332.473602,231.535721 
	C337.515503,231.500671 342.553406,230.501511 347.592255,230.508041 
	C353.552521,230.515747 359.509827,231.287659 365.473724,231.378616 
	C366.535919,231.394821 367.624084,229.708130 368.722595,228.872894 
	C368.722595,228.872894 368.710999,228.806763 369.642822,228.885269 
	C371.508728,228.872757 373.374664,228.860245 375.145691,228.852264 
	C375.145691,228.852264 375.144196,228.757278 375.254120,229.444748 
	C377.878845,233.936462 380.242615,230.962662 381.152008,228.610443 
	C382.707123,224.587921 382.751373,220.280518 378.967163,217.043686 
	C378.967163,217.043686 378.980682,217.150589 378.718567,216.725998 
	C378.530212,216.450638 378.314026,216.199249 377.433014,215.611588 
	C373.076752,215.408737 368.720459,215.205887 363.490570,214.983765 
	C361.195587,214.715607 358.900574,214.447449 355.848846,214.175888 
	C353.305603,214.915573 350.762390,215.655273 347.675079,215.920578 
	C346.531036,215.596466 345.386963,215.272354 344.075562,214.931030 
	C344.075562,214.931030 344.095764,214.764008 343.865753,214.169113 
	C342.890411,213.436020 341.915100,212.702942 340.496277,211.468628 
	C339.074860,211.639191 337.653442,211.809738 335.558868,212.138611 
	C334.673950,212.825378 333.789032,213.512161 332.118530,214.213531 
	C330.426025,214.659821 328.203461,214.578018 327.137238,215.648239 
	C323.471466,219.327728 322.905304,216.041641 322.128052,213.618225 
	C321.697327,212.275146 321.903809,210.727692 321.751068,207.974777 
	C320.008728,209.359863 318.985016,210.173645 317.514252,211.497437 
	C316.041351,212.989517 314.568451,214.481613 312.402771,215.715424 
	C308.806030,213.151215 305.296997,213.950470 301.162933,215.758026 
	C300.395966,214.413116 299.748657,212.979324 298.832031,211.745621 
	C297.666901,210.177536 296.283539,208.771622 294.994263,207.295792 
	C293.714355,208.778503 292.418427,210.247757 291.159088,211.747726 
	C289.937958,213.202209 288.754395,214.688232 286.900543,215.931595 
	C283.676788,215.648514 280.453003,215.365433 276.418762,215.056381 
	C275.069092,215.033356 273.719391,215.010315 271.844116,214.464340 
	C269.049591,214.384140 266.255035,214.303955 262.744873,213.914978 
	C261.748077,213.629868 260.751251,213.344742 259.359131,212.870499 
	C259.139465,212.656952 259.015961,212.397598 258.605255,211.697037 
	C258.301697,211.491776 257.998138,211.286514 256.906891,210.933456 
	C253.308609,210.601929 249.711243,210.104080 246.111221,210.084030 
	C245.419754,210.080185 244.717834,211.953339 243.748550,213.475891 
	C244.495453,215.623566 245.242355,217.771225 245.404190,220.091415 
	C244.906036,220.391586 244.407883,220.691757 243.283264,221.382477 
	C243.427078,224.545303 242.432510,228.535950 243.986679,230.673203 
	C246.211136,233.732254 248.739151,230.417892 250.856491,228.714569 
	C254.989258,225.389893 258.626587,225.449448 263.108368,228.835693 
	C263.108368,228.835693 263.129944,228.774872 263.247162,229.456955 
	C264.709717,232.857101 266.436279,231.725281 268.390961,229.862381 
	C270.218536,228.120621 272.216492,226.557693 274.623962,225.242966 
	C275.346008,226.153763 276.068054,227.064575 277.217224,228.340927 
	C277.519958,228.552261 277.822693,228.763596 278.006805,228.872589 
	C278.006805,228.872589 278.109283,228.754074 278.373810,229.464279 
	C280.579865,229.983902 282.785919,230.503540 285.394440,231.538818 
	C286.331421,232.051895 287.268433,232.564987 288.288879,233.343079 
	C288.288879,233.343079 288.132263,233.572556 288.262878,234.210220 
	C288.835815,234.805893 289.408752,235.401566 290.499451,235.882523 
M129.387070,215.198669 
	C127.477257,215.117844 125.567451,215.037018 123.051056,214.595459 
	C121.727539,215.053482 120.404022,215.511520 118.418877,216.338501 
	C114.531464,224.057968 118.747963,232.187241 127.029594,231.809387 
	C133.061234,231.534195 139.652252,233.263107 145.108948,228.669250 
	C145.782730,228.101990 147.615814,228.911758 149.148514,229.737167 
	C149.557739,230.242798 149.965485,231.186630 150.376373,231.187988 
	C156.059280,231.206985 161.743896,231.142578 167.424973,230.985825 
	C168.866272,230.946060 170.308136,230.243744 171.730133,230.304520 
	C178.110031,230.577179 184.480560,231.092575 190.861542,231.284668 
	C191.567963,231.305923 192.319702,229.821991 193.606033,228.754562 
	C194.523239,227.725006 195.440445,226.695435 196.184982,225.859695 
	C198.774536,227.894501 200.916367,230.949356 203.381943,231.237915 
	C209.039734,231.900070 214.855881,231.229584 220.605835,231.041901 
	C221.031204,231.028000 221.409592,230.419373 221.864059,230.307434 
	C223.932220,229.797989 226.019821,229.367355 228.041824,228.930679 
	C228.041824,228.930679 228.054321,228.869400 228.193497,229.521286 
	C230.005081,232.932114 232.545944,231.516846 233.192291,229.341492 
	C234.297379,225.622223 235.611115,221.382202 231.535950,217.428314 
	C228.252563,213.769226 220.676468,213.004547 216.152222,215.970963 
	C214.793686,215.967590 213.435150,215.964218 212.021469,215.983948 
	C212.021469,215.983948 212.031387,215.924759 211.671509,215.591080 
	C211.419464,215.380692 211.149185,215.197159 210.136642,214.896591 
	C207.529556,214.975800 204.922455,215.055023 201.413269,215.085098 
	C200.209076,215.057632 199.004883,215.030182 197.271439,214.588074 
	C194.254166,215.042099 191.236893,215.496109 187.333008,215.968857 
	C186.151077,216.002930 184.969147,216.037003 183.113739,215.830246 
	C179.461121,213.066177 175.927292,213.953690 171.573318,216.113449 
	C170.419540,216.071899 169.265778,216.030350 167.708893,215.347122 
	C163.993668,213.509659 160.396774,213.767441 156.073349,215.973450 
	C154.679977,215.985214 153.286621,215.996964 151.258514,215.678360 
	C146.858353,215.449142 142.458191,215.219925 137.292145,214.994629 
	C136.271011,214.990112 135.249878,214.985596 133.726776,214.528625 
	C132.467331,214.684326 131.207870,214.840042 129.387070,215.198669 
M108.458023,228.576904 
	C110.670586,224.291290 111.277763,220.062973 107.721306,215.359985 
	C106.328369,215.223450 104.935425,215.086929 102.970062,215.168777 
	C101.034172,215.433411 99.098274,215.698044 96.956871,215.276535 
	C95.681046,214.938293 94.405228,214.600052 92.959305,213.635635 
	C92.110718,212.747192 91.262131,211.858749 89.821976,210.282104 
	C85.508095,210.167725 81.185730,209.873932 76.886902,210.077408 
	C75.929367,210.122711 75.054619,211.917130 73.842857,213.408997 
	C75.336166,216.518799 77.563278,219.453873 76.133492,223.242340 
	C76.133492,223.242340 76.191811,223.257645 75.462601,223.370514 
	C74.736946,225.317062 73.259666,227.388229 73.554359,229.165604 
	C73.745407,230.317856 76.500282,231.779617 78.147141,231.832443 
	C86.580414,232.103058 95.031952,232.108887 103.464058,231.822815 
	C104.927185,231.773193 106.327759,229.879623 107.807251,228.889648 
	C107.807251,228.889648 107.737671,228.873749 108.458023,228.576904 
M407.709778,216.602570 
	C409.622192,218.136230 411.534576,219.669876 413.481750,221.231415 
	C405.785614,228.883804 405.785614,228.883804 406.835754,233.138596 
	C411.866364,229.289047 416.766998,225.538956 422.037384,221.505936 
	C416.600403,217.258087 411.718323,213.443802 406.836243,209.629501 
	C406.466766,209.857895 406.097260,210.086288 405.727783,210.314682 
	C406.184509,212.243576 406.641266,214.172485 407.709778,216.602570 
M426.622833,223.356934 
	C420.506500,228.002182 420.506500,228.002182 422.081268,233.100815 
	C427.090820,229.257019 431.994049,225.494797 437.209167,221.493286 
	C431.819061,217.291931 426.925323,213.477493 421.841614,209.514969 
	C419.542328,214.995255 423.290802,216.810730 426.103333,219.225525 
	C427.095612,220.077469 430.296234,220.749329 426.622833,223.356934 
M395.427216,224.011826 
	C392.252106,226.039032 389.488953,228.254745 391.671509,233.144974 
	C396.676819,229.301758 401.561035,225.551498 406.834106,221.502716 
	C401.438354,217.270691 396.582123,213.461838 391.604645,209.557892 
	C388.823273,216.837830 395.727875,217.769730 398.187408,221.580688 
	C397.445312,222.260239 396.730255,222.915039 395.427216,224.011826 
z"/>
<path fill="#01C8BB" opacity="1.000000" stroke="none" 
	d="
M35.942490,217.619995 
	C35.864166,218.903290 35.785450,220.223480 35.706875,221.541290 
	C30.649347,221.930923 28.871689,219.424286 30.335655,215.396271 
	C32.122978,216.439072 33.969345,217.516312 35.900040,218.155472 
	C35.984364,217.717377 35.942089,217.656891 35.942490,217.619995 
z"/>
<path fill="#0AB9AE" opacity="1.000000" stroke="none" 
	d="
M356.605591,214.179276 
	C358.900574,214.447449 361.195587,214.715607 363.996246,215.453339 
	C364.501923,220.122055 364.501923,224.321182 364.501923,228.807755 
	C366.190582,228.807755 367.445435,228.807755 368.700256,228.807739 
	C367.624084,229.708130 366.535919,231.394821 365.473724,231.378616 
	C359.509827,231.287659 353.552521,230.515747 347.592255,230.508041 
	C342.553406,230.501511 337.515503,231.500671 332.473602,231.535721 
	C327.358887,231.571304 322.241577,230.936935 317.121490,230.670441 
	C315.661682,230.594482 314.188385,230.777863 312.352325,230.543152 
	C311.964294,229.747452 311.945160,229.250931 312.114380,228.525696 
	C312.519958,227.206772 312.737213,226.116562 313.373352,225.021271 
	C315.189087,225.015060 316.585938,225.013947 318.067078,225.405655 
	C318.499084,226.809113 318.593475,228.478241 319.235046,228.725098 
	C323.934998,230.533417 320.944427,223.438126 323.548248,223.750854 
	C327.052917,226.124207 329.737762,227.942413 332.422638,229.760620 
	C332.772858,229.308655 333.123077,228.856689 333.473328,228.404739 
	C331.581696,225.790451 329.690063,223.176178 327.888916,220.686935 
	C329.710785,218.330078 331.307434,216.264511 332.904114,214.198944 
	C333.789032,213.512161 334.673950,212.825378 335.967377,212.440338 
	C335.606537,213.919922 334.837219,215.097763 334.881989,215.029221 
	C335.640167,218.998337 335.882904,221.791092 336.768494,224.362473 
	C337.344940,226.036163 338.565674,227.957458 340.038269,228.709763 
	C341.297577,229.353088 343.326447,228.490143 345.363647,228.252777 
	C344.704132,227.022781 344.624146,226.592682 344.390503,226.479279 
	C339.630157,224.168823 339.255035,220.720657 343.314392,217.529694 
	C343.923767,217.050674 343.948029,215.827316 344.242920,214.948257 
	C345.386963,215.272354 346.531036,215.596466 347.831116,216.483765 
	C345.909637,220.328949 345.358154,224.140045 348.490936,226.449081 
	C350.826752,228.170670 354.934479,229.301025 357.441650,228.410446 
	C359.491028,227.682495 361.500275,223.525482 361.383270,220.987564 
	C361.275482,218.649673 358.311462,216.443481 356.605591,214.179276 
z"/>
<path fill="#09B7AB" opacity="1.000000" stroke="none" 
	d="
M193.050415,229.036133 
	C192.319702,229.821991 191.567963,231.305923 190.861542,231.284668 
	C184.480560,231.092575 178.110031,230.577179 171.730133,230.304520 
	C170.308136,230.243744 168.866272,230.946060 167.424973,230.985825 
	C161.743896,231.142578 156.059280,231.206985 150.376373,231.187988 
	C149.965485,231.186630 149.557739,230.242798 149.077423,229.364578 
	C149.006332,228.991989 149.099487,228.900742 149.531830,228.940796 
	C151.004227,228.190659 152.940796,227.388687 152.930588,226.612335 
	C152.884003,223.073853 152.290283,219.542587 151.893250,216.008728 
	C153.286621,215.996964 154.679977,215.985214 156.369690,216.314850 
	C153.694580,224.299316 162.418304,221.639771 164.323029,224.640366 
	C162.312378,228.432236 157.521561,222.606262 155.375778,228.573853 
	C159.293167,228.573853 162.399765,228.972015 165.311905,228.392670 
	C166.614304,228.133560 168.347824,225.929092 168.374756,224.577347 
	C168.399567,223.332794 166.606018,221.709961 165.235580,220.871170 
	C163.717056,219.941711 161.769867,219.712601 160.009338,219.178513 
	C160.052704,218.728683 160.096054,218.278870 160.139404,217.829041 
	C161.632172,217.749512 163.164154,217.849823 164.605652,217.535355 
	C165.828690,217.268539 166.947220,216.522690 168.112000,215.988815 
	C169.265778,216.030350 170.419540,216.071899 171.850739,216.475464 
	C169.873260,220.275803 169.482590,223.861679 172.609283,226.786224 
	C176.021988,229.978256 180.012146,229.967834 183.945419,227.530060 
	C183.775711,225.967148 183.141251,223.591553 183.553528,223.393356 
	C188.568436,220.982559 184.152130,218.480591 183.787216,216.071091 
	C184.969147,216.037003 186.151077,216.002930 187.892670,216.414520 
	C188.452316,220.757858 188.452316,224.655518 188.452316,228.762207 
	C190.212982,228.762207 191.480499,228.762207 192.823151,228.831223 
	C192.898270,228.900238 193.050415,229.036133 193.050415,229.036133 
z"/>
<path fill="#09B7AB" opacity="1.000000" stroke="none" 
	d="
M228.100418,228.908371 
	C226.019821,229.367355 223.932220,229.797989 221.864059,230.307434 
	C221.409592,230.419373 221.031204,231.028000 220.605835,231.041901 
	C214.855881,231.229584 209.039734,231.900070 203.381943,231.237915 
	C200.916367,230.949356 198.774536,227.894501 196.184982,225.859695 
	C195.440445,226.695435 194.523239,227.725006 193.328217,228.895355 
	C193.050415,229.036133 192.898270,228.900238 192.801758,228.396255 
	C192.681183,223.573105 191.679932,218.862228 197.330963,216.871002 
	C197.665451,216.753143 197.652145,215.648285 197.800690,215.002716 
	C199.004883,215.030182 200.209076,215.057632 201.642914,215.400314 
	C199.060059,218.177551 197.597504,221.568970 199.752609,224.540665 
	C201.345398,226.736984 204.596619,228.061127 207.372971,228.937256 
	C208.894638,229.417435 210.963638,228.163132 213.185364,227.587418 
	C212.169968,225.837509 211.553070,224.774353 210.858337,223.577057 
	C216.830856,221.634781 213.340149,218.670120 212.076614,215.960846 
	C213.435150,215.964218 214.793686,215.967590 216.644867,216.425842 
	C217.159821,220.031448 216.938858,223.213257 217.335571,226.316101 
	C217.475677,227.411850 219.124786,228.314682 220.909363,230.156433 
	C221.244507,225.669662 221.096893,222.944351 221.794601,220.456085 
	C222.104340,219.351410 224.076538,218.190918 225.379761,218.082138 
	C226.163956,218.016708 227.693008,219.836655 227.870972,220.969025 
	C228.278656,223.563431 228.062973,226.255783 228.100418,228.908371 
z"/>
<path fill="#0BB8AC" opacity="1.000000" stroke="none" 
	d="
M107.757233,228.837769 
	C106.327759,229.879623 104.927185,231.773193 103.464058,231.822815 
	C95.031952,232.108887 86.580414,232.103058 78.147141,231.832443 
	C76.500282,231.779617 73.745407,230.317856 73.554359,229.165604 
	C73.259666,227.388229 74.736946,225.317062 75.693375,223.652252 
	C75.226067,225.426147 74.527977,226.918304 73.560730,228.985809 
	C78.852303,228.985809 83.178398,229.082748 87.494377,228.916611 
	C88.553139,228.875885 89.578819,227.975662 90.619713,227.470596 
	C89.493591,226.839554 88.420296,225.825409 87.229797,225.661240 
	C85.082130,225.365128 82.864342,225.577484 80.261261,225.577484 
	C84.030411,220.154404 87.221985,215.562363 90.413544,210.970306 
	C91.262131,211.858749 92.110718,212.747192 92.995712,214.388458 
	C93.037560,217.924896 92.879158,220.721039 93.090256,223.488983 
	C93.348663,226.877243 95.252502,228.945343 98.780807,229.014862 
	C101.770622,229.073776 104.764923,228.905502 107.757233,228.837769 
z"/>
<path fill="#09B7AB" opacity="1.000000" stroke="none" 
	d="
M134.228745,214.981079 
	C135.249878,214.985596 136.271011,214.990112 137.723938,215.456146 
	C138.170135,219.231110 138.247467,222.545837 138.180481,225.857666 
	C138.118942,228.900116 139.319199,229.710098 142.036774,228.431915 
	C142.245453,225.657562 142.099380,222.933685 142.798019,220.447113 
	C143.107712,219.344849 145.082047,218.187592 146.383911,218.082153 
	C147.169281,218.018539 148.693176,219.837204 148.870911,220.969299 
	C149.277832,223.561188 149.062271,226.250809 149.099487,228.900742 
	C149.099487,228.900742 149.006332,228.991989 148.959015,229.037704 
	C147.615814,228.911758 145.782730,228.101990 145.108948,228.669250 
	C139.652252,233.263107 133.061234,231.534195 127.029594,231.809387 
	C118.747963,232.187241 114.531464,224.057968 118.850777,216.583435 
	C119.437660,219.290878 119.466858,221.769424 119.778320,224.211990 
	C120.201599,227.531448 122.364357,229.076035 125.588852,229.035294 
	C128.265442,229.001480 130.938980,228.728943 133.706482,228.556396 
	C133.761230,228.431519 134.000854,228.134583 134.007370,227.832626 
	C134.099686,223.549179 134.160400,219.265045 134.228745,214.981079 
z"/>
<path fill="#09B6AA" opacity="1.000000" stroke="none" 
	d="
M311.926025,228.754395 
	C311.945160,229.250931 311.964294,229.747452 311.995361,230.616257 
	C310.865417,231.003342 309.702789,231.164902 308.585175,231.007431 
	C303.829193,230.337311 299.330658,230.715714 295.271973,233.564117 
	C295.734375,227.464951 296.381287,221.652222 296.834412,215.824432 
	C296.868805,215.381454 295.228607,214.264832 294.888153,214.445221 
	C294.091125,214.867523 293.131561,215.860596 293.085541,216.670700 
	C292.887787,220.153183 293.173370,223.666901 292.901794,227.139435 
	C292.799652,228.445129 291.663666,229.669968 290.932831,230.575882 
	C289.518768,229.390625 288.170868,228.561157 287.009460,227.444992 
	C290.596222,223.599228 290.055237,219.911758 287.554321,216.160400 
	C288.754395,214.688232 289.937958,213.202209 291.159088,211.747726 
	C292.418427,210.247757 293.714355,208.778503 294.994263,207.295792 
	C296.283539,208.771622 297.666901,210.177536 298.832031,211.745621 
	C299.748657,212.979324 300.395966,214.413116 301.438599,216.241852 
	C298.917114,222.002487 299.454651,226.041031 303.867859,227.915604 
	C306.243988,228.924896 309.220459,228.520782 311.926025,228.754395 
z"/>
<path fill="#D9EBE6" opacity="1.000000" stroke="none" 
	d="
M356.227234,214.177582 
	C358.311462,216.443481 361.275482,218.649673 361.383270,220.987564 
	C361.500275,223.525482 359.491028,227.682495 357.441650,228.410446 
	C354.934479,229.301025 350.826752,228.170670 348.490936,226.449081 
	C345.358154,224.140045 345.909637,220.328949 348.103149,216.720963 
	C350.762390,215.655273 353.305603,214.915573 356.227234,214.177582 
z"/>
<path fill="#D9EBE6" opacity="1.000000" stroke="none" 
	d="
M183.450470,215.950668 
	C184.152130,218.480591 188.568436,220.982559 183.553528,223.393356 
	C183.141251,223.591553 183.775711,225.967148 183.945419,227.530060 
	C180.012146,229.967834 176.021988,229.978256 172.609283,226.786224 
	C169.482590,223.861679 169.873260,220.275803 172.282532,216.507538 
	C175.927292,213.953690 179.461121,213.066177 183.450470,215.950668 
z"/>
<path fill="#DAEBE6" opacity="1.000000" stroke="none" 
	d="
M212.049042,215.972382 
	C213.340149,218.670120 216.830856,221.634781 210.858337,223.577057 
	C211.553070,224.774353 212.169968,225.837509 213.185364,227.587418 
	C210.963638,228.163132 208.894638,229.417435 207.372971,228.937256 
	C204.596619,228.061127 201.345398,226.736984 199.752609,224.540665 
	C197.597504,221.568970 199.060059,218.177551 202.093964,215.424881 
	C204.922455,215.055023 207.529556,214.975800 210.631409,215.187958 
	C211.427917,215.627808 211.729645,215.776291 212.031387,215.924759 
	C212.031387,215.924759 212.021469,215.983948 212.049042,215.972382 
z"/>
<path fill="#E2EEE9" opacity="1.000000" stroke="none" 
	d="
M332.511322,214.206238 
	C331.307434,216.264511 329.710785,218.330078 327.888916,220.686935 
	C329.690063,223.176178 331.581696,225.790451 333.473328,228.404739 
	C333.123077,228.856689 332.772858,229.308655 332.422638,229.760620 
	C329.737762,227.942413 327.052917,226.124207 323.548248,223.750854 
	C320.944427,223.438126 323.934998,230.533417 319.235046,228.725098 
	C318.593475,228.478241 318.499084,226.809113 318.146942,224.945343 
	C318.082123,219.723938 318.021729,215.355698 317.961304,210.987457 
	C318.985016,210.173645 320.008728,209.359863 321.751068,207.974777 
	C321.903809,210.727692 321.697327,212.275146 322.128052,213.618225 
	C322.905304,216.041641 323.471466,219.327728 327.137238,215.648239 
	C328.203461,214.578018 330.426025,214.659821 332.511322,214.206238 
z"/>
<path fill="#EBF0EC" opacity="1.000000" stroke="none" 
	d="
M90.117767,210.626205 
	C87.221985,215.562363 84.030411,220.154404 80.261261,225.577484 
	C82.864342,225.577484 85.082130,225.365128 87.229797,225.661240 
	C88.420296,225.825409 89.493591,226.839554 90.619713,227.470596 
	C89.578819,227.975662 88.553139,228.875885 87.494377,228.916611 
	C83.178398,229.082748 78.852303,228.985809 73.560730,228.985809 
	C74.527977,226.918304 75.226067,225.426147 76.057983,223.595825 
	C76.191811,223.257645 76.133492,223.242340 76.454018,223.078506 
	C79.215767,219.994888 81.656982,217.075119 84.607971,213.545639 
	C80.309341,213.283020 77.225548,213.094635 74.141754,212.906219 
	C75.054619,211.917130 75.929367,210.122711 76.886902,210.077408 
	C81.185730,209.873932 85.508095,210.167725 90.117767,210.626205 
z"/>
<path fill="#DBEBE7" opacity="1.000000" stroke="none" 
	d="
M312.114380,228.525696 
	C309.220459,228.520782 306.243988,228.924896 303.867859,227.915604 
	C299.454651,226.041031 298.917114,222.002487 301.767303,216.358505 
	C305.296997,213.950470 308.806030,213.151215 312.912750,216.181183 
	C314.113373,218.510513 314.804016,220.374084 315.812622,223.095581 
	C311.428284,223.095581 308.130920,223.095581 304.427795,223.095581 
	C306.955383,227.787079 310.244110,224.686401 312.954468,225.026337 
	C312.737213,226.116562 312.519958,227.206772 312.114380,228.525696 
z"/>
<path fill="#E7F1EC" opacity="1.000000" stroke="none" 
	d="
M407.403900,216.351974 
	C406.641266,214.172485 406.184509,212.243576 405.727783,210.314682 
	C406.097260,210.086288 406.466766,209.857895 406.836243,209.629501 
	C411.718323,213.443802 416.600403,217.258087 422.037384,221.505936 
	C416.766998,225.538956 411.866364,229.289047 406.835754,233.138596 
	C405.785614,228.883804 405.785614,228.883804 413.481750,221.231415 
	C411.534576,219.669876 409.622192,218.136230 407.403900,216.351974 
z"/>
<path fill="#E6F0EC" opacity="1.000000" stroke="none" 
	d="
M426.900269,223.156250 
	C430.296234,220.749329 427.095612,220.077469 426.103333,219.225525 
	C423.290802,216.810730 419.542328,214.995255 421.841614,209.514969 
	C426.925323,213.477493 431.819061,217.291931 437.209167,221.493286 
	C431.994049,225.494797 427.090820,229.257019 422.081268,233.100815 
	C420.506500,228.002182 420.506500,228.002182 426.900269,223.156250 
z"/>
<path fill="#E6F0EC" opacity="1.000000" stroke="none" 
	d="
M395.721191,223.790833 
	C396.730255,222.915039 397.445312,222.260239 398.187408,221.580688 
	C395.727875,217.769730 388.823273,216.837830 391.604645,209.557892 
	C396.582123,213.461838 401.438354,217.270691 406.834106,221.502716 
	C401.561035,225.551498 396.676819,229.301758 391.671509,233.144974 
	C389.488953,228.254745 392.252106,226.039032 395.721191,223.790833 
z"/>
<path fill="#E0EDE8" opacity="1.000000" stroke="none" 
	d="
M368.711426,228.840332 
	C367.445435,228.807755 366.190582,228.807755 364.501923,228.807755 
	C364.501923,224.321182 364.501923,220.122055 364.433044,215.462982 
	C368.720459,215.205887 373.076752,215.408737 377.811890,216.049454 
	C378.454071,216.708405 378.717377,216.929489 378.980682,217.150574 
	C378.980682,217.150589 378.967163,217.043686 378.968201,217.509247 
	C379.090637,220.390945 379.103973,222.818573 379.359344,225.220444 
	C379.720154,228.613739 378.257812,229.614807 375.144196,228.757278 
	C375.144196,228.757278 375.145691,228.852264 375.185730,228.462799 
	C375.145782,227.048798 375.065796,226.024292 375.064606,224.575470 
	C375.154144,223.333176 375.456268,222.357224 375.115967,221.729568 
	C374.371246,220.356033 373.300568,219.159241 372.363007,217.890259 
	C371.167389,219.130264 369.719971,220.222778 368.873749,221.667435 
	C368.391785,222.490295 368.891541,223.888229 368.848083,225.394470 
	C368.734985,226.776733 368.722992,227.791748 368.710999,228.806763 
	C368.710999,228.806763 368.722595,228.872894 368.711426,228.840332 
z"/>
<path fill="#E7EFEB" opacity="1.000000" stroke="none" 
	d="
M243.909729,220.991913 
	C244.407883,220.691757 244.906036,220.391586 246.138992,220.083618 
	C248.514984,220.082581 250.290466,220.486145 251.760910,219.988434 
	C253.343567,219.452774 254.640228,218.072098 256.061676,217.060104 
	C254.664536,215.811829 253.448257,213.921677 251.828018,213.465164 
	C249.373108,212.773438 246.637238,213.078827 244.020737,212.960571 
	C244.717834,211.953339 245.419754,210.080185 246.111221,210.084030 
	C249.711243,210.104080 253.308609,210.601929 257.453186,211.246918 
	C258.329193,211.737747 258.658905,211.915100 258.988617,212.092453 
	C259.015961,212.397598 259.139465,212.656952 259.646912,213.390274 
	C259.723450,216.134979 260.329895,219.519272 259.140869,220.357849 
	C256.108124,222.496796 252.274139,223.499695 248.480042,225.073578 
	C247.911484,228.836807 247.911484,228.836807 243.909729,228.282639 
	C243.909729,225.898956 243.909729,223.445435 243.909729,220.991913 
z"/>
<path fill="#E3EEE9" opacity="1.000000" stroke="none" 
	d="
M287.227417,216.045990 
	C290.055237,219.911758 290.596222,223.599228 287.036591,227.454681 
	C286.877228,227.751053 286.820526,227.742523 286.440613,227.858215 
	C283.410217,228.233963 280.759735,228.494019 278.109283,228.754089 
	C278.109283,228.754074 278.006805,228.872589 277.969666,228.633209 
	C277.551727,228.254349 277.170898,228.114868 276.790070,227.975388 
	C276.068054,227.064575 275.346008,226.153763 274.334595,224.684189 
	C273.898499,223.082840 273.751801,222.040268 273.719330,220.654541 
	C274.965454,218.568359 276.097351,216.825363 277.229248,215.082352 
	C280.453003,215.365433 283.676788,215.648514 287.227417,216.045990 
M285.376434,221.403732 
	C283.942780,220.186127 282.509125,218.968521 281.075470,217.750900 
	C280.028931,219.016724 278.175690,220.270142 278.156006,221.551773 
	C278.135040,222.914917 279.851074,224.304764 280.808685,225.682938 
	C282.312714,224.535416 283.816742,223.387878 285.376434,221.403732 
z"/>
<path fill="#E2EEE9" opacity="1.000000" stroke="none" 
	d="
M149.531830,228.940796 
	C149.062271,226.250809 149.277832,223.561188 148.870911,220.969299 
	C148.693176,219.837204 147.169281,218.018539 146.383911,218.082153 
	C145.082047,218.187592 143.107712,219.344849 142.798019,220.447113 
	C142.099380,222.933685 142.245453,225.657562 142.036774,228.431915 
	C139.319199,229.710098 138.118942,228.900116 138.180481,225.857666 
	C138.247467,222.545837 138.170135,219.231110 138.106873,215.454193 
	C142.458191,215.219925 146.858353,215.449142 151.575882,215.843536 
	C152.290283,219.542587 152.884003,223.073853 152.930588,226.612335 
	C152.940796,227.388687 151.004227,228.190659 149.531830,228.940796 
z"/>
<path fill="#E2EEE9" opacity="1.000000" stroke="none" 
	d="
M228.071121,228.919525 
	C228.062973,226.255783 228.278656,223.563431 227.870972,220.969025 
	C227.693008,219.836655 226.163956,218.016708 225.379761,218.082138 
	C224.076538,218.190918 222.104340,219.351410 221.794601,220.456085 
	C221.096893,222.944351 221.244507,225.669662 220.909363,230.156433 
	C219.124786,228.314682 217.475677,227.411850 217.335571,226.316101 
	C216.938858,223.213257 217.159821,220.031448 217.052429,216.419312 
	C220.676468,213.004547 228.252563,213.769226 231.752869,218.154587 
	C231.969803,222.084442 231.969803,225.288025 231.969803,228.869400 
	C230.505219,228.869400 229.279770,228.869400 228.054321,228.869400 
	C228.054321,228.869400 228.041824,228.930679 228.071121,228.919525 
z"/>
<path fill="#E1EEE9" opacity="1.000000" stroke="none" 
	d="
M107.782242,228.863708 
	C104.764923,228.905502 101.770622,229.073776 98.780807,229.014862 
	C95.252502,228.945343 93.348663,226.877243 93.090256,223.488983 
	C92.879158,220.721039 93.037560,217.924896 93.080765,214.701538 
	C94.405228,214.600052 95.681046,214.938293 96.994064,216.054169 
	C97.021248,218.302277 96.634186,219.906937 97.097557,221.208939 
	C97.664909,222.803070 98.944504,224.143738 99.916138,225.593994 
	C101.154564,224.167664 102.960381,222.920731 103.482948,221.268036 
	C104.090111,219.347870 103.572128,217.071930 103.542488,214.950394 
	C104.935425,215.086929 106.328369,215.223450 107.775887,216.124146 
	C107.799538,220.883438 107.768608,224.878601 107.737671,228.873749 
	C107.737671,228.873749 107.807251,228.889648 107.782242,228.863708 
z"/>
<path fill="#E2EEE9" opacity="1.000000" stroke="none" 
	d="
M133.977753,214.754852 
	C134.160400,219.265045 134.099686,223.549179 134.007370,227.832626 
	C134.000854,228.134583 133.761230,228.431519 133.706482,228.556396 
	C130.938980,228.728943 128.265442,229.001480 125.588852,229.035294 
	C122.364357,229.076035 120.201599,227.531448 119.778320,224.211990 
	C119.466858,221.769424 119.437660,219.290878 119.181595,216.398956 
	C120.404022,215.511520 121.727539,215.053482 123.288269,215.203369 
	C123.507805,217.444443 123.411896,219.081421 123.491280,220.709869 
	C123.602661,222.994736 123.621483,226.022568 126.806961,225.351486 
	C128.177917,225.062653 129.359131,222.234100 129.943420,220.347778 
	C130.447784,218.719482 129.984131,216.791336 129.948425,214.995758 
	C131.207870,214.840042 132.467331,214.684326 133.977753,214.754852 
z"/>
<path fill="#0CB9AE" opacity="1.000000" stroke="none" 
	d="
M243.596497,221.187195 
	C243.909729,223.445435 243.909729,225.898956 243.909729,228.282639 
	C247.911484,228.836807 247.911484,228.836807 248.480042,225.073578 
	C252.274139,223.499695 256.108124,222.496796 259.140869,220.357849 
	C260.329895,219.519272 259.723450,216.134979 259.844604,213.484833 
	C260.751251,213.344742 261.748077,213.629868 263.029358,214.515137 
	C263.262115,219.674500 263.210419,224.233719 263.158722,228.792938 
	C258.626587,225.449448 254.989258,225.389893 250.856491,228.714569 
	C248.739151,230.417892 246.211136,233.732254 243.986679,230.673203 
	C242.432510,228.535950 243.427078,224.545303 243.596497,221.187195 
z"/>
<path fill="#E4EEEA" opacity="1.000000" stroke="none" 
	d="
M167.910446,215.667969 
	C166.947220,216.522690 165.828690,217.268539 164.605652,217.535355 
	C163.164154,217.849823 161.632172,217.749512 160.139404,217.829041 
	C160.096054,218.278870 160.052704,218.728683 160.009338,219.178513 
	C161.769867,219.712601 163.717056,219.941711 165.235580,220.871170 
	C166.606018,221.709961 168.399567,223.332794 168.374756,224.577347 
	C168.347824,225.929092 166.614304,228.133560 165.311905,228.392670 
	C162.399765,228.972015 159.293167,228.573853 155.375778,228.573853 
	C157.521561,222.606262 162.312378,228.432236 164.323029,224.640366 
	C162.418304,221.639771 153.694580,224.299316 156.787506,216.306641 
	C160.396774,213.767441 163.993668,213.509659 167.910446,215.667969 
z"/>
<path fill="#E0EDE8" opacity="1.000000" stroke="none" 
	d="
M344.159241,214.939636 
	C343.948029,215.827316 343.923767,217.050674 343.314392,217.529694 
	C339.255035,220.720657 339.630157,224.168823 344.390503,226.479279 
	C344.624146,226.592682 344.704132,227.022781 345.363647,228.252777 
	C343.326447,228.490143 341.297577,229.353088 340.038269,228.709763 
	C338.565674,227.957458 337.344940,226.036163 336.768494,224.362473 
	C335.882904,221.791092 335.640167,218.998337 334.881989,215.029221 
	C334.837219,215.097763 335.606537,213.919922 336.303955,212.361176 
	C337.653442,211.809738 339.074860,211.639191 340.645569,212.090759 
	C341.895142,213.396591 342.995453,214.080292 344.095764,214.764008 
	C344.095764,214.764008 344.075562,214.931030 344.159241,214.939636 
z"/>
<path fill="#DFEDE8" opacity="1.000000" stroke="none" 
	d="
M197.536072,214.795395 
	C197.652145,215.648285 197.665451,216.753143 197.330963,216.871002 
	C191.679932,218.862228 192.681183,223.573105 192.726654,228.327240 
	C191.480499,228.762207 190.212982,228.762207 188.452316,228.762207 
	C188.452316,224.655518 188.452316,220.757858 188.335968,216.405151 
	C191.236893,215.496109 194.254166,215.042099 197.536072,214.795395 
z"/>
<path fill="#EBF0EC" opacity="1.000000" stroke="none" 
	d="
M290.998993,230.931656 
	C291.663666,229.669968 292.799652,228.445129 292.901794,227.139435 
	C293.173370,223.666901 292.887787,220.153183 293.085541,216.670700 
	C293.131561,215.860596 294.091125,214.867523 294.888153,214.445221 
	C295.228607,214.264832 296.868805,215.381454 296.834412,215.824432 
	C296.381287,221.652222 295.734375,227.464951 294.904053,233.607590 
	C294.012726,234.045807 293.353394,234.157867 292.047485,234.348785 
	C290.933167,234.419022 290.465393,234.410416 289.695557,234.244843 
	C288.973053,233.916077 288.552643,233.744308 288.132263,233.572556 
	C288.132263,233.572556 288.288879,233.343079 288.458801,232.967651 
	C289.418793,232.038681 290.208893,231.485168 290.998993,230.931656 
z"/>
<path fill="#DFEDE8" opacity="1.000000" stroke="none" 
	d="
M263.133545,228.814316 
	C263.210419,224.233719 263.262115,219.674500 263.387177,214.669525 
	C266.255035,214.303955 269.049591,214.384140 272.038635,215.120132 
	C272.045624,216.374481 271.968689,217.426910 271.653931,217.503616 
	C266.807800,218.684631 267.085449,222.285675 267.416931,226.386566 
	C265.924133,227.449341 264.527039,228.112106 263.129944,228.774872 
	C263.129944,228.774872 263.108368,228.835693 263.133545,228.814316 
z"/>
<path fill="#0CB9AE" opacity="1.000000" stroke="none" 
	d="
M243.884644,213.218231 
	C246.637238,213.078827 249.373108,212.773438 251.828018,213.465164 
	C253.448257,213.921677 254.664536,215.811829 256.061676,217.060104 
	C254.640228,218.072098 253.343567,219.452774 251.760910,219.988434 
	C250.290466,220.486145 248.514984,220.082581 246.431519,219.997345 
	C245.242355,217.771225 244.495453,215.623566 243.884644,213.218231 
z"/>
<path fill="#0EBCB0" opacity="1.000000" stroke="none" 
	d="
M129.667755,215.097214 
	C129.984131,216.791336 130.447784,218.719482 129.943420,220.347778 
	C129.359131,222.234100 128.177917,225.062653 126.806961,225.351486 
	C123.621483,226.022568 123.602661,222.994736 123.491280,220.709869 
	C123.411896,219.081421 123.507805,217.444443 123.591568,215.383728 
	C125.567451,215.037018 127.477257,215.117844 129.667755,215.097214 
z"/>
<path fill="#09B0A5" opacity="1.000000" stroke="none" 
	d="
M313.373352,225.021271 
	C310.244110,224.686401 306.955383,227.787079 304.427795,223.095581 
	C308.130920,223.095581 311.428284,223.095581 315.812622,223.095581 
	C314.804016,220.374084 314.113373,218.510513 313.259155,216.310333 
	C314.568451,214.481613 316.041351,212.989517 317.737793,211.242447 
	C318.021729,215.355698 318.082123,219.723938 318.062683,224.552490 
	C316.585938,225.013947 315.189087,225.015060 313.373352,225.021271 
z"/>
<path fill="#11BBB0" opacity="1.000000" stroke="none" 
	d="
M103.256271,215.059586 
	C103.572128,217.071930 104.090111,219.347870 103.482948,221.268036 
	C102.960381,222.920731 101.154564,224.167664 99.916138,225.593994 
	C98.944504,224.143738 97.664909,222.803070 97.097557,221.208939 
	C96.634186,219.906937 97.021248,218.302277 97.096817,216.397247 
	C99.098274,215.698044 101.034172,215.433411 103.256271,215.059586 
z"/>
<path fill="#0BB8AC" opacity="1.000000" stroke="none" 
	d="
M73.992310,213.157623 
	C77.225548,213.094635 80.309341,213.283020 84.607971,213.545639 
	C81.656982,217.075119 79.215767,219.994888 76.479942,223.080994 
	C77.563278,219.453873 75.336166,216.518799 73.992310,213.157623 
z"/>
<path fill="#0CB9AE" opacity="1.000000" stroke="none" 
	d="
M263.188538,229.115906 
	C264.527039,228.112106 265.924133,227.449341 267.664337,226.195084 
	C269.314819,223.389526 270.050812,220.481018 273.605103,220.997696 
	C273.751801,222.040268 273.898499,223.082840 274.092346,224.520737 
	C272.216492,226.557693 270.218536,228.120621 268.390961,229.862381 
	C266.436279,231.725281 264.709717,232.857101 263.188538,229.115906 
z"/>
<path fill="#0AB9AE" opacity="1.000000" stroke="none" 
	d="
M375.199158,229.101013 
	C378.257812,229.614807 379.720154,228.613739 379.359344,225.220444 
	C379.103973,222.818573 379.090637,220.390945 378.914795,217.516418 
	C382.751373,220.280518 382.707123,224.587921 381.152008,228.610443 
	C380.242615,230.962662 377.878845,233.936462 375.199158,229.101013 
z"/>
<path fill="#0AB9AE" opacity="1.000000" stroke="none" 
	d="
M369.176910,228.846008 
	C368.722992,227.791748 368.734985,226.776733 369.046265,225.138016 
	C370.156555,223.439484 370.967529,222.364655 372.089539,220.877594 
	C373.352570,222.675262 374.169189,223.837524 374.985779,224.999786 
	C375.065796,226.024292 375.145782,227.048798 375.233154,228.460541 
	C373.374664,228.860245 371.508728,228.872757 369.176910,228.846008 
z"/>
<path fill="#05B4A9" opacity="1.000000" stroke="none" 
	d="
M273.719330,220.654541 
	C270.050812,220.481018 269.314819,223.389526 267.760071,225.795074 
	C267.085449,222.285675 266.807800,218.684631 271.653931,217.503616 
	C271.968689,217.426910 272.045624,216.374481 272.301453,215.381592 
	C273.719391,215.010315 275.069092,215.033356 276.824005,215.069366 
	C276.097351,216.825363 274.965454,218.568359 273.719330,220.654541 
z"/>
<path fill="#09B7AB" opacity="1.000000" stroke="none" 
	d="
M228.123901,229.195343 
	C229.279770,228.869400 230.505219,228.869400 231.969803,228.869400 
	C231.969803,225.288025 231.969803,222.084442 231.981155,218.414810 
	C235.611115,221.382202 234.297379,225.622223 233.192291,229.341492 
	C232.545944,231.516846 230.005081,232.932114 228.123901,229.195343 
z"/>
<path fill="#0BB8AC" opacity="1.000000" stroke="none" 
	d="
M108.097847,228.725327 
	C107.768608,224.878601 107.799538,220.883438 107.919350,216.430634 
	C111.277763,220.062973 110.670586,224.291290 108.097847,228.725327 
z"/>
<path fill="#0CB9AE" opacity="1.000000" stroke="none" 
	d="
M290.932831,230.575882 
	C290.208893,231.485168 289.418793,232.038681 288.417053,232.835144 
	C287.268433,232.564987 286.331421,232.051895 285.405334,231.038177 
	C285.884308,229.605865 286.352417,228.674194 286.820526,227.742523 
	C286.820526,227.742523 286.877228,227.751053 286.850098,227.741364 
	C288.170868,228.561157 289.518768,229.390625 290.932831,230.575882 
z"/>
<path fill="#09B6AA" opacity="1.000000" stroke="none" 
	d="
M286.440613,227.858215 
	C286.352417,228.674194 285.884308,229.605865 285.204102,230.780365 
	C282.785919,230.503540 280.579865,229.983902 278.241547,229.109192 
	C280.759735,228.494019 283.410217,228.233963 286.440613,227.858215 
z"/>
<path fill="#0AB9AE" opacity="1.000000" stroke="none" 
	d="
M343.980774,214.466553 
	C342.995453,214.080292 341.895142,213.396591 340.867310,212.341370 
	C341.915100,212.702942 342.890411,213.436020 343.980774,214.466553 
z"/>
<path fill="#0CB9AE" opacity="1.000000" stroke="none" 
	d="
M288.197571,233.891388 
	C288.552643,233.744308 288.973053,233.916077 289.697083,234.510803 
	C289.994385,235.288254 289.988037,235.642746 289.981689,235.997238 
	C289.408752,235.401566 288.835815,234.805893 288.197571,233.891388 
z"/>
<path fill="#09B6AA" opacity="1.000000" stroke="none" 
	d="
M290.240570,235.939880 
	C289.988037,235.642746 289.994385,235.288254 289.999207,234.667786 
	C290.465393,234.410416 290.933167,234.419022 291.746826,234.499680 
	C291.561646,235.008667 291.030548,235.445587 290.240570,235.939880 
z"/>
<path fill="#000000" opacity="1.000000" stroke="none" 
	d="
M85.497375,174.493225 
	C85.261284,175.327850 84.837570,175.978256 83.955826,177.331787 
	C84.157417,175.762131 84.256897,174.987595 84.644135,174.078156 
	C85.057846,174.065155 85.183807,174.187073 85.497375,174.493225 
z"/>
<path fill="#0AB9AE" opacity="1.000000" stroke="none" 
	d="
M378.849609,216.938293 
	C378.717377,216.929489 378.454071,216.708405 378.130371,216.229568 
	C378.314026,216.199249 378.530212,216.450638 378.849609,216.938293 
z"/>
<path fill="#09B7AB" opacity="1.000000" stroke="none" 
	d="
M211.851440,215.757919 
	C211.729645,215.776291 211.427917,215.627808 210.993439,215.259918 
	C211.149185,215.197159 211.419464,215.380692 211.851440,215.757919 
z"/>
<path fill="#0CB9AE" opacity="1.000000" stroke="none" 
	d="
M258.796936,211.894745 
	C258.658905,211.915100 258.329193,211.737747 257.847046,211.320831 
	C257.998138,211.286514 258.301697,211.491776 258.796936,211.894745 
z"/>
<path fill="#09B6AA" opacity="1.000000" stroke="none" 
	d="
M277.003662,228.158157 
	C277.170898,228.114868 277.551727,228.254349 278.028992,228.684387 
	C277.822693,228.763596 277.519958,228.552261 277.003662,228.158157 
z"/>
<path fill="#03ACA1" opacity="1.000000" stroke="none" 
	d="
M375.064575,224.575470 
	C374.169189,223.837524 373.352570,222.675262 372.089539,220.877594 
	C370.967529,222.364655 370.156555,223.439484 369.147400,224.770752 
	C368.891541,223.888229 368.391785,222.490295 368.873749,221.667435 
	C369.719971,220.222778 371.167389,219.130264 372.363007,217.890259 
	C373.300568,219.159241 374.371246,220.356033 375.115967,221.729568 
	C375.456268,222.357224 375.154144,223.333176 375.064575,224.575470 
z"/>
<path fill="#0DB3A8" opacity="1.000000" stroke="none" 
	d="
M285.348633,221.822037 
	C283.816742,223.387878 282.312714,224.535416 280.808685,225.682953 
	C279.851074,224.304764 278.135040,222.914917 278.156006,221.551773 
	C278.175690,220.270142 280.028931,219.016724 281.075470,217.750916 
	C282.509125,218.968521 283.942780,220.186127 285.348633,221.822037 
z"/>
</svg>